<?xml version="1.0" encoding="utf-8"?>
<!-- Generator: Adobe Illustrator 19.2.0, SVG Export Plug-In . SVG Version: 6.00 Build 0)  -->
<svg version="1.1" id="Isolation_Mode" xmlns="http://www.w3.org/2000/svg" xmlns:xlink="http://www.w3.org/1999/xlink" x="0px"
	 y="0px" viewBox="0 0 13.2 12" style="enable-background:new 0 0 13.2 12;" xml:space="preserve">
<style type="text/css">
	.st0{fill:#15AFBF;}
	.st1{fill:#EF4701;}
	.st2{fill:#6BA34D;}
	.st3{fill:#FEEE85;}
	.st4{fill:#00315F;}
	.st5{fill:#47443A;}
	.st6{fill:#FCFCF6;}
</style>
<g>
	<path class="st0" d="M8.8,7.3c0-0.3-0.3-1.1-0.7-1.2C9,6.1,9.3,6.7,9.4,7L8.8,7.3z"/>
	<path class="st1" d="M4.5,1.7C4.4,1.6,6.1,2.6,6.1,4.2c0.4-1.5-0.7-2.8-1.1-3.1L4.5,1.7z"/>
	<polygon class="st2" points="9.5,8.8 9.3,8.3 8.8,8.5 9.2,8.1 8.8,7.7 9.3,7.9 9.6,7.5 9.5,8 10.1,8.1 9.5,8.2 	"/>
	<polygon class="st3" points="3.1,1.3 3.5,0.8 3.1,0.3 3.7,0.6 4,0 3.9,0.7 4.6,0.8 3.9,0.9 4,1.6 3.7,1 	"/>
	<path class="st0" d="M12.1,6.5L12.1,6.5C12.1,6.6,12.1,6.6,12.1,6.5l1-0.4L12.1,6.5z"/>
	<path class="st0" d="M12.2,7l1.1,0.2L12.2,7C12.1,6.9,12.1,7,12.2,7z"/>
	<path class="st0" d="M11.1,7.6C11.2,7.5,11.1,7.5,11.1,7.6l-0.6,0.9L11.1,7.6L11.1,7.6z"/>
	<path class="st0" d="M11.8,6.2C11.8,6.3,11.8,6.3,11.8,6.2l0.5-1L11.8,6.2L11.8,6.2z"/>
	<path class="st0" d="M11.9,7.4l0.6,0.7L11.9,7.4L11.9,7.4C11.9,7.3,11.9,7.4,11.9,7.4z"/>
	<path class="st0" d="M10.8,7C10.9,7,10.9,6.9,10.8,7L9.9,7.1L10.8,7L10.8,7z"/>
	<path class="st0" d="M10.9,7.3L10.9,7.3C10.9,7.3,10.9,7.2,10.9,7.3L10,7.9l0.7-0.5C10.8,7.4,10.9,7.3,10.9,7.3z"/>
	<path class="st0" d="M11.5,7.6l-0.1,0.9L11.5,7.6L11.5,7.6C11.5,7.5,11.5,7.5,11.5,7.6z"/>
	<path class="st0" d="M11.4,6.2l-0.3-1L11.4,6.2L11.4,6.2C11.4,6.3,11.4,6.3,11.4,6.2z"/>
	<path class="st4" d="M7.9,5.4c1.2,0,2.3,0.2,3.6,1.5c0,0,0,0.1,0,0C10.2,5.7,9.1,5.5,8,5.6L7.9,5.4z"/>
	<path class="st5" d="M0.1,12L0,11.8c1-0.4,1.5-0.3,1.6-1.3c0.2-1.5,1.2-0.3,1.5-1.6l0.2,0C3,10.5,1.9,9.3,1.8,10.6
		C1.7,11.7,1,11.7,0.1,12z"/>
	<rect x="2.3" y="6.5" transform="matrix(0.707 -0.7072 0.7072 0.707 -3.7141 5.6569)" class="st1" width="5.2" height="1.6"/>
	<polygon class="st6" points="3.3,7.8 3.3,9.4 3.7,9.7 3.9,9.6 3.9,7.3 	"/>
	<polygon class="st6" points="4.7,6.5 4.7,8.8 5.2,8.2 5.2,5.9 	"/>
	<polygon class="st6" points="6.5,5.2 6.3,4.9 6,5.1 6,7.4 6.5,6.9 	"/>
</g>
</svg>
