<svg id="Layer_1" data-name="Layer 1" xmlns="http://www.w3.org/2000/svg" viewBox="0 0 247.72 140.51"><defs><style>.cls-1{fill:#ffd200;}.cls-2{fill:#ffe363;}.cls-3{fill:#231f20;}.cls-4{fill:#fff;}</style></defs><title>logo-pick10</title><rect class="cls-1" x="53.69" y="-53.39" width="140.33" height="247.5" transform="translate(53.31 194.11) rotate(-89.91)"/><rect class="cls-2" x="3.28" y="3.72" width="240.5" height="133.17"/><rect class="cls-3" x="2.28" y="2.88" width="242.67" height="18"/><path class="cls-4" d="M16.85,17V7.38h4.67l2.16,3.9q.37.64.7,1.33T25,14.06a10.25,10.25,0,0,1-.28-1.44,14.64,14.64,0,0,1-.08-1.67V7.38h4V17h-4.5l-2.39-4.13q-.38-.65-.7-1.34t-.59-1.45q.18,1.08.28,2t.1,1.78V17Z"/><path class="cls-4" d="M48.11,17V7.38h9.32V9.24H52.28v1.91h4.55V13H52.28v2.15h5.31V17Z"/><path class="cls-4" d="M78.41,17,75.26,7.38h4.37l.79,3.84a.74.74,0,0,0,0,.13q.35,1.59.62,3.28.12-1.08.25-2t.23-1.41l.85-3.86h4.13l.83,3.81q.08.43.21,1.37t.25,2.05q.16-1.27.56-3.11l.08-.37.83-3.77h4.26L90.39,17H85.65l-.84-4.08q-.07-.31-.16-1.07t-.19-1.68q-.11.67-.24,1.35t-.29,1.43l-.85,4Z"/><path class="cls-4" d="M136.83,17V13.21l-3.53-5.83h4.43l.71,1.78q.19.5.3.88a6.49,6.49,0,0,1,.16.77,7.66,7.66,0,0,1,.45-1.53v0l.73-1.88h4.3L141,13.05V17Z"/><path class="cls-4" d="M162.21,10.21A2.39,2.39,0,0,1,163.59,8a11.79,11.79,0,0,1,8.23,0,2.39,2.39,0,0,1,1.37,2.23v3.95a2.4,2.4,0,0,1-1.37,2.23,11.65,11.65,0,0,1-8.22,0,2.4,2.4,0,0,1-1.39-2.23Zm4.21-.35v4.66a.77.77,0,0,0,.3.68,1.75,1.75,0,0,0,1,.21,1.73,1.73,0,0,0,1-.21.77.77,0,0,0,.3-.68V9.86a.77.77,0,0,0-.31-.68,1.76,1.76,0,0,0-1-.21,1.68,1.68,0,0,0-1,.21A.78.78,0,0,0,166.42,9.86Z"/><path class="cls-4" d="M192.37,17V7.38h6a9,9,0,0,1,3.48.51A1.65,1.65,0,0,1,203,9.43v.64a1.44,1.44,0,0,1-.53,1.18,4.1,4.1,0,0,1-1.74.67,3.81,3.81,0,0,1,1.74.62,1.45,1.45,0,0,1,.53,1.2V16a1.66,1.66,0,0,0,.09.62,1,1,0,0,0,.3.4h-4.21a.85.85,0,0,1-.22-.4,2.81,2.81,0,0,1-.07-.71V14a1,1,0,0,0-.47-1,5.13,5.13,0,0,0-1.9-.24V17Zm4.12-5.74a6.68,6.68,0,0,0,1.88-.21.65.65,0,0,0,.5-.64V9.86a.67.67,0,0,0-.47-.66A5.48,5.48,0,0,0,196.65,9h-.16Z"/><path class="cls-4" d="M222.25,17V7.38h4.12v4.17a2,2,0,0,1,.15-.46,2.54,2.54,0,0,1,.25-.43l2.35-3.29h4.42l-3.75,4L233.55,17h-4.37l-2-3.56-.85.86V17Z"/><path class="cls-3" d="M216.06,33c-10.45,0-11.81,33.45-11.81,45.87,0,9.84,1.23,43.29,12.3,43.29,10.21,0,12.18-29.52,12.18-44C228.73,66.33,227.5,33,216.06,33Zm.61,86.72c-6.23-.07-6.15-19.71-6.15-42.2,0-25,.81-42.68,6-42.68,4.53,0,5.8,17.73,5.8,42.68C222.34,98.46,222.26,119.79,216.68,119.73Z"/><polygon class="cls-3" points="175.39 34.53 186.95 34.53 186.95 119.06 191.87 119.06 191.87 121.03 176.37 121.03 176.37 119.18 181.29 119.18 181.29 36.37 175.39 36.37 175.39 34.53"/><polygon class="cls-3" points="120.75 34.72 136.25 34.72 136.25 36.57 131.2 36.57 131.2 73.71 142.52 36.45 138.21 36.45 138.21 34.6 149.53 34.6 149.53 36.57 144.85 36.57 134.03 72.73 148.79 119.09 153.46 119.09 153.46 120.94 143.5 120.94 131.33 82.57 131.33 118.97 136.25 118.97 136.25 120.94 120.75 120.94 120.75 119.09 125.67 119.09 125.67 36.57 120.75 36.57 120.75 34.72"/><path class="cls-3" d="M106.61,34.6H108V67.19h-1.84s-.25-32.59-9.22-32.59c-4.43,0-6.06,10.8-6.06,43,0,39.21,2.52,41.82,6.43,41.82,8.85,0,9-40,9-40h2.09s1.35,42.68-11.81,42.68C79.81,122.17,80.42,33,96.4,33c6,0,6.4,4.92,7.62,4.8S106.61,34.6,106.61,34.6Z"/><polygon class="cls-3" points="56.31 34.72 71.68 34.72 71.68 36.57 66.76 36.57 66.76 118.97 71.68 118.97 71.68 121.06 56.18 121.06 56.18 119.09 61.1 119.09 61.1 36.69 56.3 36.69 56.31 34.72"/><path class="cls-3" d="M42.17,40.22c-4.18-5.81-8.75-5.69-8.75-5.69H18.91v2.27h4.92v82.28h-5v2h15.5v-1.72h-5V78.51s4-.2,5.9-1.47C49.34,67.34,46.9,46.8,42.17,40.22Zm-4.93,30.3c-3.46,6.74-8,5.66-8,5.66V36.82s4.23-.25,6.27.74C41.2,40.32,40.18,64.79,37.24,70.51Z"/></svg>