<svg id="Layer_1" data-name="Layer 1" xmlns="http://www.w3.org/2000/svg" viewBox="0 0 465.55 208.73"><defs><style>.cls-1{fill:#3e4982;}.cls-2{fill:#2d7f67;}</style></defs><title>logo-cash4life</title><path class="cls-1" d="M75.18,179.12v-39l-46.81,39Zm-.09,29.61V191.35H0v-6.16l66.46-56.05H93v49.8h18.45v12.41H93v17.38Z"/><polygon class="cls-2" points="199.46 177.26 199.46 191.64 119.45 191.64 119.45 129.13 137.34 129.13 137.34 177.26 199.46 177.26"/><rect class="cls-2" x="215.37" y="129.13" width="17.89" height="62.51"/><polygon class="cls-2" points="335.84 156.37 335.84 169.58 272.46 169.58 272.46 191.64 254.57 191.64 254.57 129.13 337.1 129.13 337.1 143.33 272.46 143.33 272.46 156.37 335.84 156.37"/><polygon class="cls-2" points="437.86 153.42 437.86 166.72 371.44 166.72 371.44 177.44 437.86 177.44 437.86 191.64 353.9 191.64 353.9 129.13 437.86 129.13 437.86 143.33 371.44 143.33 371.44 153.42 437.86 153.42"/><rect class="cls-1" x="8" y="111.57" width="437.86" height="6.01"/><path class="cls-1" d="M31,13.89V.64h4.73V17.79H28.62L14.16,4.29v13.5H9.43V.64h7.4Z"/><path class="cls-1" d="M64.08,7.3V11H46.25v2.94h18.3v3.9H41.47V.64H64.55v3.9H46.25V7.3Z"/><path class="cls-1" d="M102.93,17.88H96.36L90,4.87l-6.35,13H77.06L67.7.64h5.64l7.25,13.82L87.35.64h5.56l6.71,13.77L106.87.64h5.42Z"/><path class="cls-1" d="M146,.64h6.17V.71L140.49,11v6.79h-4.87V11L123.92.71V.64h6.52l7.79,7Z"/><path class="cls-1" d="M154.83,3.09c1.67-1.67,4.73-3.09,12-3.09s10.31,1.42,12,3.09a8.24,8.24,0,0,1,2.3,6.13,8.24,8.24,0,0,1-2.3,6.13c-1.67,1.67-4.73,3.09-12,3.09s-10.31-1.42-12-3.09a8.24,8.24,0,0,1-2.3-6.12A8.24,8.24,0,0,1,154.83,3.09Zm20,2.47c-1-1-3.11-1.86-8-1.86s-7,.86-8,1.86a4.82,4.82,0,0,0-1.3,3.65,4.8,4.8,0,0,0,1.3,3.65c1,1,3.11,1.86,8,1.86s7-.86,8-1.86a4.8,4.8,0,0,0,1.3-3.65A4.82,4.82,0,0,0,174.82,5.56Z"/><path class="cls-1" d="M208.84,10.36c-1,1-2.35,1.62-5.29,1.84l8.65,5.51v.08h-7.13l-8.26-5.51h-6.13v5.51h-4.88V.64h14.95c5.17,0,6.91.61,8.16,1.86a5.41,5.41,0,0,1,1.37,3.92A5.34,5.34,0,0,1,208.84,10.36Zm-8.16-5.78h-10V8.67h10c2.25,0,3.58-.17,4.21-.81a1.86,1.86,0,0,0,.49-1.3,1.76,1.76,0,0,0-.51-1.35C204.33,4.68,203.18,4.58,200.68,4.58Z"/><path class="cls-1" d="M223.48,7.15l10-6.52h7.06V.71l-12.86,8.4,13.06,8.6v.08h-7.4L223.14,11.1h-2.87v6.69h-4.88V.64h4.88V7.15Z"/><path class="cls-1" d="M276.66,13.84v3.95H254.86V.64h4.88V13.84Z"/><path class="cls-1" d="M281.72,3.09c1.67-1.67,4.73-3.09,12-3.09s10.32,1.42,12,3.09A8.24,8.24,0,0,1,308,9.21a8.24,8.24,0,0,1-2.3,6.13C304,17,301,18.42,293.7,18.42s-10.32-1.42-12-3.09a8.23,8.23,0,0,1-2.3-6.12A8.23,8.23,0,0,1,281.72,3.09Zm20,2.47c-1-1-3.11-1.86-8-1.86s-7,.86-8,1.86a4.82,4.82,0,0,0-1.3,3.65,4.8,4.8,0,0,0,1.3,3.65c1,1,3.11,1.86,8,1.86s7-.86,8-1.86A4.8,4.8,0,0,0,303,9.21,4.82,4.82,0,0,0,301.71,5.56Z"/><path class="cls-1" d="M336.76,4.51H325.91V17.79H321V4.51h-10.9V.64h26.63Z"/><path class="cls-1" d="M366.15,4.51H355.29V17.79h-4.88V4.51h-10.9V.64h26.63Z"/><path class="cls-1" d="M393,7.3V11H375.15v2.94h18.3v3.9H370.37V.64h23.08v3.9h-18.3V7.3Z"/><path class="cls-1" d="M421.81,10.36c-1,1-2.35,1.62-5.29,1.84l8.65,5.51v.08H418l-8.26-5.51h-6.13v5.51h-4.87V.64h14.94c5.17,0,6.91.61,8.16,1.86a5.4,5.4,0,0,1,1.37,3.92A5.33,5.33,0,0,1,421.81,10.36Zm-8.16-5.78h-10V8.67h10c2.25,0,3.58-.17,4.21-.81a1.85,1.85,0,0,0,.49-1.3,1.75,1.75,0,0,0-.51-1.35C417.3,4.68,416.15,4.58,413.65,4.58Z"/><path class="cls-1" d="M447.06.64h6.17V.71L441.52,11v6.79h-4.88V11L425,.71V.64h6.52l7.79,7Z"/><path class="cls-2" d="M57.33,28.3C31.16,28.3,19,35,13.36,40.61c-6,6-9.1,14.3-9.1,24.14S7.4,82.94,13.36,88.9c5.62,5.62,17.8,12.31,44,12.31,16.82,0,32.17-3.16,42.13-8.67l.45-.25V77l-1.29.72c-10.75,6-26.18,9.61-41.29,9.61-14.66,0-25.92-2.85-30.89-7.82-3.61-3.61-5.29-8.29-5.29-14.75s1.7-11.45,5.19-14.94c4.84-4.84,16.17-7.62,31.08-7.62S87.69,46,98.61,52.47l1.31.77v-16L99.46,37C89.51,31.46,74.15,28.3,57.33,28.3Z"/><path class="cls-2" d="M157.32,29.47,108.76,99.65h18.74l10.89-16h58.49l10.89,16h19.42L178.64,29.47Zm30.22,40.35h-39.8l19.86-29.38Z"/><path class="cls-2" d="M281.58,57.08c-21.48-1-26.35-2.17-28.21-4a4.93,4.93,0,0,1-1.2-3.57,5.31,5.31,0,0,1,1.4-4c1.85-1.84,6.32-3.73,25.54-3.73,14.28,0,31.53,3.09,42,7.51l1.21.51V35.19l-.55-.22c-10.34-4.12-25.48-6.38-42.61-6.38-21.24,0-32.79,2.49-38.63,8.32-3.42,3.42-5,7.85-5,13.93,0,5.28,1.36,9.2,4.14,12,5.23,5.23,14.72,7.22,40.63,8.52,23.07,1.21,27.62,2.07,29.57,4a5.51,5.51,0,0,1,1.4,4.15,5.57,5.57,0,0,1-1.59,4.15c-2.41,2.41-8,4-27.29,4-16.12,0-37.41-3.93-47.46-8.76l-1.24-.6V93l.52.23c10.69,4.65,29.6,7.66,48.18,7.66,28.07,0,36.43-4.76,40.57-8.91,3.42-3.42,5-7.88,5-14,0-5.12-1.58-9.52-4.44-12.38C318.82,60.95,311.67,58.61,281.58,57.08Z"/><polygon class="cls-2" points="430.98 29.86 430.98 57.28 364.66 57.28 364.66 29.86 347.85 29.86 347.85 99.65 364.66 99.65 364.66 71.46 430.98 71.46 430.98 99.65 447.79 99.65 447.79 29.86 430.98 29.86"/><path class="cls-2" d="M452.28,130.87h-3.84v5.28h-2.31v-5.28h-3.84v-1.74h10Zm4.09-1.74,2.94,5.56,2.94-5.56h3.31v7h-2V130.7l-2.9,5.45h-2.7l-2.84-5.34v5.34h-2v-7Z"/></svg>