<?xml version="1.0" encoding="utf-8"?>
<!-- Generator: Adobe Illustrator 19.2.0, SVG Export Plug-In . SVG Version: 6.00 Build 0)  -->
<svg version="1.1" id="Layer_1" xmlns="http://www.w3.org/2000/svg" xmlns:xlink="http://www.w3.org/1999/xlink" x="0px" y="0px"
	 viewBox="0 0 310.3 305.3" style="enable-background:new 0 0 310.3 305.3;" xml:space="preserve">
<style type="text/css">
	.st0{fill:#0781BE;}
	.st1{fill:#EA1850;}
	
		.st2{fill-rule:evenodd;clip-rule:evenodd;fill:#0781BE;stroke:#FFFFFF;stroke-width:1.1943;stroke-linecap:round;stroke-miterlimit:2.6131;}
</style>
<g>
	<path class="st0" d="M0.3,100.8l0-22.8l3.2-1.1l7.6,17.1l-0.3-19.5l2.3-0.8l0,22.8l-3.1,1L2.4,79.9L2.6,100L0.3,100.8z"/>
	<path class="st0" d="M17,95.2l0-22.8l10.8-3.6l0,2.4l-8.4,2.8l0,7.3l7.8-2.6l0,2.3l-7.8,2.6l0,8.4l8.4-2.8l0,2.4L17,95.2z"/>
	<path class="st0" d="M34.2,89.4l-4.6-21.3l2.5-0.8l3.4,18.2l3.8-20.6l2.8-0.9l3.8,17.9l3.4-20.3l2.4-0.8l-4.5,24.4L44.5,86
		l-3.8-17.4l-3.8,19.9L34.2,89.4z"/>
	<path class="st0" d="M65.2,79.1l0-8.8l-6.4-11.9l2.9-1l4.8,9.6l5-12.9l2.6-0.9l-6.4,16.2l0,8.8L65.2,79.1z"/>
	<path class="st0" d="M74.7,64.5c0-4.3,0.5-7.5,1.6-9.7c1.1-2.2,2.9-3.8,5.3-4.6c2.5-0.8,4.2-0.5,5.3,1c1.1,1.5,1.6,4.4,1.6,8.7
		c0,4.3-0.5,7.5-1.6,9.7c-1.1,2.2-2.8,3.7-5.3,4.5c-2.4,0.8-4.2,0.5-5.3-1C75.2,71.6,74.7,68.7,74.7,64.5z M77.2,63.6
		c0,3.7,0.3,6.1,1,7.3c0.7,1.2,1.8,1.5,3.4,1c1.6-0.6,2.8-1.6,3.4-3.2c0.6-1.6,1-4.2,1-8c0-3.7-0.3-6.2-1-7.3
		c-0.7-1.1-1.8-1.4-3.5-0.9c-1.6,0.5-2.8,1.6-3.4,3.2C77.5,57.3,77.2,60,77.2,63.6z"/>
	<path class="st0" d="M92,70.1l0-22.8l6.1-2c2.2-0.8,3.9-0.8,5-0.2c1.1,0.6,1.6,1.9,1.6,3.9c0,1.5-0.3,2.9-1,4
		c-0.7,1.1-1.7,2.1-3,2.9c1.2-0.3,2.1-0.2,2.7,0.3c0.6,0.5,1,1.5,1.1,2.9c0,0.5,0.1,1.3,0.2,2.2c0.2,2.4,0.5,3.8,1.2,4.2l-3,1
		c-0.3-0.4-0.5-1.6-0.6-3.5c0-1-0.1-1.7-0.1-2.3c-0.1-1.5-0.5-2.5-1.2-2.8c-0.6-0.4-1.8-0.3-3.5,0.3l-3.1,1l0,10.1L92,70.1z
		 M94.4,56.9l2.9-1c1.7-0.6,2.9-1.3,3.7-2.3c0.8-1,1.2-2.2,1.2-3.6c0-1.4-0.4-2.3-1.1-2.7c-0.7-0.4-1.8-0.3-3.4,0.2l-3.4,1.1
		L94.4,56.9z"/>
	<path class="st0" d="M108.9,64.5l0-22.8l2.4-0.8l0,11l7.8-13.6l2.8-0.9l-6.7,11.5l7.3,11.2l-2.9,1l-5.9-9.4l-2.3,3.9l0,8.3
		L108.9,64.5z"/>
	<path class="st0" d="M131.7,56.8l0-22.8l2.4-0.8l0,20.4l8.7-2.9l0,2.5L131.7,56.8z"/>
	<path class="st0" d="M143.4,41.5c0-4.3,0.5-7.5,1.6-9.7c1.1-2.2,2.9-3.8,5.3-4.6c2.5-0.8,4.2-0.5,5.3,1c1.1,1.5,1.6,4.4,1.6,8.7
		c0,4.3-0.5,7.5-1.6,9.7c-1.1,2.2-2.9,3.7-5.3,4.5c-2.4,0.8-4.2,0.5-5.3-1C144,48.6,143.4,45.7,143.4,41.5z M145.9,40.7
		c0,3.7,0.3,6.1,1,7.3c0.7,1.2,1.8,1.5,3.4,1c1.6-0.6,2.8-1.6,3.4-3.2c0.6-1.6,1-4.2,1-8c0-3.7-0.3-6.2-1-7.3
		c-0.7-1.1-1.8-1.4-3.5-0.9c-1.6,0.5-2.8,1.6-3.4,3.2C146.2,34.4,145.9,37,145.9,40.7z"/>
	<path class="st0" d="M164.8,45.8l0-20.5l-5.5,1.9l0-2.3l13.2-4.4l0,2.3l-5.2,1.7l0,20.5L164.8,45.8z"/>
	<path class="st0" d="M179.4,40.9l0-20.5l-5.5,1.9l0-2.3l13.2-4.4l0,2.3l-5.2,1.7l0,20.5L179.4,40.9z"/>
	<path class="st0" d="M189.4,37.5l0-22.8l10.8-3.6l0,2.4l-8.4,2.8l0,7.3l7.8-2.6l0,2.3l-7.8,2.6l0,8.4l8.4-2.8l0,2.4L189.4,37.5z"/>
	<path class="st0" d="M203.6,32.8l0-22.8l6.1-2c2.2-0.8,3.9-0.8,5-0.2c1.1,0.6,1.6,1.9,1.6,3.9c0,1.5-0.3,2.9-1,4
		c-0.7,1.1-1.7,2.1-3,2.9c1.2-0.3,2.1-0.2,2.7,0.3c0.6,0.5,1,1.5,1.1,2.9c0,0.5,0.1,1.3,0.2,2.2c0.2,2.4,0.5,3.8,1.1,4.2l-3,1
		c-0.3-0.4-0.5-1.6-0.6-3.5c-0.1-1-0.1-1.7-0.1-2.3c-0.1-1.5-0.5-2.5-1.2-2.8c-0.6-0.4-1.8-0.3-3.5,0.3l-3.1,1l0,10.1L203.6,32.8z
		 M205.9,19.6l2.9-1c1.7-0.6,2.9-1.3,3.7-2.3c0.8-1,1.2-2.2,1.2-3.6c0-1.4-0.4-2.3-1.1-2.7c-0.7-0.4-1.8-0.3-3.4,0.2l-3.4,1.1
		L205.9,19.6z"/>
	<path class="st0" d="M224.5,25.8l0-8.8L218,5.1l2.9-1l4.8,9.6l5-12.9l2.6-0.9l-6.4,16.2l0,8.8L224.5,25.8z"/>
</g>
<g>
	<path class="st1" d="M0.7,305.3l-0.5-1.5l120.6-41.6l0.5,1.5L0.7,305.3z M0.9,290.6l-0.5-1.5l122.5-42.5l0.5,1.5L0.9,290.6z
		 M0.7,277.3l-0.5-1.5l123.2-42.4l0.5,1.5L0.7,277.3z M0.7,264l-0.5-1.5L126,219.1l0.5,1.5L0.7,264z M0.7,250.4l-0.5-1.5l128.2-44.1
		l0.5,1.5L0.7,250.4z M0.8,237.2l-0.5-1.5L126,192.4l0.5,1.5L0.8,237.2z M0.5,223.7L0,222.2l136.1-46.6l0.5,1.5L0.5,223.7z
		 M0.7,211.2l-0.5-1.5l69.4-24.3l0.5,1.5L0.7,211.2z M0.9,196.1l-0.5-1.5l57.1-19.8l0.5,1.5L0.9,196.1z M0.8,182.8l-0.5-1.5
		L59,160.8l0.5,1.5L0.8,182.8z M0.8,168.8l-0.5-1.5l57.6-19.7l0.5,1.5L0.8,168.8z M0.7,153.8l-0.5-1.5l65.6-22.6l0.5,1.5L0.7,153.8z
		 M0.8,140.7l-0.5-1.5L70.4,115l0.5,1.5L0.8,140.7z M0.8,127.5L0.3,126l85.4-29.3l0.5,1.5L0.8,127.5z"/>
</g>
<path class="st2" d="M56,161.5c0-7.1,1-14.7,2.5-22.6c1.7-8.2,3.4-16.1,6.4-23.6c2.7-7.1,6.1-13.9,9.9-19c4.2-5.4,9-9.1,14.3-10.9
	c0,0,0.1,0,0.7-0.2c0.2-0.1,0.6-0.3,0.6-0.3c3.4-1.1,6.8-1,9.6,0.4c2.7,1.3,5.2,4.7,7,10.1c1.9,5.6,2.7,13.1,2.5,23.2
	c-0.1,5.2-0.6,10.3-1.7,16.1c-1,5.3-2.2,10.6-3.8,15.7c-1.6,5.2-3.7,10.3-6,14.8c1.5,2.7,2.9,5.3,4.4,8c-2.6,4.5-5.1,8.9-7.6,13.4
	c-1.6-2.7-3-5.4-4.5-8c-5,5.1-10.4,9.2-15.1,10.8c-3.8,1.3-7.3,1.1-10.1-0.3c-3.1-1.5-5.2-4.8-6.9-9.7C56.7,174.9,56,168.4,56,161.5
	L56,161.5 M67.5,143.1c-0.3,2.6-0.5,5.6-0.7,8.3c-0.3,3.9,0.4,7.9,1.1,11c0.8,3.3,2,5.6,3.5,7c1.8,1.7,4.4,2.2,6.9,1.1
	c2.4-0.9,4.3-2.2,6.1-3.7c-1.4-2.7-2.7-5.4-3.8-8c2.3-4.4,4.7-8.9,7.2-13.3c1.5,2.8,3.2,5.6,4.8,8.3c1.1-2.3,2.7-6.6,4-13
	c1.4-6.6,2.1-12.7,2.2-18.3c0.1-4.2-0.3-7.6-0.9-10.6c-0.7-3.2-1.7-5.7-3.1-7.1c-1.4-1.4-3.1-2.7-5.4-2c-3.5,1.1-6.8,3.8-9.7,7.5
	c-2.9,3.8-5.4,8.5-7.3,14.3C70.5,130.1,68.5,136.6,67.5,143.1L67.5,143.1 M111,154.2c2-17.1,4.1-34.3,6.2-51.5
	c3.4-1.1,7.1-2.4,10.5-3.6c-2,16.1-4.5,32.2-5.8,48.3c-0.6,6.9,1.8,10.3,5.3,9c2.3-0.8,4.3-3.1,6.2-6.4c1.8-3.3,3.4-7.8,3.9-12.6
	c1.5-14.3,3.3-28.9,5-43.3c3.5-1.2,7-2.4,10.6-3.7c-1.6,12.2-3,24.5-4.3,36.5c-1.4,12.1-2.9,24.3-4.5,36.5c-3.5,1.2-7,2.4-10.6,3.6
	c0.4-2.6,0.7-5.4,1-8.1c-1.1,3.6-2.7,6.9-5,9.6c-1.7,2-3.7,3.9-5.8,4.7c-4.6,1.6-8.5,1.3-10.1-1.1c-2-2.7-3.1-6.9-3.2-12.2
	c-0.1-0.8,0.4-1.8,0.4-2.9C110.8,155.9,111.1,154.5,111,154.2L111,154.2 M154.2,160c1.3-12.1,2.7-24.3,4.1-36.4
	c1.3-12,2.5-24.2,4-36.3c3.3-1.1,6.8-2.4,10.3-3.6C171,95.8,170,108,168.8,120c-1.1,12-2.6,24.2-3.9,36.3
	C161.4,157.5,157.7,158.8,154.2,160L154.2,160 M162.6,79.6c0.6-5.9,1.2-11.7,1.9-17.7c3.3-1.1,6.8-2.4,10.3-3.5
	c-0.5,5.9-1.1,11.7-1.7,17.5C169.5,77.2,166,78.4,162.6,79.6L162.6,79.6 M176.6,115.7c0.7-7.1,2.1-14,3.8-19.5
	c1.8-6.1,4.6-11.5,7.6-15.5c3.3-4.3,7.6-7.4,12.7-9c4.3-1.4,7.8,0.1,9.6,4.1c1.8,4,3.2,9.2,3.2,15.2c0.1,1.1-0.1,2.5-0.1,3.8
	c-3.4,1.2-6.9,2.4-10.3,3.6c0.2-0.9,0.3-1.8,0.1-2.7c-0.1-5.2-2.2-7.9-5.9-6.4c-2,0.8-4,3.3-5.5,6.6c-1.6,3.4-2.8,7.4-3.6,12
	c-0.9,4.8-1.2,9.4-1.1,14c0.1,4.1,0.6,7.6,1.5,10c0.8,2.4,2.2,3.6,3.8,3.1c1.8-0.6,3.4-2,4.5-3.6c1.4-2,2.7-3.8,3.3-6.1
	c0.5-1.8,1-4.2,1.2-6.7c3.6-1.2,7.1-2.4,10.6-3.6c-1.1,5.5-2.4,10.3-3.9,15.1c-1.2,4.1-3.5,9.3-6.2,12.7c-2.5,3.2-6,5.8-9.7,7.1
	c-1.2,0.4-1.8,0.6-2.2,0.8c-2.6,0.9-4.9,0.5-7.1,0.1c-1.8-0.3-3.6-2.1-4.7-5.2c-1.3-3.4-2.5-7.8-2.4-14
	C175.6,125.9,176.2,120.4,176.6,115.7L176.6,115.7 M215.2,139c1.4-16.1,2.9-32.4,4.3-48.4c1.4-16,2.7-32.2,3.9-48.3
	c3.8-1.3,7.5-2.5,11-3.8c-1.5,17.7-2.9,35-4.6,52.6c5.2-10.7,10.3-21.6,15.4-32.4c4.1-1.4,8.3-2.9,12.4-4.3
	c-5.4,10.9-10.8,22-16.4,32.8c3.4,13.1,6.7,26.3,10.1,39.4c-4.1,1.4-8.1,2.8-12.2,4.2c-2-9.1-4.3-18.2-6.4-27.4
	c-1.4,3-3,6.1-4.7,9.1c-0.8,7.6-1.6,15.3-2.4,22.9C222.2,136.6,218.6,137.8,215.2,139L215.2,139 M113.2,277.1
	c2.1-16.2,4.1-32.6,6.2-49.1c2.1-16.3,4.2-32.9,6.1-49.2c7.8-2.7,15.6-5.4,23.5-8.1c2.7-1,5.2-1,7.4,0.1c1.9,0.9,3.6,2.8,4.9,5.4
	c1.3,2.6,2.2,5.9,3,9.8c0.6,3.6,1.1,7.9,1.2,12.5c0.1,9.2-1.2,19.1-3.4,29.4c-2.4,10.2-5.8,19.5-10.1,27c-4.3,7.6-9,11.8-14.6,13.7
	C129.2,271.6,121.2,274.3,113.2,277.1L113.2,277.1 M127.5,255c3.6-1.3,7.1-2.5,10.8-3.7c1.9-0.7,4-2.7,5.9-5.9
	c1.8-3.3,3.4-7.4,4.8-12.2c1.5-4.7,2.9-9.8,3.5-14.7c0.8-5.3,1.3-10.3,1.3-14.5c0-5.7-0.8-10.3-2.1-12.9c-1.3-3-3.3-3.9-6-2.9
	c-3.7,1.3-7.4,2.5-11,3.8c-1.2,10.6-2.5,21.2-3.6,31.5C129.9,234,128.7,244.6,127.5,255L127.5,255 M166.5,258.8
	c1.6-11.9,3.1-24.1,4.7-36.2c1.5-12,3-24.3,4.5-36.5c3.6-1.2,7.3-2.5,10.8-3.7c-0.4,3.9-1,7.9-1.5,11.7c0.8-1.8,1.7-3.6,2.4-5.4
	c0.6-1.8,1.7-3.9,2.6-5.2c1-1.7,2.4-3.3,3.9-4.5c1.5-1.3,3.4-2.7,5.3-3.4c-0.6,6.9-1.5,13.8-2.4,20.6c-0.6,0.2-1.1-0.1-1.6,0.1
	c-0.6,0.2-1.1,0.4-1.6,0.6c-3.7,1.3-6.4,3.9-7.9,7.8c-1.6,4.1-3.1,10.1-4.1,18c-1.3,10.6-2.5,21.4-3.9,32.1
	C173.9,256.3,170.2,257.6,166.5,258.8L166.5,258.8 M200.7,212.4c3-4.7,8.6-9,16.6-13.3c1.9-1,3.4-2.8,5-5.4c1.4-2.4,1.8-4.5,1.8-6.8
	c-0.1-3.4-1.7-4.9-5-3.8c-2.6,0.8-4.7,2.4-5.7,4.2c-1.2,1.9-2,4.3-2.3,5.9c-0.3,1.7-0.3,2.9-0.3,4c-3.5,1.2-7.1,2.5-10.6,3.7
	c0.8-8.5,3.1-15.4,6.2-20.4c3.2-5.3,7.6-9,13.3-10.8c9.6-2.9,14.7,1.1,15,11.9c0,0.6,0,2-0.1,3.1c0,0.8,0,2.1,0,2.1
	c-1.3,13-2.9,25.9-4.2,38.9c-0.1,1.1,0.1,1.9,0.1,2.3c0,1.9,0.6,3.9,1.6,5.7c0.1,0.8,0.1,1.7,0.1,2.5c-3.9,1.3-7.9,2.7-11.9,4.1
	c-0.2-1-0.6-2.7-0.6-5.4c-1.1,1.9-2.4,4.2-3.9,6c-1.5,1.4-3.3,2.9-5.2,4.3c-1.5,1.2-3.1,2.2-4.8,2.9c-3.6,1.2-6.2,0.6-7.8-1.9
	c-1.7-2.5-2.8-6-2.9-10.9c0-4.3,0.6-8.3,1.4-12C197.5,219,199,215.3,200.7,212.4L200.7,212.4 M211.3,232.1c1.5-0.7,3.2-2.4,5.1-4.8
	c1.8-2.2,3.6-5.7,4.5-8.6c1.3-3.4,1.9-7.1,1.7-11.1c-1.3,1.4-3.1,2.9-5.9,4.8c-2.5,1.7-4.5,3.3-5.5,3.9c-1.3,0.9-2.4,2.3-3,4.2
	c-0.7,1.6-1.5,4.1-1.5,6.9C206.7,231.5,208.6,233,211.3,232.1L211.3,232.1 M247,231.1c-0.6-11.3-1.6-22.8-2.4-34.3
	c-0.9-11.5-1.7-23.1-2.6-34.7c3.6-1.2,7.1-2.4,10.7-3.6c0.5,16.4,1,32.8,1.5,49.1c3.7-17.7,7.1-35.5,10.7-53.3
	c3.7-1.3,7.5-2.5,11.2-3.8c0.4,16.4,0.9,32.9,1.4,49.1c3.5-17.6,6.8-35.4,10.3-53.1c3.8-1.3,7.6-2.7,11.5-4
	c-2.9,12.9-5.7,25.8-8.5,38.6c-2.8,12.7-5.9,25.6-9,38.2c-3.9,1.3-7.8,2.7-11.8,4.1c-0.4-15.5-1-31.2-1.5-46.8
	c-3.6,17.1-7.2,34.2-10.9,51.1C254,228.7,250.5,229.9,247,231.1L247,231.1z"/>
<g>
	<path class="st0" d="M306.4,141.2c2.2,0,3.9,1.8,3.9,4c0,2.2-1.7,4-3.9,4c-2.2,0-3.9-1.8-3.9-4C302.5,143,304.2,141.2,306.4,141.2
		L306.4,141.2z M306.4,141.8c-1.8,0-3.2,1.5-3.2,3.4c0,1.9,1.4,3.4,3.2,3.4c1.8,0,3.2-1.5,3.2-3.4
		C309.6,143.3,308.2,141.8,306.4,141.8L306.4,141.8z M305.7,147.5H305v-4.4c0.4-0.1,0.7-0.1,1.3-0.1c0.7,0,1.1,0.1,1.4,0.3
		c0.3,0.2,0.4,0.5,0.4,0.9c0,0.6-0.4,0.9-0.9,1.1v0c0.4,0.1,0.7,0.4,0.7,1.1c0.1,0.7,0.2,1,0.3,1.1h-0.7c-0.1-0.1-0.2-0.5-0.3-1.1
		c-0.1-0.6-0.4-0.8-1-0.8h-0.5V147.5z M305.7,145.1h0.5c0.6,0,1.1-0.2,1.1-0.8c0-0.4-0.3-0.8-1.1-0.8c-0.2,0-0.4,0-0.5,0V145.1z"/>
</g>
</svg>
