<?xml version="1.0" encoding="utf-8"?>
<!-- Generator: Adobe Illustrator 12.0.1, SVG Export Plug-In  -->
<!DOCTYPE svg PUBLIC "-//W3C//DTD SVG 1.1//EN" "http://www.w3.org/Graphics/SVG/1.1/DTD/svg11.dtd" [
	<!ENTITY ns_flows "http://ns.adobe.com/Flows/1.0/">
	<!ENTITY ns_svg "http://www.w3.org/2000/svg">
	<!ENTITY ns_xlink "http://www.w3.org/1999/xlink">
]>
<svg  version="1.1" xmlns="&ns_svg;" xmlns:xlink="&ns_xlink;" xmlns:a="http://ns.adobe.com/AdobeSVGViewerExtensions/3.0/"
	 width="271" height="270" viewBox="-1 -0.012 271 270" enable-background="new -1 -0.012 271 270" xml:space="preserve">
<defs>
</defs>
<path fill="#0060A9" d="M212.484,91.36c-0.834-5.365-3.006-8.254-6.505-7.604c0,0,1.435,4.536,2.023,7.098
	c0.593,2.57,1.14,5.485,1.14,5.485C212.152,95.809,213.151,95.634,212.484,91.36z"/>
<path fill="#0060A9" d="M218.728,152.625c0,0,0.484,6.376,0.659,9.576c0.166,3.196,0.667,9.697,0.667,9.697
	c4.387-0.775,6.563-4.051,5.755-11.351C225.141,154.594,225.216,151.348,218.728,152.625z"/>
<path fill="#0060A9" d="M184.413,88.471c-0.626-2.641-2.022-3.777-3.797-3.466c-1.778,0.315-2.156,1.476-1.679,3.553
	c2.105,9.121,5.045,23.85,6.5,32.121c0.431,2.425,1.808,3.993,3.582,3.677c1.774-0.315,2.491-1.99,2.139-3.996
	C190.611,117.271,187.448,101.285,184.413,88.471z"/>
<path fill="#0060A9" d="M111.814,3.569C39.352,16.344-9.207,85.695,3.568,158.164c12.779,72.462,82.13,121.021,154.595,108.239
	c35.105-6.189,65.696-25.679,86.144-54.876c20.442-29.207,28.294-64.608,22.101-99.712C253.63,39.351,184.276-9.21,111.814,3.569z
	 M226.455,77.787c0,0,2.264,7.682,3.117,10.82c0.854,3.13,2.496,8.772,2.496,8.772l0.104-0.017c0,0-0.249-6.401-0.452-8.789
	c-0.203-2.392-0.949-10.256-0.949-10.256l5.56,0.742c0,0,0.945,7.42,1.239,10.463c0.299,3.039,0.443,8.358,0.443,8.358
	s3.039,7.475,4.561,12.205c1.459,4.515,4.564,13.664,4.564,13.664l-5.808,0.597c0,0-2.446-7.143-3.342-10.007
	c-0.899-2.861-4.896-13.606-4.896-13.606l-0.104,0.017c0,0,1.891,10.178,2.629,13.838c0.737,3.657,1.857,10.522,1.857,10.522
	l-6.937,1.223c0,0-3.304-17.42-4.938-25.056c-1.625-7.632-6.753-24.132-6.753-24.132L226.455,77.787z M213.848,117.652
	c0.945,4.399,1.8,10.705,1.8,10.705l-9.515,1.679c0,0-3.313-18.54-4.867-26.105c-1.555-7.558-6.923-27.104-6.923-27.104
	l13.407-0.137c6.164,0.294,10.853,3.429,12.913,13.146c0.519,2.492,1.174,7.889-3.25,9.543l0.021,0.112
	c4.08-0.605,7.09,3.972,8.109,9.722l1.567,9.888c0.281,1.583,1.306,5.456,2.329,7.346l-8.229,1.189
	c-1.219-2.023-1.961-5.257-2.243-6.836l-2.69-13.312c-0.672-3.325-3.491-3.893-5.277-3.549
	C211,103.938,212.902,113.25,213.848,117.652z M191.531,133.733c-10.215,2.143-16.702-5.328-17.88-12.01
	c-1.65-9.357-4.573-24.646-6.073-32.005c-1.501-7.358,3.549-12.188,9.149-13.071c9.386-1.48,17.03,4.751,19.028,13.615
	c1.708,7.624,4.208,18.983,5.829,28.17C203.206,127.623,197.759,132.419,191.531,133.733z M177.088,31.534
	c2.09,0.149,4.341,0.444,4.341,0.444s4.825,9.584,6.542,13.142c1.708,3.561,4.871,10.083,4.871,10.083l0.1-0.017
	c0,0-2.384-8.399-3.441-11.629c-1.119-3.416-3.478-11.355-3.478-11.355s2.342,0.232,4.278,0.526
	c1.936,0.294,4.236,0.809,4.236,0.809s5.589,10.277,7.533,13.921c1.948,3.644,4.465,8.685,4.465,8.685l0.091-0.017
	c0,0-2.089-6.77-3.18-9.688c-1.09-2.91-5.248-12.25-5.248-12.25l3.246,0.738l2.931,0.667c0,0,4.95,11.608,7.031,17.885
	c2.077,6.276,4.934,16.271,4.934,16.271s-2.384-0.352-4.217-0.464c-1.828-0.107-4.502-0.149-4.502-0.149s-4.059-8.847-6.708-14.584
	c-2.388-5.174-7.524-13.834-7.524-13.834l-0.091,0.017c0,0,3.154,10.12,4.548,14.966c1.385,4.842,3.636,13.312,3.636,13.312
	s-2.72-0.298-5.137-0.303c-2.413-0.008-4.834,0.253-4.834,0.253s-6.496-14.215-8.913-19.103c-2.413-4.888-9.801-18.436-9.801-18.436
	S174.99,31.384,177.088,31.534z M162.877,30.808c4.266-0.037,9.129,0.502,9.129,0.502l1.745,4.515c0,0-3.139-0.22-4.606-0.22
	c-1.542,0-4.643,0.042-4.643,0.042s0.816,2.537,1.293,3.905c0.477,1.373,0.991,3.184,0.991,3.184s3.429,0.017,5.356,0.091
	s4.439,0.253,4.439,0.253l1.837,5.534c0,0-3.109-0.062-4.743-0.029c-1.629,0.037-4.613,0.215-4.613,0.215s1.31,4.502,2.131,7.201
	c0.824,2.699,1.708,6.248,1.708,6.248s4.05-0.443,5.865-0.435c1.813,0.012,4.739,0.025,4.739,0.025l1.642,6.861
	c0,0-6.886,0.494-10.48,0.647c-3.599,0.149-9.938,0.8-9.938,0.8s-3.411-12.665-5.277-19.654c-1.861-6.99-5.978-19.273-5.978-19.273
	S159.009,30.846,162.877,30.808z M154.42,80.063l11.508-1.165l-2.827,34.778l4.009,22.722l-12.267,2.164l-4.345-22.664
	L134.23,82.936l11.595-1.874l8.656,20.87l0.104-0.017L154.42,80.063z M131.66,32.566c2.189-0.298,6.173-0.659,6.173-0.659
	s4.949,9.216,6.421,12.483c1.468,3.258,6.069,12.449,6.069,12.449l0.096-0.017l-3.172-12.532l-3.208-12.703l7.089-0.472
	c0,0,4.1,13.237,5.887,19.203c1.782,5.97,5.12,19.771,5.12,19.771l-13.553,1.787c0,0-3.735-8.822-6.799-15.596
	c-1.94-4.291-8.142-17.859-8.142-17.859l-0.099,0.017c0,0,2.794,13.631,3.793,18.025c1.327,5.825,3.047,16.28,3.047,16.28
	l-8.494,1.501l-7.164-40.615C124.724,33.627,129.894,32.807,131.66,32.566z M31.566,95.045c16.388-34.069,46.83-53.91,83.295-60.577
	c0,0,5.261,37.353,8.097,54.466l9.291,53.102c0,0-37.585,6.463-57.331,10.272c-19.762,3.802-51.174,10.41-51.174,10.41
	C19.129,137.853,21.38,116.23,31.566,95.045z M62.058,232.835c-3.769-0.676-9.017-2.027-9.017-2.027
	c-10.385-16.645-18.403-32.805-24.493-57.571l8.644-1.521c3.445,14.377,9.771,34.625,20.251,53.28c0,0,3.624,0.775,5.344,0.991
	c1.716,0.22,5.547,0.7,5.547,0.7l4.154,7.408C72.488,234.095,66.058,233.548,62.058,232.835z M91.96,236.094
	c-6.227,1.31-16.997-0.609-23.166-9.747c-5.771-8.54-9.8-18.945-14.63-33.857c-4.822-14.908-2.964-24.157,9.34-26.192
	c10.704-1.774,20.082,4.469,23.833,18.668c3.101,11.728,8.304,27.154,11.409,36.88C102.781,234.44,95.696,235.302,91.96,236.094z
	 M122.763,234.664c-3.541,0.452-9.117,0.576-9.117,0.576s-4.892-13.523-7.636-22.043c-3.143-9.779-9.589-36.813-9.589-36.813
	l-11.31,1.091l-2.4-12.068l38.928-6.865l2.375,13.494l-9.971,1.758c0,0,4.573,21.674,7.168,31.814
	c2.6,10.148,7.69,28.231,7.69,28.231S125.454,234.315,122.763,234.664z M159.345,207.153c1.223,7.665,3.047,21.687,3.047,21.687
	l-15.898,2.802c0,0-2.317-12.126-4.568-21.416c-2.372-9.792-7.699-39.989-7.699-39.989l-9.166,1.616l-2.375-13.494l40.171-7.085
	l2.334,13.245l-12.383,2.181C152.807,166.699,158.121,199.488,159.345,207.153z M204.325,216.792c0,0-7.321,3.192-14.365,5.248
	c-6.716,1.957-15.16,3.91-15.16,3.91s-2.305-22.665-3.831-34.928c-1.559-12.521-6.119-40.097-6.119-40.097
	s11.335-2.147,17.072-3.313c5.733-1.161,17.897-3.284,17.897-3.284l1.873,12.844l-17.308,3.702c0,0,1.02,5.767,1.389,9.315
	c0.364,3.557,1.036,8.088,1.036,8.088s4.967-1.136,7.703-1.745c2.735-0.613,8.184-1.961,8.184-1.961l1.007,11.579
	c0,0-4.851,1.638-8.221,2.483c-3.462,0.866-7.657,1.998-7.657,1.998s0.788,8.13,0.949,11.977c0.162,3.848,0.742,10.074,0.742,10.074
	l14.854-4.424L204.325,216.792z M235.551,202.629l-9.655,5.319c-1.339-4.672-0.643-10.219-0.411-12.591c0,0,0.419-4.207,0.39-9.497
	c-0.016-3.346-1.376-4.15-3.134-3.839l-2.62,0.46c0,0,0.129,13.191-0.364,17.764c-0.494,4.581-1.174,10.937-1.174,10.937
	l-12.192,4.859c0,0,1.074-17.371,0.033-34.244c-1.069-17.44-3.968-38.318-3.968-38.318l16.219-2.86
	c7.789-1.248,15.662-2.766,17.557,9.432c0.975,6.297,1.542,19.758-6.666,23.013l0.037,0.216c5.667-0.829,7.354,2.877,7.205,7.163
	l-1.314,13.801C235.215,197.784,235.099,199.351,235.551,202.629z M254.438,155.887c-0.738,6.069-3.769,19.654-3.769,19.654
	s-1.173,8.333-1.612,10.622c-0.478,2.487-1.721,8.577-1.721,8.577l-6.774,4.809c0,0,1.285-8.312,1.608-11.392
	c0.323-3.085,1.041-9.49,1.041-9.49s-2.227-14.336-4.038-22.415c-1.306-5.838-4.975-18.76-4.975-18.76l9.659-2.06
	c0,0,1.82,9.211,2.487,13.356c0.543,3.392,1.717,11.969,1.717,11.969l0.198-0.037c0,0,0.995-9.568,1.17-12.74
	c0.174-3.171,0.368-14.016,0.368-14.016l6.601-1.422C256.399,132.543,255.102,150.453,254.438,155.887z"/>
<path fill="#0060A9" d="M71.788,184.633c-0.899-3.354-2.687-5.626-5.34-5.29c-2.906,0.373-2.379,4.291-1.625,6.878
	c4.299,14.875,11.372,33.008,12.848,36.237c1.472,3.233,3.926,6.152,7.06,5.601c2.782-0.489,0.481-4.605-0.589-6.997
	C83.076,218.666,76.277,201.382,71.788,184.633z"/>
<path fill="#0060A9" style="stroke-width:4;stroke:#FFF;" d="M267.912,111.55C254.989,38.254,184.845-10.86,111.549,2.064C38.257,14.984-10.859,85.129,2.063,158.428
	c12.924,73.292,83.069,122.406,156.365,109.483c35.508-6.264,66.451-25.977,87.13-55.511
	C266.237,182.872,274.176,147.053,267.912,111.55z M244.307,211.527c-20.447,29.197-51.038,48.687-86.144,54.876
	C85.698,279.184,16.347,230.625,3.568,158.164C-9.207,85.695,39.352,16.344,111.814,3.569
	C184.276-9.21,253.63,39.351,266.407,111.815C272.601,146.918,264.749,182.32,244.307,211.527z"/>
<path fill="#FFE01B" d="M62.787,225.987c-1.72-0.216-5.344-0.991-5.344-0.991c-10.48-18.655-16.807-38.903-20.251-53.28
	l-8.644,1.521c6.09,24.767,14.107,40.927,24.493,57.571c0,0,5.248,1.352,9.017,2.027c4,0.713,10.431,1.26,10.431,1.26l-4.154-7.408
	C68.334,226.687,64.503,226.207,62.787,225.987z"/>
<path fill="#FFE01B" d="M87.338,184.965c-3.751-14.199-13.129-20.442-23.833-18.668c-12.304,2.035-14.162,11.284-9.34,26.192
	c4.83,14.912,8.859,25.317,14.63,33.857c6.169,9.138,16.939,11.057,23.166,9.747c3.735-0.792,10.82-1.654,6.787-14.249
	C95.642,212.12,90.439,196.693,87.338,184.965z M84.73,228.059c-3.134,0.552-5.588-2.367-7.06-5.601
	c-1.476-3.229-8.548-21.362-12.848-36.237c-0.754-2.587-1.281-6.505,1.625-6.878c2.653-0.336,4.44,1.937,5.34,5.29
	c4.49,16.749,11.289,34.032,12.354,36.429C85.211,223.454,87.512,227.57,84.73,228.059z"/>
<path fill="#FFE01B" d="M188.774,202.609c-0.161-3.847-0.949-11.977-0.949-11.977s4.195-1.132,7.657-1.998
	c3.37-0.846,8.221-2.483,8.221-2.483l-1.007-11.579c0,0-5.448,1.348-8.184,1.961c-2.736,0.609-7.703,1.745-7.703,1.745
	s-0.672-4.531-1.036-8.088c-0.369-3.549-1.389-9.315-1.389-9.315l17.308-3.702l-1.873-12.844c0,0-12.164,2.123-17.897,3.284
	c-5.737,1.165-17.072,3.313-17.072,3.313s4.561,27.576,6.119,40.097c1.526,12.263,3.831,34.928,3.831,34.928s8.444-1.953,15.16-3.91
	c7.044-2.056,14.365-5.248,14.365-5.248l0.046-8.532l-14.854,4.424C189.517,212.683,188.937,206.457,188.774,202.609z"/>
<path fill="#FFE01B" d="M236.807,180.442c0.149-4.286-1.538-7.992-7.205-7.163l-0.037-0.216c8.208-3.255,7.641-16.716,6.666-23.013
	c-1.895-12.197-9.768-10.68-17.557-9.432l-16.219,2.86c0,0,2.898,20.878,3.968,38.318c1.041,16.873-0.033,34.244-0.033,34.244
	l12.192-4.859c0,0,0.68-6.355,1.174-10.937c0.493-4.572,0.364-17.764,0.364-17.764l2.62-0.46c1.758-0.312,3.118,0.493,3.134,3.839
	c0.029,5.29-0.39,9.497-0.39,9.497c-0.231,2.372-0.928,7.919,0.411,12.591l9.655-5.319c-0.452-3.278-0.336-4.846-0.059-8.387
	L236.807,180.442z M220.054,171.898c0,0-0.501-6.501-0.667-9.697c-0.175-3.2-0.659-9.576-0.659-9.576
	c6.488-1.276,6.413,1.97,7.081,7.923C226.616,167.847,224.44,171.123,220.054,171.898z"/>
<path fill="#FFE01B" d="M249.431,147.981c-0.175,3.172-1.17,12.74-1.17,12.74l-0.198,0.037c0,0-1.174-8.577-1.717-11.969
	c-0.667-4.146-2.487-13.356-2.487-13.356l-9.659,2.06c0,0,3.669,12.922,4.975,18.76c1.812,8.079,4.038,22.415,4.038,22.415
	s-0.718,6.405-1.041,9.49c-0.323,3.08-1.608,11.392-1.608,11.392l6.774-4.809c0,0,1.243-6.09,1.721-8.577
	c0.439-2.289,1.612-10.622,1.612-10.622s3.03-13.585,3.769-19.654c0.663-5.435,1.961-23.344,1.961-23.344l-6.601,1.422
	C249.799,133.965,249.604,144.81,249.431,147.981z"/>
<path fill="#FFFFFF" d="M140.382,72.742c0,0-1.72-10.455-3.047-16.28c-0.999-4.395-3.793-18.025-3.793-18.025l0.099-0.017
	c0,0,6.202,13.569,8.142,17.859c3.063,6.774,6.799,15.596,6.799,15.596l13.553-1.787c0,0-3.338-13.801-5.12-19.771
	c-1.787-5.966-5.887-19.203-5.887-19.203l-7.089,0.472l3.208,12.703l3.172,12.532l-0.096,0.017c0,0-4.602-9.191-6.069-12.449
	c-1.472-3.267-6.421-12.483-6.421-12.483s-3.984,0.361-6.173,0.659c-1.766,0.241-6.936,1.062-6.936,1.062l7.164,40.615
	L140.382,72.742z"/>
<path fill="#FFFFFF" d="M164.729,70.146c0,0,6.339-0.651,9.938-0.8c3.595-0.153,10.48-0.647,10.48-0.647l-1.642-6.861
	c0,0-2.927-0.013-4.739-0.025c-1.815-0.008-5.865,0.435-5.865,0.435s-0.884-3.549-1.708-6.248c-0.821-2.699-2.131-7.201-2.131-7.201
	s2.984-0.178,4.613-0.215c1.634-0.033,4.743,0.029,4.743,0.029l-1.837-5.534c0,0-2.512-0.178-4.439-0.253s-5.356-0.091-5.356-0.091
	s-0.515-1.812-0.991-3.184c-0.477-1.368-1.293-3.905-1.293-3.905s3.101-0.042,4.643-0.042c1.468,0,4.606,0.22,4.606,0.22
	l-1.745-4.515c0,0-4.863-0.539-9.129-0.502c-3.868,0.038-9.402,0.411-9.402,0.411s4.116,12.284,5.978,19.273
	C161.318,57.481,164.729,70.146,164.729,70.146z"/>
<path fill="#FFFFFF" d="M191.511,68.961c0,0,2.421-0.261,4.834-0.253c2.417,0.004,5.137,0.303,5.137,0.303s-2.251-8.47-3.636-13.312
	c-1.394-4.846-4.548-14.966-4.548-14.966l0.091-0.017c0,0,5.137,8.661,7.524,13.834c2.649,5.737,6.708,14.584,6.708,14.584
	s2.674,0.042,4.502,0.149c1.833,0.112,4.217,0.464,4.217,0.464s-2.856-9.995-4.934-16.271c-2.081-6.277-7.031-17.885-7.031-17.885
	l-2.931-0.667l-3.246-0.738c0,0,4.158,9.34,5.248,12.25c1.091,2.918,3.18,9.688,3.18,9.688l-0.091,0.017
	c0,0-2.517-5.041-4.465-8.685c-1.944-3.644-7.533-13.921-7.533-13.921s-2.301-0.514-4.236-0.809
	c-1.937-0.294-4.278-0.526-4.278-0.526s2.358,7.939,3.478,11.355c1.058,3.229,3.441,11.629,3.441,11.629l-0.1,0.017
	c0,0-3.163-6.521-4.871-10.083c-1.717-3.557-6.542-13.142-6.542-13.142s-2.251-0.294-4.341-0.444
	c-2.098-0.149-4.291-0.112-4.291-0.112s7.388,13.548,9.801,18.436C185.015,54.746,191.511,68.961,191.511,68.961z"/>
<polygon fill="#FFFFFF" points="145.825,81.062 134.23,82.936 150.498,115.898 154.843,138.562 167.109,136.398 163.101,113.676
	165.928,78.898 154.42,80.063 154.585,101.915 154.481,101.932 "/>
<path fill="#FFFFFF" d="M176.728,76.647c-5.601,0.883-10.65,5.713-9.149,13.071c1.5,7.359,4.423,22.648,6.073,32.005
	c1.178,6.683,7.665,14.153,17.88,12.01c6.228-1.314,11.675-6.111,10.054-15.302c-1.621-9.187-4.121-20.546-5.829-28.17
	C193.758,81.398,186.113,75.167,176.728,76.647z M189.02,124.355c-1.774,0.315-3.151-1.252-3.582-3.677
	c-1.455-8.271-4.395-23-6.5-32.121c-0.478-2.077-0.1-3.238,1.679-3.553c1.774-0.311,3.171,0.825,3.797,3.466
	c3.035,12.814,6.198,28.8,6.745,31.889C191.511,122.366,190.794,124.041,189.02,124.355z"/>
<path fill="#FFFFFF" d="M216.277,107.487l2.69,13.312c0.282,1.579,1.024,4.813,2.243,6.836l8.229-1.189
	c-1.023-1.891-2.048-5.763-2.329-7.346l-1.567-9.888c-1.02-5.75-4.029-10.327-8.109-9.722l-0.021-0.112
	c4.424-1.654,3.769-7.052,3.25-9.543c-2.061-9.717-6.749-12.852-12.913-13.146l-13.407,0.137c0,0,5.368,19.547,6.923,27.104
	c1.555,7.566,4.867,26.105,4.867,26.105l9.515-1.679c0,0-0.854-6.306-1.8-10.705c-0.945-4.402-2.848-13.714-2.848-13.714
	C212.786,103.594,215.605,104.162,216.277,107.487z M209.143,96.339c0,0-0.547-2.915-1.14-5.485
	c-0.589-2.562-2.023-7.098-2.023-7.098c3.499-0.651,5.671,2.239,6.505,7.604C213.151,95.634,212.152,95.809,209.143,96.339z"/>
<path fill="#FFFFFF" d="M230.538,126.333l6.937-1.223c0,0-1.12-6.865-1.857-10.522c-0.738-3.661-2.629-13.838-2.629-13.838
	l0.104-0.017c0,0,3.997,10.746,4.896,13.606c0.896,2.865,3.342,10.007,3.342,10.007l5.808-0.597c0,0-3.105-9.149-4.564-13.664
	c-1.521-4.73-4.561-12.205-4.561-12.205s-0.145-5.319-0.443-8.358c-0.294-3.043-1.239-10.463-1.239-10.463l-5.56-0.742
	c0,0,0.746,7.864,0.949,10.256c0.203,2.388,0.452,8.789,0.452,8.789l-0.104,0.017c0,0-1.642-5.643-2.496-8.772
	c-0.854-3.138-3.117-10.82-3.117-10.82l-7.607-0.643c0,0,5.128,16.5,6.753,24.132C227.234,108.913,230.538,126.333,230.538,126.333z
	"/>
<path fill="#008357" d="M26.54,151.182c-0.07-0.417-1.428-8.488-1.428-8.488s-0.319-2.637-0.524-4.352
	c-0.626,1.155-1.401,2.57-1.445,2.573c0.002,0.021,0.761,9.892,0.842,10.948C24.687,151.675,25.982,151.332,26.54,151.182z"/>
<path fill="#008457" d="M23.652,152.492c0.722-0.19,1.957-0.522,3.59-0.957c-0.344-2.086-1.14-6.887-1.5-8.947
	c-0.324-1.832-0.585-4.452-0.713-5.915c-0.924,1.812-1.836,3.466-2.268,4.229C22.852,144.707,23.159,148.558,23.652,152.492z
	 M24.587,138.342c0.205,1.715,0.524,4.352,0.524,4.352s1.358,8.071,1.428,8.488c-0.558,0.149-1.853,0.493-2.556,0.682
	c-0.081-1.057-0.84-10.928-0.842-10.948C23.186,140.913,23.961,139.498,24.587,138.342z"/>
<path fill="#EF3E42" d="M91.191,69.633c-8.853,4.4-15.424,10.468-18.819,13.994c3.866,1.855,8.625,5.074,10.866,6.654
	c8.468-9.303,15.228-14.533,20.063-15.468c4.56-0.883,10.907,2.796,14.839,5.491c-0.276-1.949-2.436-17.211-2.575-18.189
	C106.506,63.597,98.291,66.104,91.191,69.633z"/>
<path fill="#EF3E42" d="M91.094,69.16c-10.281,5.107-17.491,12.503-19.448,14.576c4.175,1.886,9.846,5.816,11.782,7.193
	c6.123-6.774,14.141-14.481,20.09-15.638c4.739-0.916,11.662,3.375,15.41,6.048c-0.924-6.251-1.866-13.042-2.815-19.862
	C112.556,62.042,101.798,63.841,91.094,69.16z M103.301,74.813c-4.836,0.935-11.596,6.165-20.063,15.468
	c-2.241-1.58-7-4.799-10.866-6.654c3.396-3.526,9.966-9.593,18.819-13.994c7.1-3.528,15.314-6.036,24.375-7.519
	c0.139,0.979,2.299,16.241,2.575,18.189C114.208,77.609,107.861,73.93,103.301,74.813z"/>
<path fill="#008357" d="M77.855,138.776c-0.139-0.899-2.761-17.828-2.821-18.211c-0.29-0.224-3.864-2.958-5.226-4
	c0.193,1.552,2.083,16.875,2.083,16.875s0.796,5.474,0.929,6.378C73.628,139.649,77.123,138.927,77.855,138.776z"/>
<path fill="#008457" d="M78.558,139.16l-2.927-18.892c-2.77-1.916-4.967-3.69-6.352-4.863c0.46,3.751,1.725,14.045,2.227,18.075
	c0.22,1.725,0.605,4.298,1.011,6.927C74.375,140.013,76.402,139.594,78.558,139.16z M69.808,116.564
	c1.362,1.042,4.936,3.776,5.226,4c0.06,0.383,2.682,17.312,2.821,18.211c-0.732,0.151-4.227,0.873-5.035,1.041
	c-0.133-0.904-0.929-6.378-0.929-6.378S70.001,118.116,69.808,116.564z"/>
<path fill="#FFE01B" d="M70.283,63.959c19.818-14.008,37.434-17.396,43.026-18.156c-0.128-0.833-1.142-7.338-1.279-8.217
	C91.177,41.718,53.837,54.58,34.012,94.571c-4.14,8.35-6.762,16.334-8.52,24.298c1.806-3.688,4.057-8.15,5.565-10.604
	c3.592-5.831,7.021-11.108,9.479-11.62l-0.121-0.036c0,0,0.989,0.288,1.536,0.448C43.811,93.141,52.384,76.614,70.283,63.959z"/>
<path fill="#FFDF1B" d="M33.681,94.329c-5.075,10.244-8.196,19.758-9.747,29.169c1.874-3.934,5.555-11.521,7.686-14.982
	c3.341-5.423,6.861-10.912,9.141-11.388c0.29-0.058,0.85,0.141,1.583,0.514c1.716-3.689,10.215-20.455,28.361-33.281
	c20.244-14.315,38.236-17.503,43.314-18.146c-0.788-5.845-1.451-9.266-1.451-9.266C93.416,40.671,54.268,52.797,33.681,94.329z
	 M40.417,96.608l0.121,0.036c-2.458,0.512-5.887,5.789-9.479,11.62c-1.509,2.454-3.76,6.917-5.565,10.604
	c1.758-7.964,4.38-15.948,8.52-24.298C53.837,54.58,91.177,41.718,112.03,37.586c0.137,0.879,1.15,7.383,1.279,8.217
	c-5.592,0.761-23.208,4.148-43.026,18.156c-17.899,12.654-26.472,29.181-28.33,33.097C41.406,96.896,40.417,96.608,40.417,96.608z"
	/>
<path fill="#F4793E" d="M90.022,67.128c10.459-5.196,20.753-7.29,25.11-8.007c-0.116-0.85-1.337-9.867-1.432-10.573
	c-5.42,0.731-22.518,4.009-41.909,17.716C54.925,78.187,46.785,93.487,44.476,98.412c0.636,0.429,4.817,3.256,5.524,3.735
	c0.34-0.51,4.856-7.267,4.964-7.425c1.932-2.869,7.813-11.6,12.601-12.574c0,0,1.474,0.209,1.983,0.284
	C70.753,81.125,78.711,72.748,90.022,67.128z"/>
<path fill="#F4793E" d="M71.626,65.827C53.571,78.591,45.467,95.265,43.945,98.569c1.903,1.145,4.121,2.691,6.322,4.27
	c1.123-1.687,3.793-5.7,5.136-7.69c1.729-2.562,7.715-11.571,12.392-12.52c0.498-0.104,1.215,0.025,2.069,0.315
	c1.136-1.24,9.112-9.713,20.513-15.376c10.899-5.418,21.819-7.475,25.45-8.051c-0.584-4.262-1.094-8.084-1.567-11.566
	C109.397,48.556,91.662,51.661,71.626,65.827z M67.565,82.148c-4.789,0.974-10.669,9.705-12.601,12.574
	c-0.108,0.158-4.625,6.915-4.964,7.425c-0.707-0.479-4.888-3.306-5.524-3.735c2.309-4.925,10.449-20.225,27.316-32.148
	c19.391-13.708,36.488-16.985,41.909-17.716c0.095,0.707,1.316,9.724,1.432,10.573c-4.357,0.717-14.651,2.811-25.11,8.007
	c-11.312,5.62-19.269,13.996-20.474,15.304C69.039,82.358,67.565,82.148,67.565,82.148z"/>
<path fill="#008357" d="M86.239,137.088c-0.141-0.901-1.725-10.938-1.725-10.938s-4.547-2.543-5.974-3.339
	c0.317,1.793,2.537,14.375,2.695,15.278C82.017,137.932,85.503,137.236,86.239,137.088z"/>
<path fill="#008457" d="M86.944,137.476l-2.081-11.802c-2.475-1.181-4.792-2.516-6.882-3.847l2.972,16.848
	C82.881,138.285,84.888,137.882,86.944,137.476z M84.515,126.151c0,0,1.584,10.036,1.725,10.938
	c-0.736,0.147-4.222,0.844-5.003,1.001c-0.158-0.903-2.378-13.485-2.695-15.278C79.967,123.607,84.515,126.151,84.515,126.151z"/>
<path fill="#008357" d="M121.594,101.909c-0.864,0.151-8.542,1.507-9.404,1.658c0.162,0.925,2.209,12.528,2.209,12.528l-4.013,0.709
	l-2.836-17.213c0,0-1.816-0.964-2.377-1.262c-0.425,0.541-1.973,2.519-1.973,2.519l2.501,14.798l-10.509,1.946l-0.085-0.512
	l-1.242-8.443c0,0-2.586-1.706-3.213-2.118c-0.493,0.638-3.032,3.924-3.032,3.924l1.167,6.461c0,0-7.823,1.463-9.875,1.849
	c5.367,3.565,10.449,5.98,15.057,6.923c16.147,3.312,27.896,0.346,31.604-0.825C125.427,124.003,121.758,102.858,121.594,101.909z"
	/>
<path fill="#008457" d="M111.727,103.134l2.206,12.533l-3.005,0.53l-3.01-17.072l-2.757-1.463l-2.342,3.254l2.421,14.303
	l-9.506,1.762l-1.463-8.789l-3.606-2.375l-3.42,4.697l1.078,5.961l-10.717,2.007c4.589,3.184,10.439,6.459,16.384,7.678
	c16.86,3.453,29.044,0.099,32.291-0.962c-1.26-7.176-2.802-15.986-4.141-23.9L111.727,103.134z M93.969,125.676
	c-4.608-0.943-9.69-3.358-15.057-6.923c2.052-0.386,9.875-1.849,9.875-1.849l-1.167-6.461c0,0,2.539-3.286,3.032-3.924
	c0.626,0.412,3.213,2.118,3.213,2.118l1.242,8.443l0.085,0.512l10.509-1.946l-2.501-14.798c0,0,1.548-1.978,1.973-2.519
	c0.562,0.298,2.377,1.262,2.377,1.262l2.836,17.213l4.013-0.709c0,0-2.048-11.604-2.209-12.528c0.862-0.151,8.54-1.507,9.404-1.658
	c0.164,0.95,3.833,22.095,3.98,22.942C121.865,126.022,110.117,128.988,93.969,125.676z"/>
<path fill="#008357" d="M121.018,98.479c-0.22-1.331-1.428-8.629-1.428-8.629s-0.661-4.258-0.661-4.871
	c0-0.046,0.004-0.068,0.01-0.071c-2.11-1.73-9.369-7.29-14.885-6.737c-5.937,0.589-17.344,13.248-23.063,19.593
	c-2.585,2.86-6.335,7.618-11.083,14.033c0.893,0.75,4.776,4.017,4.776,4.218c0,0.002-0.004,0.002-0.006,0.004
	c0.033-0.006,9.289-1.923,10.151-2.102c-0.121-0.79-0.637-4.231-0.637-4.231l5.765-8.088l0.411,0.269l6.942,4.755
	c0,0,1.02,6.059,1.167,6.94c0.645-0.114,2.125-0.377,2.736-0.485c-0.114-0.906-1.664-13.262-1.664-13.262l3.656-4.536l-1.934-10.978
	l3.507-0.622l0.089,0.502l1.7,10.627l4.699,3.032c0,0,0.39,1.621,0.543,2.262C112.623,99.96,120.164,98.629,121.018,98.479z"/>
<path fill="#008457" d="M119.401,84.503c-2.272-1.857-9.602-7.429-15.273-6.861C97.905,78.264,86.152,91.393,80.734,97.4
	c-3.449,3.831-8.308,10.265-11.4,14.456c0.999,0.92,2.956,2.666,5.551,4.647l10.642-2.202l-0.792-4.34l5.477-7.686l6.72,4.415
	l1.256,7.446l3.719-0.659l-1.829-13.37l3.756-4.933l-1.845-10.476l2.504-0.444l1.936,10.974l4.465,2.711l0.655,2.728l10.174-1.791
	c-0.56-3.329-1.074-6.438-1.505-9.125C119.96,88.164,119.691,86.398,119.401,84.503z M106.566,94.81l-1.7-10.627l-0.089-0.502
	l-3.507,0.622l1.934,10.978l-3.656,4.536c0,0,1.55,12.356,1.664,13.262c-0.611,0.108-2.091,0.371-2.736,0.485
	c-0.147-0.881-1.167-6.94-1.167-6.94l-6.942-4.755l-0.411-0.269l-5.765,8.088c0,0,0.516,3.441,0.637,4.231
	c-0.862,0.178-10.118,2.096-10.151,2.102c0.002-0.002,0.006-0.002,0.006-0.004c0-0.201-3.883-3.468-4.776-4.218
	c4.749-6.416,8.499-11.173,11.083-14.033c5.719-6.345,17.125-19.004,23.063-19.593c5.516-0.553,12.775,5.006,14.885,6.737
	c-0.006,0.002-0.01,0.025-0.01,0.071c0,0.613,0.661,4.871,0.661,4.871s1.208,7.298,1.428,8.629
	c-0.854,0.151-8.395,1.482-9.209,1.625c-0.153-0.641-0.543-2.262-0.543-2.262L106.566,94.81z"/>
<path fill="#008357" d="M89.645,136.419c0.979-0.187,35.784-6.815,36.737-6.998c-0.064-0.369-0.108-0.609-0.176-0.995
	c-3.829,0.982-19.147,4.465-33.211,0.875l0.016,0.006c0,0-3.688-1.242-4.915-1.656C88.333,128.993,89.496,135.582,89.645,136.419z"
	/>
<path fill="#008457" d="M93.25,128.788c-1.936-0.494-3.835-1.153-5.68-1.907L89.357,137c15.783-3.096,33.348-6.375,37.738-7.192
	c-0.116-0.651-0.236-1.327-0.356-2.019C123.115,128.754,107.349,132.39,93.25,128.788z M92.995,129.301
	c14.064,3.59,29.382,0.108,33.211-0.875c0.068,0.386,0.112,0.626,0.176,0.995c-0.954,0.182-35.759,6.811-36.737,6.998
	c-0.149-0.837-1.312-7.427-1.548-8.768c1.227,0.415,4.915,1.656,4.915,1.656L92.995,129.301z"/>
<path fill="#008357" d="M32.514,157.844c-0.135-0.738-0.72-3.929-0.867-4.725c-0.906,0.227-7.12,1.765-7.278,1.802
	c0.106,0.68,0.581,3.698,0.703,4.469C25.937,159.212,31.705,158.014,32.514,157.844z"/>
<path fill="#008457" d="M23.917,154.519c0.253,1.808,0.535,3.623,0.862,5.464c0,0,3.288-0.688,8.449-1.758
	c-0.187-1.02-0.593-3.229-1.049-5.746C28.225,153.45,25.252,154.187,23.917,154.519z M31.647,153.12
	c0.147,0.796,0.732,3.986,0.867,4.725c-0.809,0.17-6.577,1.368-7.442,1.546c-0.122-0.771-0.597-3.789-0.703-4.469
	C24.527,154.884,30.741,153.346,31.647,153.12z"/>
<path fill="#008357" d="M80.862,92.936c-6.496-4.892-11.647-7.877-13.156-7.581c-3.049,0.593-7.335,6.716-9.381,9.639
	c0,0-5.896,8.559-6.042,8.772c0.46,0.333,1.254,0.906,1.256,0.908c0,0,10.99,7.713,11.734,8.236
	c0.583-0.761,13.327-17.342,13.327-17.342S80.321,93.565,80.862,92.936z"/>
<path fill="#008457" d="M58.032,94.685c-1.509,2.16-5.174,7.508-6.331,9.187c0.605,0.432,1.165,0.842,1.663,1.198
	c3.516,2.529,12.139,8.52,12.139,8.52s8.357-11.483,13.61-17.71c0.8-0.954,1.683-1.978,2.624-3.051
	c-2.728-2.069-11.45-8.49-14.004-7.993C64.363,85.494,59.894,92.032,58.032,94.685z M53.538,104.674
	c-0.002-0.002-0.796-0.574-1.256-0.908c0.147-0.213,6.042-8.772,6.042-8.772c2.046-2.922,6.333-9.046,9.381-9.639
	c1.509-0.296,6.66,2.688,13.156,7.581c-0.541,0.63-2.263,2.632-2.263,2.632s-12.744,16.581-13.327,17.342
	C64.528,112.387,53.538,104.674,53.538,104.674z"/>
<path fill="#008357" d="M71.207,149.917c-0.116-0.757-0.771-5.045-0.901-5.899c-1.014,0.238-35.278,8.287-36.173,8.499
	c0.131,0.723,0.736,4.042,0.877,4.813C35.99,157.131,70.291,150.106,71.207,149.917z"/>
<path fill="#008457" d="M33.664,152.115c0.456,2.524,0.866,4.755,1.057,5.804c9.581-1.99,24.451-5.058,37.187-7.615
	c-0.178-1.194-0.584-3.868-1.053-6.924C59.537,145.833,43.908,149.607,33.664,152.115z M70.306,144.018
	c0.13,0.854,0.786,5.143,0.901,5.899c-0.916,0.188-35.217,7.214-36.198,7.412c-0.141-0.771-0.746-4.09-0.877-4.813
	C35.028,152.305,69.292,144.256,70.306,144.018z"/>
<path fill="#008357" d="M36.183,148.653c-0.129-0.842-1.553-10.107-1.553-10.107c0-0.002-0.949-8.979-0.949-8.979
	s-1.924-1.781-3.084-2.856c0.438,3.878,1.739,15.432,1.739,15.432s1.063,6.254,1.223,7.193
	C34.211,149.165,35.84,148.742,36.183,148.653z"/>
<path fill="#008457" d="M36.885,149.009c-0.439-2.678-1.293-7.976-1.625-10.551l-1.144-9.311c-1.898-1.472-3.329-2.956-4.054-3.756
	c0.207,2.251,1.032,11.052,1.898,16.811c0.261,1.749,0.788,4.775,1.318,7.748C34.418,149.652,35.621,149.337,36.885,149.009z
	 M30.596,126.71c1.161,1.076,3.084,2.856,3.084,2.856s0.949,8.977,0.949,8.979c0,0,1.424,9.266,1.553,10.107
	c-0.342,0.089-1.972,0.512-2.625,0.683c-0.16-0.939-1.223-7.193-1.223-7.193S31.034,130.589,30.596,126.71z"/>
<path fill="#008357" d="M69.752,140.471c-0.205-1.254-1.322-8.083-1.322-8.083s-1.812-13.709-2.087-15.793
	c-1.331,1.688-3.955,4.998-4.067,4.969c0.004,0.033,1.542,11.046,1.542,11.046s1.331,8.78,1.348,8.886
	C65.959,141.317,69.041,140.629,69.752,140.471z"/>
<path fill="#008457" d="M66.817,115.314c-0.273,0.377-3.043,4.087-4.925,6.285c0.294,2.131,1.181,8.565,1.55,11.069
	c0.336,2.271,1.082,7.142,1.43,9.426c1.944-0.443,3.814-0.866,5.584-1.247c-0.489-3.131-1.003-6.334-1.401-8.565
	C68.247,127.685,67.231,119,66.817,115.314z M62.275,121.563c0.112,0.029,2.736-3.281,4.067-4.969
	c0.276,2.083,2.087,15.793,2.087,15.793s1.117,6.83,1.322,8.083c-0.711,0.158-3.793,0.846-4.587,1.024
	c-0.017-0.105-1.348-8.886-1.348-8.886S62.279,121.597,62.275,121.563z"/>
<path fill="#008357" d="M85.97,146.997c0,0,41.17-7.639,42.147-7.818c-0.141-0.796-0.931-5.213-1.074-6.013
	c-0.002,0-52.723,10.022-53.662,10.2c0.135,0.813,0.924,5.643,0.97,5.918C76.659,148.83,85.968,146.997,85.97,146.997z"/>
<path fill="#008457" d="M86.19,147.48c19.775-3.814,42.638-7.91,42.638-7.91s-0.485-2.732-1.248-7.01
	c-6.198,1.115-38.074,6.86-54.661,10.376c0.485,3.01,0.941,5.737,1.14,6.932C78.549,148.968,82.711,148.147,86.19,147.48z
	 M127.043,133.165c0.143,0.8,0.933,5.217,1.074,6.013c-0.977,0.18-42.147,7.818-42.147,7.818c-0.002,0-9.312,1.833-11.619,2.286
	c-0.045-0.275-0.835-5.105-0.97-5.918C74.321,143.187,127.042,133.165,127.043,133.165z"/>
<path fill="#008357" d="M41.922,147.177c-0.151-0.858-2.441-13.865-2.522-14.323c-0.383-0.197-2.066-1.062-3.099-1.59
	c0.18,1.472,0.852,6.95,0.854,6.956c0,0,1.351,8.802,1.505,9.79C38.701,148,41.226,147.355,41.922,147.177z"/>
<path fill="#008457" d="M42.631,147.534l-2.649-15.028c-1.497-0.547-2.906-1.314-4.179-2.147l0.974,7.906
	c0.319,2.512,1.144,7.652,1.592,10.364C39.742,148.272,41.167,147.907,42.631,147.534z M36.301,131.265
	c1.032,0.528,2.715,1.393,3.099,1.59c0.081,0.458,2.372,13.464,2.522,14.323c-0.696,0.178-3.221,0.823-3.262,0.833
	c-0.154-0.988-1.505-9.79-1.505-9.79C37.152,138.214,36.481,132.736,36.301,131.265z"/>
<path fill="#008357" d="M62.259,142.171c-0.193-1.277-1.37-9.081-1.37-9.083c0,0-1.117-7.896-1.198-8.476
	c-1.024,0.991-3.779,3.661-4.11,3.98c0.045,0.315,1.057,7.263,1.057,7.263s1.117,7.15,1.152,7.374
	C58.58,143.042,61.573,142.335,62.259,142.171z"/>
<path fill="#008457" d="M62.958,142.542c-0.344-2.135-1.086-6.807-1.439-9.535c-0.373-2.906-1.078-7.686-1.343-9.469
	c-1.538,1.683-3.238,3.366-5.012,4.854c0.236,1.633,0.75,5.19,1.094,7.521c0.344,2.296,0.949,6.093,1.244,7.921
	C59.351,143.388,61.175,142.953,62.958,142.542z M55.58,128.593c0.332-0.319,3.086-2.989,4.11-3.98
	c0.081,0.58,1.198,8.476,1.198,8.476c0,0.002,1.177,7.806,1.37,9.083c-0.686,0.164-3.679,0.87-4.469,1.059
	c-0.035-0.224-1.152-7.374-1.152-7.374S55.625,128.908,55.58,128.593z"/>
<path fill="#008357" d="M27.885,123.614l0.168-0.527l2.496-0.379l0.185,0.211c0.077,0.089,7.866,8.895,15.103,7.508
	c5.935-1.143,13.196-9.411,17.207-14.524c-0.8-0.589-10.346-7.604-10.346-7.604l-1.731-1.287c-3.097-2.307-9.545-7.112-10.555-7.112
	c-0.873,0.187-4.405,4.506-9.22,13.193c0,0-7.413,14.498-7.448,14.498c0,0.002-0.311,5.188-0.483,8.032
	c0.779-1.521,1.673-3.267,1.673-3.267L27.885,123.614z"/>
<path fill="#008457" d="M28.557,123.526l1.911-0.294c0.083,0.096,8.092,9.117,15.587,7.678c6.231-1.198,13.801-9.908,17.847-15.12
	c-2.259-1.65-7.943-5.829-10.779-7.922c-3.859-2.848-11.533-8.735-12.69-8.482c-1.21,0.253-4.991,5.182-9.56,13.44
	c-2.865,5.166-6.422,12.441-7.512,14.688c-0.41,3.486-0.609,6.973-0.626,10.488c0.796-1.438,1.965-3.618,2.782-5.455
	C26.877,129.509,28.536,123.584,28.557,123.526z M23.743,127.591c0.035,0,7.448-14.498,7.448-14.498
	c4.815-8.687,8.348-13.007,9.22-13.193c1.009,0,7.458,4.805,10.555,7.112l1.731,1.287c0,0,9.545,7.015,10.346,7.604
	c-4.011,5.113-11.272,13.382-17.207,14.524c-7.236,1.387-15.026-7.419-15.103-7.508l-0.185-0.211l-2.496,0.379l-0.168,0.527
	l-2.952,8.743c0,0-0.894,1.745-1.673,3.267C23.432,132.78,23.743,127.593,23.743,127.591z"/>
<path fill="#008357" d="M31.089,149.982c-0.141-0.821-1.271-7.463-1.271-7.463s-1.115-9.689-1.48-12.855
	c-0.694,1.916-1.603,4.426-1.603,4.426l-0.29,0.441l0.883,7.532c0,0,1.196,7.585,1.348,8.553
	C29.257,150.462,30.677,150.091,31.089,149.982z"/>
<path fill="#008457" d="M31.794,150.34c-0.539-3.026-1.074-6.123-1.347-7.914c-0.709-4.71-1.385-11.417-1.729-14.986
	c-0.626,1.999-1.526,4.672-2.322,6.417c-0.104,0.232-0.22,0.469-0.332,0.709c0.195,1.745,0.597,5.417,0.883,7.549
	c0.423,3.125,1.124,7.283,1.435,9.12C29.411,150.962,30.555,150.664,31.794,150.34z M26.446,134.531l0.29-0.441
	c0,0,0.908-2.51,1.603-4.426c0.365,3.166,1.48,12.855,1.48,12.855s1.129,6.642,1.271,7.463c-0.413,0.109-1.833,0.48-2.413,0.634
	c-0.151-0.968-1.348-8.553-1.348-8.553L26.446,134.531z"/>
<path fill="#008357" d="M47.859,145.672c-0.147-0.838-1.982-11.253-2.11-11.979c-0.663-0.015-2.375-0.054-3.228-0.073
	c0.156,1.039,1.774,11.933,1.919,12.916C45.181,146.35,47.225,145.832,47.859,145.672z"/>
<path fill="#008457" d="M48.572,146.033l-2.268-12.847c-1.443,0.249-2.869,0.187-4.245-0.095l2.085,14.061
	C45.595,146.784,47.071,146.411,48.572,146.033z M45.749,133.694c0.128,0.726,1.963,11.141,2.11,11.979
	c-0.634,0.159-2.678,0.678-3.418,0.864c-0.145-0.982-1.764-11.877-1.919-12.916C43.373,133.64,45.085,133.679,45.749,133.694z"/>
<path fill="#008357" d="M54.904,143.929c-0.128-0.819-1.866-12.041-2.061-13.301c-0.947,0.533-3.507,1.971-4.063,2.282
	c0.097,0.624,1.751,11.079,1.907,12.057C51.472,144.775,54.233,144.095,54.904,143.929z"/>
<path fill="#008457" d="M55.603,144.296l-2.239-14.485c-1.654,1.21-3.346,2.197-5.016,2.815l2.052,12.95
	C52.129,145.146,53.87,144.718,55.603,144.296z M52.844,130.628c0.195,1.26,1.932,12.482,2.061,13.301
	c-0.671,0.166-3.433,0.846-4.216,1.038c-0.155-0.979-1.81-11.433-1.907-12.057C49.336,132.599,51.896,131.161,52.844,130.628z"/>
<path d="M132.249,142.037l-9.291-53.102c-2.836-17.114-8.097-54.466-8.097-54.466c-36.465,6.667-66.907,26.508-83.295,60.577
	c-10.186,21.185-12.438,42.808-7.823,67.674c0,0,31.412-6.608,51.174-10.41C94.664,148.5,132.249,142.037,132.249,142.037z
	 M24.78,159.983c-0.328-1.841-0.609-3.656-0.862-5.464c1.335-0.332,4.307-1.069,8.262-2.04c0.456,2.517,0.862,4.727,1.049,5.746
	C28.067,159.295,24.78,159.983,24.78,159.983z M23.362,127.515c1.09-2.247,4.647-9.522,7.512-14.688
	c4.568-8.258,8.349-13.188,9.56-13.44c1.157-0.253,8.831,5.634,12.69,8.482c2.836,2.094,8.52,6.272,10.779,7.922
	c-4.046,5.211-11.616,13.921-17.847,15.12c-7.495,1.438-15.505-7.583-15.587-7.678l-1.911,0.294
	c-0.021,0.058-1.679,5.982-3.039,9.021c-0.817,1.837-1.986,4.017-2.782,5.455C22.752,134.488,22.952,131.001,23.362,127.515z
	 M48.348,132.626c1.67-0.618,3.362-1.604,5.016-2.815l2.239,14.485c-1.733,0.422-3.474,0.85-5.203,1.28L48.348,132.626z
	 M56.258,135.914c-0.344-2.33-0.858-5.887-1.094-7.521c1.774-1.488,3.474-3.171,5.012-4.854c0.265,1.783,0.97,6.563,1.343,9.469
	c0.353,2.728,1.095,7.4,1.439,9.535c-1.783,0.41-3.607,0.846-5.456,1.293C57.207,142.007,56.602,138.21,56.258,135.914z
	 M79.113,95.879c-5.253,6.227-13.61,17.71-13.61,17.71s-8.623-5.991-12.139-8.52c-0.498-0.356-1.057-0.767-1.663-1.198
	c1.157-1.679,4.822-7.027,6.331-9.187c1.861-2.653,6.331-9.191,9.701-9.85c2.554-0.498,11.276,5.924,14.004,7.993
	C80.796,93.901,79.913,94.925,79.113,95.879z M36.777,138.264l-0.974-7.906c1.272,0.833,2.682,1.601,4.179,2.147l2.649,15.028
	c-1.463,0.373-2.889,0.738-4.262,1.095C37.921,145.917,37.097,140.776,36.777,138.264z M42.059,133.091
	c1.376,0.282,2.802,0.344,4.245,0.095l2.268,12.847c-1.5,0.378-2.977,0.751-4.428,1.119L42.059,133.091z M26.948,142.116
	c-0.286-2.132-0.688-5.805-0.883-7.549c0.112-0.24,0.228-0.477,0.332-0.709c0.796-1.745,1.696-4.419,2.322-6.417
	c0.344,3.569,1.02,10.276,1.729,14.986c0.273,1.791,0.809,4.888,1.347,7.914c-1.239,0.323-2.383,0.622-3.412,0.896
	C28.071,149.399,27.371,145.241,26.948,142.116z M31.96,142.203c-0.866-5.759-1.691-14.56-1.898-16.811
	c0.725,0.8,2.156,2.284,4.054,3.756l1.144,9.311c0.332,2.575,1.186,7.873,1.625,10.551c-1.265,0.328-2.467,0.643-3.607,0.941
	C32.748,146.978,32.221,143.952,31.96,142.203z M64.873,142.094c-0.348-2.284-1.094-7.155-1.43-9.426
	c-0.369-2.504-1.256-8.938-1.55-11.069c1.882-2.197,4.651-5.907,4.925-6.285c0.415,3.686,1.43,12.371,2.239,16.968
	c0.398,2.23,0.912,5.434,1.401,8.565C68.687,141.228,66.817,141.651,64.873,142.094z M71.506,133.48
	c-0.502-4.03-1.766-14.324-2.227-18.075c1.385,1.173,3.582,2.947,6.352,4.863l2.927,18.892c-2.156,0.435-4.183,0.854-6.041,1.248
	C72.111,137.779,71.726,135.205,71.506,133.48z M77.981,121.827c2.089,1.331,4.407,2.666,6.882,3.847l2.081,11.802
	c-2.056,0.406-4.063,0.809-5.991,1.198L77.981,121.827z M25.028,136.672c0.128,1.463,0.39,4.083,0.713,5.915
	c0.36,2.061,1.156,6.861,1.5,8.947c-1.633,0.435-2.869,0.767-3.59,0.957c-0.493-3.934-0.8-7.785-0.891-11.591
	C23.192,140.138,24.104,138.484,25.028,136.672z M89.357,137L87.57,126.88c1.845,0.754,3.744,1.414,5.68,1.907
	c14.099,3.603,29.865-0.033,33.489-1c0.12,0.692,0.24,1.368,0.356,2.019C122.705,130.624,105.14,133.903,89.357,137z
	 M93.988,126.159c-5.945-1.219-11.794-4.494-16.384-7.678l10.717-2.007l-1.078-5.961l3.42-4.697l3.606,2.375l1.463,8.789
	l9.506-1.762l-2.421-14.303l2.342-3.254l2.757,1.463l3.01,17.072l3.005-0.53l-2.206-12.533l10.41-1.836
	c1.339,7.914,2.881,16.724,4.141,23.9C123.032,126.258,110.848,129.612,93.988,126.159z M111.549,100.667l-0.655-2.728l-4.465-2.711
	l-1.936-10.974l-2.504,0.444l1.845,10.476l-3.756,4.933l1.829,13.37l-3.719,0.659l-1.256-7.446l-6.72-4.415l-5.477,7.686l0.792,4.34
	l-10.642,2.202c-2.595-1.982-4.552-3.727-5.551-4.647c3.093-4.191,7.951-10.625,11.4-14.456
	c5.418-6.007,17.171-19.136,23.394-19.758c5.671-0.568,13.001,5.004,15.273,6.861c0.29,1.895,0.56,3.66,0.817,5.248
	c0.431,2.687,0.945,5.796,1.505,9.125L111.549,100.667z M103.519,75.292c-5.949,1.157-13.967,8.863-20.09,15.638
	c-1.936-1.376-7.607-5.307-11.782-7.193c1.957-2.073,9.167-9.469,19.448-14.576c10.704-5.319,21.462-7.118,25.019-7.682
	c0.949,6.82,1.891,13.61,2.815,19.862C115.181,78.666,108.257,74.375,103.519,75.292z M90.377,67.568
	C78.976,73.231,71,81.705,69.864,82.944c-0.854-0.29-1.571-0.418-2.069-0.315c-4.676,0.949-10.663,9.958-12.392,12.52
	c-1.343,1.99-4.013,6.003-5.136,7.69c-2.202-1.579-4.419-3.125-6.322-4.27c1.521-3.304,9.626-19.978,27.681-32.743
	c20.036-14.166,37.771-17.271,42.634-17.876c0.473,3.482,0.982,7.305,1.567,11.566C112.196,60.093,101.276,62.149,90.377,67.568z
	 M70.706,64.359C52.56,77.186,44.061,93.951,42.345,97.641c-0.733-0.373-1.293-0.572-1.583-0.514
	c-2.28,0.477-5.8,5.965-9.141,11.388c-2.131,3.461-5.813,11.048-7.686,14.982c1.55-9.411,4.672-18.925,9.747-29.169
	c20.587-41.532,59.735-53.658,78.888-57.381c0,0,0.663,3.42,1.451,9.266C108.941,46.856,90.949,50.044,70.706,64.359z
	 M34.721,157.918c-0.191-1.049-0.601-3.279-1.057-5.804c10.244-2.508,25.873-6.281,37.191-8.735
	c0.468,3.056,0.875,5.729,1.053,6.924C59.172,152.861,44.302,155.928,34.721,157.918z M72.919,142.936
	c16.587-3.516,48.463-9.261,54.661-10.376c0.763,4.277,1.248,7.01,1.248,7.01s-22.863,4.096-42.638,7.91
	c-3.479,0.667-7.641,1.488-12.13,2.388C73.86,148.673,73.404,145.946,72.919,142.936z"/>
<path fill="#FFE01B" d="M114.044,173.792l9.971-1.758l-2.375-13.494l-38.928,6.865l2.4,12.068l11.31-1.091
	c0,0,6.446,27.034,9.589,36.813c2.745,8.52,7.636,22.043,7.636,22.043s5.576-0.124,9.117-0.576c2.69-0.349,6.14-0.825,6.14-0.825
	s-5.091-18.083-7.69-28.231C118.617,195.466,114.044,173.792,114.044,173.792z"/>
<path fill="#FFE01B" d="M162.855,151.273l-40.171,7.085l2.375,13.494l9.166-1.616c0,0,5.327,30.197,7.699,39.989
	c2.251,9.29,4.568,21.416,4.568,21.416l15.898-2.802c0,0-1.824-14.021-3.047-21.687c-1.224-7.665-6.538-40.454-6.538-40.454
	l12.383-2.181L162.855,151.273z"/>
</svg>
