<svg id="Layer_1" data-name="Layer 1" xmlns="http://www.w3.org/2000/svg" viewBox="0 0 246.47 105.9"><defs><style>.cls-1{fill:#d31245;}.cls-2{fill:#005596;}.cls-3{fill:#fff;}</style></defs><title>logo-lotto</title><rect class="cls-1" x="0.05" y="39.56" width="246.42" height="66.34"/><rect class="cls-2" width="246.42" height="36.26"/><polyline class="cls-3" points="12.62 93.44 12.62 53.69 18.54 53.69 18.54 88.25 26.07 88.25 26.07 93.44 12.62 93.44"/><path class="cls-3" d="M62.6,59.67c0-5.19,4.08-6.7,7.71-6.7s7.76,1.51,7.76,6.7V87.59c0,5.2-4.08,6.7-7.76,6.7s-7.71-1.51-7.71-6.7Zm5.92,27.42c0,2,.62,2.46,1.84,2.46s1.79-.45,1.79-2.46V60.17c0-2-.61-2.46-1.79-2.46s-1.84.44-1.84,2.46V87.09"/><polyline class="cls-3" points="131.16 53.69 131.16 58.88 126.03 58.88 126.03 93.44 120.1 93.44 120.1 58.88 114.91 58.88 114.91 53.69 131.16 53.69"/><polyline class="cls-3" points="183.38 53.69 183.38 58.88 178.24 58.88 178.24 93.44 172.33 93.44 172.33 58.88 167.13 58.88 167.13 53.69 183.38 53.69"/><path class="cls-3" d="M220.24,59.6c0-5.19,4.08-6.7,7.71-6.7s7.76,1.51,7.76,6.7V87.52c0,5.2-4.08,6.7-7.76,6.7s-7.71-1.51-7.71-6.7ZM226.16,87c0,2,.62,2.46,1.84,2.46s1.79-.45,1.79-2.46V60.11c0-2-.62-2.46-1.79-2.46s-1.84.45-1.84,2.46V87"/><polyline class="cls-3" points="23.37 6.47 23.37 29.19 20.59 29.19 14.32 9.5 14.28 9.5 14.28 29.19 12.47 29.19 12.47 6.47 15.33 6.47 21.52 25.92 21.56 25.92 21.56 6.47 23.37 6.47"/><polyline class="cls-3" points="46.45 29.19 46.45 6.47 54.64 6.47 54.64 8.99 48.47 8.99 48.47 16.29 54.2 16.29 54.2 18.81 48.47 18.81 48.47 26.68 54.77 26.68 54.77 29.19 46.45 29.19"/><polyline class="cls-3" points="75.2 6.47 77.36 6.47 80.36 26.17 80.4 26.17 83.59 6.47 86.22 6.47 89.1 26.17 89.14 26.17 92.38 6.47 94.5 6.47 90.29 29.19 87.82 29.19 84.81 9.5 84.76 9.5 81.55 29.19 79.08 29.19 75.2 6.47"/><polyline class="cls-3" points="133.88 6.47 135.93 6.47 131.59 20.54 131.59 29.19 129.56 29.19 129.56 20.54 125.29 6.47 127.56 6.47 130.66 17.46 133.88 6.47"/><path class="cls-3" d="M157.24,20.89V13.43c0-4.53,1.63-7.42,5-7.42s5,2.89,5,7.42v7.46c0,6.29-1.63,8.78-5,8.78S157.24,27.18,157.24,20.89Zm7.93.12V13.33c0-4.75-2.29-4.91-2.93-4.91s-2.93.16-2.93,4.91V21c0,5,1,6.23,2.93,6.23S165.17,26,165.17,21"/><path class="cls-3" d="M192.14,18.75V29.19h-2V6.47h5.48c2.82,0,3.81,2.83,3.81,5.66,0,2.68-1,4.72-2.91,5.19v.06c1.82.41,2.49,1.29,2.59,5.85a49.53,49.53,0,0,0,.55,5.95h-2.12c-.57-1.57-.44-4.53-.62-7.55-.15-2.77-1.71-2.89-2.4-2.89Zm0-2.52h3c1.45,0,2.16-1.79,2.16-3.77,0-1.64-.57-3.46-2.13-3.46h-3.07v7.24"/><polyline class="cls-3" points="221.79 29.19 221.79 6.47 223.82 6.47 223.82 16.45 223.88 16.45 229.44 6.47 231.73 6.47 225.96 16.73 232.06 29.19 229.46 29.19 223.88 17.33 223.82 17.33 223.82 29.19 221.79 29.19"/></svg>