<svg id="Layer_2" data-name="Layer 2" xmlns="http://www.w3.org/2000/svg" viewBox="0 0 225.22 159.78"><defs><style>.cls-1{fill:#b8b8b8;}.cls-2{fill:#dcdcdc;}.cls-3{fill:#0a64af;}.cls-4{fill:#ffdf1b;}.cls-5{fill:#f3793e;}.cls-6{fill:#ee3d42;}</style></defs><title>brush</title><polygon class="cls-1" points="170.49 86.09 169.62 0.36 205.8 0 206.22 41.01 202.52 41.04 202.15 3.73 173.32 4.02 174.17 87.88 174.15 87.88 174.16 89.72 32.67 91.15 32.63 87.48 170.49 86.09"/><rect class="cls-2" x="187.84" y="14.43" width="32.51" height="145.19" transform="translate(-0.87 2.07) rotate(-0.58)"/><polygon class="cls-3" points="0.38 109.56 108.96 104.78 108.65 74.53 0 71.94 0.38 109.56"/><rect class="cls-4" x="181.15" y="111.03" width="45.35" height="42.61" transform="translate(71.34 336.06) rotate(-89.96)"/><rect class="cls-5" x="181.19" y="65.68" width="45.35" height="42.61" transform="translate(116.72 290.78) rotate(-89.96)"/><rect class="cls-6" x="181.22" y="20.33" width="45.35" height="42.61" transform="translate(162.1 245.5) rotate(-89.96)"/></svg>