<?xml version="1.0" encoding="utf-8"?>
<!-- Generator: Adobe Illustrator 19.2.0, SVG Export Plug-In . SVG Version: 6.00 Build 0)  -->
<svg version="1.1" id="Layer_1" xmlns="http://www.w3.org/2000/svg" xmlns:xlink="http://www.w3.org/1999/xlink" x="0px" y="0px"
	 viewBox="0 0 29.9 28.3" style="enable-background:new 0 0 29.9 28.3;" xml:space="preserve">
<style type="text/css">
	.st0{fill:#F9A727;}
	.st1{fill:#F8C426;}
	.st2{fill:#EDD7B8;}
	.st3{font-family:'Arial-Black';}
	.st4{font-size:20.1149px;}
</style>
<g>
	<g>
		<path class="st0" d="M14.1,0.1l-1.7,0.3l4,27.3l1.7-0.2c7.5-1.1,12.7-8.1,11.7-15.6C28.6,4.3,21.7-0.9,14.1,0.1z"/>
		<ellipse transform="matrix(0.9896 -0.1436 0.1436 0.9896 -1.8849 2.1258)" class="st1" cx="13.8" cy="14.1" rx="13.8" ry="13.8"/>
		<g>
			<path class="st2" d="M20.3,0.8C20.3,0.8,20.3,0.8,20.3,0.8c-0.3-0.1-0.7-0.2-1.1-0.3l-1.4,0.2c0.3,0.1,0.7,0.2,1,0.3L20.3,0.8z"
				/>
			<path class="st2" d="M21.5,1.4c0.1,0,0.1-0.1,0.2-0.1c-0.2-0.1-0.4-0.2-0.7-0.3l-1.5,0.2c0.3,0.1,0.5,0.2,0.8,0.3L21.5,1.4z"/>
			<path class="st2" d="M18.2,0.3c-0.7-0.1-1.4-0.2-2.1-0.2l-0.8,0.1c0.6,0,1.1,0.1,1.7,0.2L18.2,0.3z"/>
			<path class="st2" d="M22.6,2.1c0.1,0,0.1-0.1,0.2-0.1c-0.2-0.1-0.3-0.2-0.5-0.3l-1.6,0.2C21,2,21.2,2.1,21.4,2.2L22.6,2.1z"/>
			<path class="st2" d="M23.8,2.7c0,0,0.1,0,0.1-0.1c-0.2-0.1-0.3-0.2-0.5-0.3l-1.6,0.2c0.2,0.1,0.4,0.2,0.6,0.4L23.8,2.7z"/>
			<path class="st2" d="M24.8,3.3c-0.2-0.1-0.3-0.3-0.5-0.4l-1.6,0.2c0.2,0.1,0.3,0.3,0.5,0.4L24.8,3.3z"/>
			<path class="st2" d="M25.6,4c-0.1-0.1-0.3-0.3-0.4-0.4l-1.6,0.2C23.7,4,23.8,4.1,24,4.2L25.6,4z"/>
			<path class="st2" d="M26.3,4.7c-0.1-0.1-0.3-0.3-0.4-0.4l-1.7,0.2c0.1,0.1,0.3,0.3,0.4,0.4L26.3,4.7z"/>
			<path class="st2" d="M26.9,5.4c-0.1-0.1-0.2-0.3-0.3-0.4l-1.7,0.2c0.1,0.1,0.2,0.3,0.3,0.4L26.9,5.4z"/>
			<path class="st2" d="M27.4,6.1c-0.1-0.1-0.2-0.3-0.3-0.4l-1.7,0.2c0.1,0.1,0.2,0.3,0.3,0.4L27.4,6.1z"/>
			<path class="st2" d="M27.8,6.8c-0.1-0.1-0.2-0.3-0.3-0.4l-1.7,0.2C26,6.8,26.1,6.9,26.2,7L27.8,6.8z"/>
			<path class="st2" d="M29.2,17.6c0-0.2,0.1-0.3,0.1-0.5l-1.7,0.2c0,0.2-0.1,0.3-0.1,0.5L29.2,17.6z"/>
			<path class="st2" d="M28.9,18.4c0.1-0.2,0.1-0.3,0.2-0.5l-1.7,0.2c-0.1,0.2-0.1,0.3-0.2,0.5L28.9,18.4z"/>
			<path class="st2" d="M28.6,19.3c0.1-0.2,0.1-0.3,0.2-0.5L27.1,19c-0.1,0.2-0.1,0.3-0.2,0.5L28.6,19.3z"/>
			<path class="st2" d="M28.2,20.1c0.1-0.2,0.2-0.3,0.3-0.5l-1.7,0.2c-0.1,0.2-0.2,0.3-0.2,0.5L28.2,20.1z"/>
			<path class="st2" d="M27.7,21c0.1-0.2,0.2-0.3,0.3-0.5l-1.6,0.2c-0.1,0.2-0.2,0.3-0.3,0.5L27.7,21z"/>
			<path class="st2" d="M29.8,13.6c0-0.2,0-0.3,0-0.5l-1.7,0.2c0,0.2,0,0.3,0,0.5L29.8,13.6z"/>
			<path class="st2" d="M29.8,14.4c0-0.2,0-0.3,0-0.5l-1.7,0.2c0,0.2,0,0.3,0,0.5L29.8,14.4z"/>
			<path class="st2" d="M29.7,12.8c0-0.2,0-0.3,0-0.5L28,12.6c0,0.2,0,0.3,0,0.5L29.7,12.8z"/>
			<path class="st2" d="M28,12.3l1.7-0.2c0-0.1,0-0.2,0-0.2c0-0.1,0-0.1,0-0.2l-1.7,0.2c0,0.1,0,0.1,0,0.2
				C27.9,12.1,27.9,12.2,28,12.3z"/>
			<path class="st2" d="M29.5,11.3c0-0.2-0.1-0.3-0.1-0.4l-1.7,0.2c0,0.1,0.1,0.3,0.1,0.4L29.5,11.3z"/>
			<path class="st2" d="M29.4,10.5c0-0.1-0.1-0.3-0.1-0.4l-1.7,0.2c0,0.1,0.1,0.3,0.1,0.4L29.4,10.5z"/>
			<path class="st2" d="M29.2,9.8c0-0.1-0.1-0.3-0.1-0.4l-1.7,0.2c0.1,0.1,0.1,0.3,0.1,0.4L29.2,9.8z"/>
			<path class="st2" d="M28.9,9c-0.1-0.1-0.1-0.3-0.2-0.4L27,8.8c0.1,0.1,0.1,0.3,0.2,0.4L28.9,9z"/>
			<path class="st2" d="M28.6,8.3c-0.1-0.1-0.1-0.3-0.2-0.4l-1.7,0.2c0.1,0.1,0.1,0.3,0.2,0.4L28.6,8.3z"/>
			<path class="st2" d="M28.3,7.5c-0.1-0.1-0.2-0.3-0.2-0.4l-1.7,0.2c0.1,0.1,0.2,0.3,0.2,0.4L28.3,7.5z"/>
			<path class="st2" d="M29.7,15.2c0-0.2,0-0.3,0-0.5L28,15c0,0.2,0,0.3,0,0.5L29.7,15.2z"/>
			<path class="st2" d="M29.6,16c0-0.2,0-0.3,0.1-0.5L28,15.8c0,0.2,0,0.3-0.1,0.5L29.6,16z"/>
			<path class="st2" d="M29.4,16.8c0-0.2,0.1-0.3,0.1-0.5l-1.7,0.2c0,0.2-0.1,0.3-0.1,0.5L29.4,16.8z"/>
			<path class="st2" d="M27.1,21.8c0.1-0.2,0.2-0.3,0.4-0.5l-1.6,0.2c-0.1,0.2-0.2,0.3-0.4,0.5L27.1,21.8z"/>
			<path class="st2" d="M26.4,22.7c0.1-0.2,0.3-0.3,0.4-0.5c0,0-0.1,0-0.1,0l-1.4,0.2c-0.1,0.2-0.3,0.4-0.4,0.5L26.4,22.7z"/>
			<path class="st2" d="M25.5,23.7c0.1-0.1,0.3-0.3,0.4-0.4c0-0.1-0.1-0.1-0.2-0.1l-1.2,0.2c-0.2,0.2-0.3,0.4-0.5,0.5L25.5,23.7z"/>
			<path class="st2" d="M24.4,24.6c0.2-0.1,0.4-0.3,0.6-0.4c0,0-0.1-0.1-0.2-0.1l-1.2,0.2c-0.2,0.2-0.4,0.4-0.7,0.6L24.4,24.6z"/>
			<path class="st2" d="M22.8,25.6c0.3-0.2,0.7-0.4,1-0.6c0,0,0,0,0,0l-1.4,0.2c-0.3,0.2-0.6,0.4-0.9,0.6L22.8,25.6z"/>
			<path class="st2" d="M20,26.8c0.7-0.2,1.4-0.5,2-0.8l-1.3,0.2c-0.5,0.3-1,0.5-1.5,0.7L20,26.8z"/>
		</g>
	</g>
	<text transform="matrix(0.9698 -0.2438 0.2438 0.9698 9.3 22.3253)" class="st0 st3 st4">$</text>
</g>
</svg>
