<svg id="Layer_1" data-name="Layer 1" xmlns="http://www.w3.org/2000/svg" viewBox="0 0 315.43 101.38"><defs><style>.cls-1{fill:#fff;}.cls-2{fill:#7e0c6e;}</style></defs><title>logo-win4</title><polygon class="cls-1" points="27.3 12.21 0 101.38 288.32 101.38 315.14 12.21 27.3 12.21"/><polygon class="cls-2" points="27.3 12.21 0 101.38 242.06 101.38 243.72 96.92 254.09 96.92 261.72 71.68 210.87 71.68 212.85 64.12 273.55 12.21 222.6 12.21 221.11 16.23 216.25 16.23 199.08 71.68 189 71.68 172.26 18.94 157.14 67.54 162.54 67.54 161.46 71.68 145.98 71.68 147.46 67.47 152.59 67.47 168.12 16.3 162.9 16.3 163.62 12.21 158.85 12.21 157.63 16.3 152.59 16.3 136.8 67.49 142.38 67.49 140.94 71.74 112.68 71.74 113.58 67.54 119.16 67.54 134.76 16.3 123.42 16.3 87.84 71.68 76.5 71.68 74.97 32.44 48.96 71.68 38.88 71.68 36.72 16.3 31.68 16.3 31.98 12.27 27.3 12.21"/><polygon class="cls-2" points="62.23 12.21 60.48 16.3 55.62 16.3 56.88 52.51 74.79 24.61 74.16 16.23 69.12 16.24 69.78 12.27 62.23 12.21"/><polygon class="cls-2" points="99.9 12.28 98.1 16.3 93.06 16.3 94.32 53.5 118.26 16.3 113.4 16.3 113.4 12.21 99.9 12.28"/><polygon class="cls-2" points="188.39 12.21 200.61 51.07 211.41 16.23 206.28 16.23 206.94 12.27 188.39 12.21"/><polygon class="cls-2" points="296.35 0.01 282.6 12.19 274.55 12.21 288.59 0 296.35 0.01"/><polygon class="cls-2" points="281.71 12.21 223.02 62.5 264.42 62.5 272.34 37.3 295.02 24.7 283.86 62.5 300.42 62.5 315.43 12.27 281.71 12.21"/><polygon class="cls-2" points="280.8 71.68 297.63 71.68 288.63 101.31 282.42 101.31 283.77 96.88 273.33 96.88 280.8 71.68"/></svg>