<svg id="Layer_1" data-name="Layer 1" xmlns="http://www.w3.org/2000/svg" viewBox="0 0 511 244.67"><defs><style>.cls-1,.cls-6{fill:#005daa;}.cls-1{stroke:#0060a9;stroke-width:1.56px;}.cls-2{fill:#fff;}.cls-3{fill:#ed1c24;}.cls-4{fill:#7f3f98;}.cls-5{fill:#006536;}.cls-7{fill:#0060a9;}.cls-8{fill:#f26522;}</style></defs><title>logo-scratch-off</title><rect class="cls-1" x="1.26" y="1.06" width="508.88" height="141.21"/><path class="cls-2" d="M65.15,71l-6.47,7.14q-5.11-3-7.36-3a4,4,0,0,0-3,1.31,4.38,4.38,0,0,0-1.25,3.13q0,3.59,6.48,6.22a44.9,44.9,0,0,1,7.17,3.68A13.16,13.16,0,0,1,64.81,94a12.74,12.74,0,0,1,1.64,6.33,14.34,14.34,0,0,1-5,10.88,16.93,16.93,0,0,1-11.86,4.63q-7.5,0-14.82-7.11l6.84-8q4.6,4.77,8.61,4.77a5.16,5.16,0,0,0,3.6-1.68,4.92,4.92,0,0,0,1.73-3.52q0-3.8-8-6.7a26.17,26.17,0,0,1-6.47-3.14,11.17,11.17,0,0,1-3.22-4.26,13.37,13.37,0,0,1-1.31-5.72A13.92,13.92,0,0,1,40.73,70a15.16,15.16,0,0,1,11-4A19,19,0,0,1,65.15,71Z"/><path class="cls-2" d="M108,69.21V81q-7.84-4.74-13.72-4.74a11.85,11.85,0,0,0-9.42,4.07q-3.53,4.07-3.53,11,0,6.51,3.72,10.42a13.07,13.07,0,0,0,9.93,3.9q5.44,0,13-4.4V113q-8.5,2.85-14.16,2.85a21.93,21.93,0,0,1-16.55-7.2,24.61,24.61,0,0,1-6.81-17.56,25,25,0,0,1,6.93-17.85A22.38,22.38,0,0,1,94.25,66,33.9,33.9,0,0,1,108,69.21Z"/><path class="cls-2" d="M117.68,66.62h15.91q7.26,0,11.47,3.85t4.22,10.39a17.93,17.93,0,0,1-1.94,7.77q-1.94,4-7.13,6.32l13.52,20.26h-12l-12.5-18.8h-1.18v18.8H117.68Zm10.49,8.66V87.93h2.25q8.16,0,8.16-6.7a5.17,5.17,0,0,0-2.12-4.35,9.55,9.55,0,0,0-5.89-1.61Z"/><path class="cls-2" d="M178,66.62h8.06l19.68,48.59H195.29l-3.87-9.55H172.89l-3.79,9.55H158.68Zm4,15.91-5.68,14.32h11.48Z"/><path class="cls-2" d="M204.34,66.62h32.48V76.94H225.75V115.2H215.34V76.94h-11Z"/><path class="cls-2" d="M277.07,69.21V81q-7.84-4.74-13.72-4.74a11.85,11.85,0,0,0-9.42,4.07q-3.53,4.07-3.53,11,0,6.51,3.72,10.42a13.07,13.07,0,0,0,9.93,3.9q5.44,0,13-4.4V113q-8.5,2.85-14.16,2.85a21.93,21.93,0,0,1-16.55-7.2,24.6,24.6,0,0,1-6.81-17.56,25,25,0,0,1,6.93-17.85A22.38,22.38,0,0,1,263.35,66,33.9,33.9,0,0,1,277.07,69.21Z"/><path class="cls-2" d="M286,66.62h10.41V85.34h17.11V66.62H324V115.2H313.56V95.89H296.46V115.2H286Z"/><path class="cls-2" d="M332.13,85.88h17v9.55h-17Z"/><path class="cls-2" d="M356,90.89q0-10.77,7.08-17.78a23.06,23.06,0,0,1,16.79-7q10.74,0,17.77,7t7,17.82q0,10.69-7,17.76a23.54,23.54,0,0,1-17.51,7.07q-10.56,0-17.38-7T356,90.89Zm24.35-15.1A12,12,0,0,0,370.55,80q-3.72,4.33-3.72,11.18a15.54,15.54,0,0,0,3.79,10.73,12.26,12.26,0,0,0,9.56,4.26A12.49,12.49,0,0,0,390,102q3.73-4.2,3.73-11.08T390.06,80A12.73,12.73,0,0,0,380.33,75.79Z"/><path class="cls-2" d="M412.65,66.62h27.19V76H423v9.92h16.85v9.47H423.06v19.8H412.65Z"/><path class="cls-2" d="M449.49,66.62h27.19V76H459.83v9.92h16.85v9.47H459.9v19.8H449.49Z"/><path class="cls-2" d="M106.21,52,96,38V52H93.77V34.46H96l10.12,13.73V34.46h2.19V52Z"/><path class="cls-2" d="M117.7,52V34.46h11.51v1.95h-9.33v5.66H129v2h-9.14v6.06h9.33V52Z"/><path class="cls-2" d="M151.4,52l-3.87-14.18L143.65,52h-2.37l-5-17.57h2.42l3.9,14.65,4-14.65h1.82l4,14.65,3.87-14.65h2.42l-5,17.57Z"/><path class="cls-2" d="M183.68,52V44.6l-6.93-10.14h2.56l5.45,8.17,5.45-8.17h2.56l-6.9,10.14V52Z"/><path class="cls-2" d="M198.57,43.26c0-5.19,3.5-9.09,8.72-9.09s8.72,3.9,8.72,9.09-3.53,9.09-8.72,9.09S198.57,48.45,198.57,43.26Zm15.18,0c0-4.11-2.53-7.14-6.46-7.14s-6.46,3-6.46,7.14,2.5,7.14,6.46,7.14S213.75,47.34,213.75,43.26Z"/><path class="cls-2" d="M234.88,52l-4.48-7h-3.5v7h-2.19V34.46h7.06c3.21,0,5.51,2.06,5.51,5.3a4.86,4.86,0,0,1-4.56,5.11L237.47,52ZM235,39.75a3.27,3.27,0,0,0-3.5-3.35H226.9v6.72h4.61A3.29,3.29,0,0,0,235,39.75Z"/><path class="cls-2" d="M256.62,52,250,44.13l-1.77,2V52H246V34.46h2.19v9.09L256,34.46h2.74l-7.33,8.35,8,9.22Z"/><path class="cls-2" d="M279.18,52V34.46h2.19V50.08h8.17V52Z"/><path class="cls-2" d="M296.29,43.26c0-5.19,3.5-9.09,8.72-9.09s8.72,3.9,8.72,9.09-3.53,9.09-8.72,9.09S296.29,48.45,296.29,43.26Zm15.18,0c0-4.11-2.53-7.14-6.46-7.14s-6.45,3-6.45,7.14,2.5,7.14,6.45,7.14S311.46,47.34,311.46,43.26Z"/><path class="cls-2" d="M326.07,52V36.41h-5.56V34.46h13.33v1.95h-5.58V52Z"/><path class="cls-2" d="M346.36,52V36.41H340.8V34.46h13.33v1.95h-5.59V52Z"/><path class="cls-2" d="M362.3,52V34.46h11.51v1.95h-9.33v5.66h9.14v2h-9.14v6.06h9.33V52Z"/><path class="cls-2" d="M392.74,52l-4.48-7h-3.5v7h-2.19V34.46h7.06c3.21,0,5.51,2.06,5.51,5.3a4.86,4.86,0,0,1-4.56,5.11L395.32,52Zm.13-12.28a3.27,3.27,0,0,0-3.51-3.35h-4.61v6.72h4.61A3.29,3.29,0,0,0,392.87,39.75Z"/><path class="cls-2" d="M408.55,52V44.6l-6.93-10.14h2.56l5.45,8.17,5.45-8.17h2.56l-6.9,10.14V52Z"/><rect class="cls-3" x="1.26" y="150.07" width="94.93" height="94.93"/><rect class="cls-4" x="105.33" y="150.07" width="94.93" height="94.93"/><rect class="cls-5" x="208.56" y="150.07" width="94.93" height="94.93"/><rect class="cls-6" x="312.62" y="150.85" width="93.38" height="93.38"/><path class="cls-7" d="M405.22,151.63v91.82H313.4V151.63h91.82m1.56-1.56H311.84V245h94.94V150.07Z"/><rect class="cls-8" x="415.21" y="150.07" width="94.93" height="94.93"/><path class="cls-2" d="M63.85,187.54l-5.06,4.73a10.91,10.91,0,0,0-3.93-4.1A9.69,9.69,0,0,0,42.76,190a10.31,10.31,0,0,0-3.05,7.43,10.68,10.68,0,0,0,3.05,7.71,9.87,9.87,0,0,0,7.36,3.16,9.27,9.27,0,0,0,4.51-1.18,8.35,8.35,0,0,0,3.49-4.44H49.75v-6.89H66.06v4.58a14.9,14.9,0,0,1-2.42,7.57,14.67,14.67,0,0,1-6.38,5.92,18.56,18.56,0,0,1-8,1.87,16.37,16.37,0,0,1-12.35-5.3,18.3,18.3,0,0,1-5-13.1,17.35,17.35,0,0,1,5.18-12.65,16.9,16.9,0,0,1,12.48-5.25Q58.85,179.39,63.85,187.54Z"/><path class="cls-2" d="M150,179.87h5.9l14.39,35.33h-7.66l-2.83-6.94H146.21l-2.77,6.94h-7.62Zm2.95,11.57-4.15,10.41h8.4Z"/><path class="cls-2" d="M240.64,179.87h9L256.31,201l6.62-21.18h8.73l4.55,35.33H269l-3.12-24.86-7.78,24.86H254.6l-8-25.08-2.95,25.08H236.3Z"/><path class="cls-2" d="M349.6,179.87h19.89v7H357.21V194h12.27v6.89H357.21v7.32h12.27v7H349.6Z"/><path class="cls-2" d="M473.58,183.07l-4.74,5.19q-3.74-2.21-5.39-2.21a2.91,2.91,0,0,0-2.18,1,3.16,3.16,0,0,0-.92,2.27q0,2.61,4.74,4.52a32.9,32.9,0,0,1,5.25,2.68,9.59,9.59,0,0,1,3,3.32,9.23,9.23,0,0,1,1.2,4.6,10.4,10.4,0,0,1-3.68,7.91,12.44,12.44,0,0,1-8.69,3.36q-5.49,0-10.85-5.17l5-5.84q3.37,3.47,6.3,3.47a3.78,3.78,0,0,0,2.64-1.22,3.56,3.56,0,0,0,1.27-2.56q0-2.76-5.85-4.87a19.16,19.16,0,0,1-4.74-2.28,8.12,8.12,0,0,1-2.36-3.09,9.69,9.69,0,0,1-1-4.16,10.09,10.09,0,0,1,3.07-7.64,11.13,11.13,0,0,1,8-2.93A14,14,0,0,1,473.58,183.07Z"/></svg>