<?xml version="1.0" encoding="utf-8"?>
<!-- Generator: Adobe Illustrator 19.2.0, SVG Export Plug-In . SVG Version: 6.00 Build 0)  -->
<svg version="1.1" xmlns="http://www.w3.org/2000/svg" xmlns:xlink="http://www.w3.org/1999/xlink" x="0px" y="0px"
	 viewBox="0 0 465.5 208.7" style="enable-background:new 0 0 465.5 208.7;" xml:space="preserve">
<style type="text/css">
	.st0{fill:#FFFFFF;}
</style>
<g id="Layer_2">
</g>
<g id="Layer_1">
	<title>logo-cash4life</title>
	<path class="st0" d="M75.2,179.1v-39l-46.8,39H75.2z M75.1,208.7v-17.4H0v-6.2l66.5-56.1H93v49.8h18.4v12.4H93v17.4L75.1,208.7z"/>
	<polygon class="st0" points="199.5,177.3 199.5,191.6 119.4,191.6 119.4,129.1 137.3,129.1 137.3,177.3 	"/>
	<rect x="215.4" y="129.1" class="st0" width="17.9" height="62.5"/>
	<polygon class="st0" points="335.8,156.4 335.8,169.6 272.5,169.6 272.5,191.6 254.6,191.6 254.6,129.1 337.1,129.1 337.1,143.3 
		272.5,143.3 272.5,156.4 	"/>
	<polygon class="st0" points="437.9,153.4 437.9,166.7 371.4,166.7 371.4,177.4 437.9,177.4 437.9,191.6 353.9,191.6 353.9,129.1 
		437.9,129.1 437.9,143.3 371.4,143.3 371.4,153.4 	"/>
	<rect x="8" y="111.6" class="st0" width="437.9" height="6"/>
	<path class="st0" d="M31,13.9V0.6h4.7v17.2h-7.1L14.2,4.3v13.5H9.4V0.6h7.4L31,13.9z"/>
	<path class="st0" d="M64.1,7.3V11H46.3v2.9h18.3v3.9H41.5V0.6h23.1v3.9H46.3v2.8H64.1z"/>
	<path class="st0" d="M102.9,17.9h-6.6L90,4.9l-6.3,13h-6.6L67.7,0.6h5.6l7.3,13.8l6.8-13.8h5.6l6.7,13.8l7.3-13.8h5.4L102.9,17.9z"
		/>
	<path class="st0" d="M146,0.6h6.2v0.1L140.5,11v6.8h-4.9V11L123.9,0.7V0.6h6.5l7.8,7L146,0.6z"/>
	<path class="st0" d="M154.8,3.1c1.7-1.7,4.7-3.1,12-3.1s10.3,1.4,12,3.1c1.6,1.6,2.4,3.9,2.3,6.1c0.1,2.3-0.7,4.5-2.3,6.1
		c-1.7,1.7-4.7,3.1-12,3.1s-10.3-1.4-12-3.1c-1.6-1.6-2.4-3.9-2.3-6.1C152.4,7,153.2,4.7,154.8,3.1z M174.8,5.6c-1-1-3.1-1.9-8-1.9
		s-7,0.9-8,1.9c-0.9,1-1.4,2.3-1.3,3.7c-0.1,1.3,0.4,2.7,1.3,3.7c1,1,3.1,1.9,8,1.9s7-0.9,8-1.9c0.9-1,1.4-2.3,1.3-3.6
		C176.2,7.9,175.7,6.5,174.8,5.6L174.8,5.6z"/>
	<path class="st0" d="M208.8,10.4c-1,1-2.4,1.6-5.3,1.8l8.6,5.5v0.1h-7.1l-8.3-5.5h-6.1v5.5h-4.9V0.6h14.9c5.2,0,6.9,0.6,8.2,1.9
		c1,1.1,1.5,2.5,1.4,3.9C210.4,7.9,209.8,9.3,208.8,10.4z M200.7,4.6h-10v4.1h10c2.3,0,3.6-0.2,4.2-0.8c0.3-0.4,0.5-0.8,0.5-1.3
		c0-0.5-0.2-1-0.5-1.3C204.3,4.7,203.2,4.6,200.7,4.6z"/>
	<path class="st0" d="M223.5,7.2l10-6.5h7.1v0.1l-12.9,8.4l13.1,8.6v0.1h-7.4l-10.2-6.7h-2.9v6.7h-4.9V0.6h4.9v6.5H223.5z"/>
	<path class="st0" d="M276.7,13.8v4h-21.8V0.6h4.9v13.2H276.7z"/>
	<path class="st0" d="M281.7,3.1c1.7-1.7,4.7-3.1,12-3.1s10.3,1.4,12,3.1c1.6,1.6,2.4,3.9,2.3,6.1c0.1,2.3-0.7,4.5-2.3,6.1
		c-1.7,1.7-4.7,3.1-12,3.1s-10.3-1.4-12-3.1c-1.6-1.6-2.4-3.8-2.3-6.1C279.3,6.9,280.1,4.7,281.7,3.1z M301.7,5.6
		c-1-1-3.1-1.9-8-1.9s-7,0.9-8,1.9c-0.9,1-1.4,2.3-1.3,3.7c-0.1,1.3,0.4,2.7,1.3,3.7c1,1,3.1,1.9,8,1.9s7-0.9,8-1.9
		c0.9-1,1.4-2.3,1.3-3.7C303.1,7.9,302.6,6.5,301.7,5.6L301.7,5.6z"/>
	<path class="st0" d="M336.8,4.5h-10.9v13.3H321V4.5h-10.9V0.6h26.6L336.8,4.5z"/>
	<path class="st0" d="M366.1,4.5h-10.9v13.3h-4.9V4.5h-10.9V0.6h26.6L366.1,4.5z"/>
	<path class="st0" d="M393,7.3V11h-17.9v2.9h18.3v3.9h-23.1V0.6h23.1v3.9h-18.3v2.8H393z"/>
	<path class="st0" d="M421.8,10.4c-1,1-2.4,1.6-5.3,1.8l8.6,5.5v0.1H418l-8.3-5.5h-6.1v5.5h-4.9V0.6h14.9c5.2,0,6.9,0.6,8.2,1.9
		c1,1.1,1.5,2.5,1.4,3.9C423.3,7.9,422.8,9.3,421.8,10.4z M413.6,4.6h-10v4.1h10c2.3,0,3.6-0.2,4.2-0.8c0.3-0.4,0.5-0.8,0.5-1.3
		c0-0.5-0.2-1-0.5-1.3C417.3,4.7,416.1,4.6,413.6,4.6z"/>
	<path class="st0" d="M447.1,0.6h6.2v0.1L441.5,11v6.8h-4.9V11L425,0.7V0.6h6.5l7.8,7L447.1,0.6z"/>
	<path class="st0" d="M57.3,28.3c-26.2,0-38.3,6.7-44,12.3c-6,6-9.1,14.3-9.1,24.1s3.1,18.2,9.1,24.2c5.6,5.6,17.8,12.3,44,12.3
		c16.8,0,32.2-3.2,42.1-8.7l0.4-0.3V77l-1.3,0.7c-10.8,6-26.2,9.6-41.3,9.6c-14.7,0-25.9-2.8-30.9-7.8c-3.6-3.6-5.3-8.3-5.3-14.8
		s1.7-11.5,5.2-14.9c4.8-4.8,16.2-7.6,31.1-7.6S87.7,46,98.6,52.5l1.3,0.8v-16L99.5,37C89.5,31.5,74.2,28.3,57.3,28.3z"/>
	<path class="st0" d="M157.3,29.5l-48.6,70.2h18.7l10.9-16h58.5l10.9,16h19.4l-48.6-70.2H157.3z M187.5,69.8h-39.8l19.9-29.4
		L187.5,69.8z"/>
	<path class="st0" d="M281.6,57.1c-21.5-1-26.4-2.2-28.2-4c-0.9-1-1.3-2.3-1.2-3.6c-0.1-1.5,0.4-2.9,1.4-4c1.9-1.8,6.3-3.7,25.5-3.7
		c14.3,0,31.5,3.1,42,7.5l1.2,0.5V35.2l-0.5-0.2c-10.3-4.1-25.5-6.4-42.6-6.4c-21.2,0-32.8,2.5-38.6,8.3c-3.4,3.4-5,7.8-5,13.9
		c0,5.3,1.4,9.2,4.1,12c5.2,5.2,14.7,7.2,40.6,8.5c23.1,1.2,27.6,2.1,29.6,4c1,1.1,1.5,2.6,1.4,4.2c0.1,1.5-0.5,3-1.6,4.2
		c-2.4,2.4-8,4-27.3,4c-16.1,0-37.4-3.9-47.5-8.8l-1.2-0.6V93l0.5,0.2c10.7,4.7,29.6,7.7,48.2,7.7c28.1,0,36.4-4.8,40.6-8.9
		c3.4-3.4,5-7.9,5-14c0-5.1-1.6-9.5-4.4-12.4C318.8,61,311.7,58.6,281.6,57.1z"/>
	<polygon class="st0" points="431,29.9 431,57.3 364.7,57.3 364.7,29.9 347.9,29.9 347.9,99.7 364.7,99.7 364.7,71.5 431,71.5 
		431,99.7 447.8,99.7 447.8,29.9 	"/>
	<path class="st0" d="M452.3,130.9h-3.8v5.3h-2.3v-5.3h-3.8v-1.7h10L452.3,130.9z M456.4,129.1l2.9,5.6l2.9-5.6h3.3v7h-2v-5.4
		l-2.9,5.4H458l-2.8-5.3v5.3h-2v-7L456.4,129.1z"/>
</g>
</svg>
