<svg id="Layer_1" data-name="Layer 1" xmlns="http://www.w3.org/2000/svg" viewBox="0 0 363.25 100.61"><defs><style>.cls-1,.cls-11{fill:#fff;}.cls-10,.cls-2,.cls-5,.cls-6,.cls-7,.cls-8,.cls-9{fill:none;stroke:#231f20;}.cls-2{stroke-width:1.91px;}.cls-3{fill:#e31837;}.cls-12,.cls-4{fill:#231f20;}.cls-5{stroke-width:0.89px;}.cls-6{stroke-width:0.88px;}.cls-7{stroke-width:0.82px;}.cls-8{stroke-width:0.88px;}.cls-10,.cls-9{stroke-miterlimit:2.61;}.cls-9{stroke-width:1.22px;}.cls-10{stroke-width:0.2px;}.cls-11,.cls-12{fill-rule:evenodd;}</style></defs><title>logo-powerball</title><path class="cls-1" d="M58.23,49.81A28.64,28.64,0,1,1,29.59,21.17,28.64,28.64,0,0,1,58.23,49.81"/><circle class="cls-2" cx="29.59" cy="49.81" r="28.64"/><path class="cls-1" d="M119.24,49.81A28.64,28.64,0,1,1,90.6,21.17a28.64,28.64,0,0,1,28.64,28.64"/><circle class="cls-2" cx="90.6" cy="49.81" r="28.64"/><path class="cls-1" d="M180.24,49.81A28.64,28.64,0,1,1,151.6,21.17a28.64,28.64,0,0,1,28.64,28.64"/><circle class="cls-2" cx="151.6" cy="49.81" r="28.64"/><path class="cls-1" d="M241.24,49.81A28.64,28.64,0,1,1,212.6,21.17a28.64,28.64,0,0,1,28.64,28.64"/><circle class="cls-2" cx="212.6" cy="49.81" r="28.64"/><path class="cls-1" d="M302.25,49.81A28.64,28.64,0,1,1,273.6,21.17a28.64,28.64,0,0,1,28.64,28.64"/><circle class="cls-2" cx="273.6" cy="49.81" r="28.64"/><path class="cls-3" d="M363.25,49.81a28.64,28.64,0,1,1-28.64-28.64,28.64,28.64,0,0,1,28.64,28.64"/><path class="cls-4" d="M18.41,66.13c-2-15.87-1.12-24.92.92-33.05,5.09-.56,8.67-.2,13.76-.16,9,.18,13.89,5.1,14.14,11.47.18,6.72-4.3,11.3-13.74,11.42q-2.73,0-5.46,0,0,5.15.17,10.31a93.89,93.89,0,0,1-9.79,0M32.52,48.06c2.54,0,5-1.46,5-4.3,0-3.08-4-3.58-6.31-3.56l-3,0c0,2.45-.16,5.38-.17,7.84h4.52"/><path class="cls-5" d="M18.41,66.13c-2-15.87-1.12-24.92.92-33.05,5.09-.56,8.67-.2,13.76-.16,9,.18,13.89,5.1,14.14,11.47.18,6.72-4.3,11.3-13.74,11.42q-2.73,0-5.46,0,0,5.15.17,10.31A93.89,93.89,0,0,1,18.41,66.13ZM32.52,48.06c2.54,0,5-1.46,5-4.3,0-3.08-4-3.58-6.31-3.56l-3,0c0,2.45-.16,5.38-.17,7.84Z"/><path class="cls-4" d="M107.6,48.88A17.17,17.17,0,0,1,90.45,66.24c-9.56-.11-17-7.06-17.1-17.45a17.12,17.12,0,0,1,34.25.09m-23.54,0c0,4.13,1.36,9.36,6.4,9.39,4.54,0,6.44-4,6.44-9.39,0-4.4-1.9-9.15-6.53-9s-6.31,4.94-6.31,9"/><path class="cls-6" d="M107.6,48.88A17.17,17.17,0,0,1,90.45,66.24c-9.56-.11-17-7.06-17.1-17.45a17.12,17.12,0,0,1,34.25.09Zm-23.54,0c0,4.13,1.36,9.36,6.4,9.39,4.54,0,6.44-4,6.44-9.39,0-4.4-1.9-9.15-6.53-9S84.06,44.78,84.06,48.87Z"/><path class="cls-4" d="M160.05,53h.1c1.56-6.95,2.6-12.67,2.17-19.31,4.27.1,4.48.1,7.63.2,2,9.26-.74,20.84-6.2,32.14-3.46.1-5.87,0-9,.11-.65-6.57-2-13.22-3.35-19.87h-.1C150,53,148.64,59.6,148,66.17c-3.68.09-3.89.09-8.16,0-5.46-11.3-8.95-22.48-6.3-32.44,3.86.1,4,0,7.22,0A64.17,64.17,0,0,0,142.6,53h.1c1.08-6.88,3.2-12.41,4.93-19.51a73.43,73.43,0,0,1,7.88,0c1.73,7.11,3.47,12.63,4.55,19.51"/><path class="cls-7" d="M160.05,53h.1c1.56-6.95,2.6-12.67,2.17-19.31,4.27.1,4.48.1,7.63.2,2,9.26-.74,20.84-6.2,32.14-3.46.1-5.87,0-9,.11-.65-6.57-2-13.22-3.35-19.87h-.1C150,53,148.64,59.6,148,66.17c-3.68.09-3.89.09-8.16,0-5.46-11.3-8.95-22.48-6.3-32.44,3.86.1,4,0,7.22,0A64.17,64.17,0,0,0,142.6,53h.1c1.08-6.88,3.2-12.41,4.93-19.51a73.43,73.43,0,0,1,7.88,0C157.23,40.62,159,46.15,160.05,53Z"/><path class="cls-4" d="M201.47,65.34a71.65,71.65,0,0,1,0-31.66,82.9,82.9,0,0,1,23.42,0,37.47,37.47,0,0,1,2,7.22c-5.69-.1-10.8-.34-16.14-.26q0,2.38,0,4.77,6.87,0,13.74.12.07,3.77,0,7.55-6.87.15-13.74.11c0,1.74,0,3.49,0,5.23q8.34.12,16.68-.44A26.25,26.25,0,0,1,226,65.4a86.76,86.76,0,0,1-24.54-.05"/><path class="cls-5" d="M201.47,65.34a71.65,71.65,0,0,1,0-31.66,82.9,82.9,0,0,1,23.42,0,37.47,37.47,0,0,1,2,7.22c-5.69-.1-10.8-.34-16.14-.26q0,2.38,0,4.77,6.87,0,13.74.12.07,3.77,0,7.55-6.87.15-13.74.11c0,1.74,0,3.49,0,5.23q8.34.12,16.68-.44A26.25,26.25,0,0,1,226,65.4,86.76,86.76,0,0,1,201.47,65.34Z"/><path class="cls-4" d="M269.71,54.21c.06,4,.11,8,.31,12a42.77,42.77,0,0,1-9.15-.61c-3.35-10.48-2.44-22.37.92-32.34,4.9-.94,7.92-.79,12.82-.8,10.25.24,13.92,4.35,14.44,10.36.25,3.67-1.63,6.5-5.6,7.63,3.53,1.29,6.33,2.28,5.81,8.71a47,47,0,0,1-.76,5.07c-.12.64-.23,1.18-.29,1.51-3.77.51-5.68.27-9.13.47a22.29,22.29,0,0,1-.2-5.34c.12-4.48-.64-6.6-5.79-6.62l-3.37,0m0-6.82,4.38,0c3.44,0,5.28-.85,5.24-3.22s-1.92-3.63-4.44-3.63q-2.53,0-5.07.07-.09,3.4-.11,6.8"/><path class="cls-8" d="M269.71,54.21c.06,4,.11,8,.31,12a42.77,42.77,0,0,1-9.15-.61c-3.35-10.48-2.44-22.37.92-32.34,4.9-.94,7.92-.79,12.82-.8,10.25.24,13.92,4.35,14.44,10.36.25,3.67-1.63,6.5-5.6,7.63,3.53,1.29,6.33,2.28,5.81,8.71a47,47,0,0,1-.76,5.07c-.12.64-.23,1.18-.29,1.51-3.77.51-5.68.27-9.13.47a22.29,22.29,0,0,1-.2-5.34c.12-4.48-.64-6.6-5.79-6.62Zm0-6.82,4.38,0c3.44,0,5.28-.85,5.24-3.22s-1.92-3.63-4.44-3.63q-2.53,0-5.07.07Q269.72,44,269.69,47.39Z"/><path class="cls-1" d="M312,59.14c-2.2-7.12-1.73-13.41,0-20,1.83-.11,3.66-.2,5.5-.27,2.6-.11,4.28,1,3.82,5.19a7.81,7.81,0,0,1-1.9,4.6c1.35.61,2.06,2.61,2.24,4.93.39,4.78-1.08,6.33-4.07,6.07q-2.81-.23-5.61-.52m2.6-15.43a31,31,0,0,0-.41,3.42l1.7,0c.82,0,1.43-.59,1.55-1.81.18-1.62-.57-1.65-1.43-1.64h-1.41m-.44,7.16a32.07,32.07,0,0,0,.42,3.81l1.75.09c1,.05,1.66-.26,1.52-1.84-.15-1.84-1.08-2-2.39-2l-1.3,0"/><path class="cls-1" d="M322.51,59.28c.1-6.74,2.47-13.6,5.23-20.51q2.43,0,4.87-.06c1.31,6.91,3.68,13.85,5.23,20.77h-4.76c-.24-.91-.48-1.83-.72-2.74l-5,0q-.14,1.36-.2,2.71l-4.69-.12M329.68,45c-.63,2.48-1.2,4.95-1.63,7.41h3.27c-.62-2.48-1.19-5-1.64-7.43"/><path class="cls-1" d="M339.47,59.59a191.43,191.43,0,0,0,0-20.72l4.43.06a78.49,78.49,0,0,1,.49,15.79q3.24,0,6.47-.09a42.8,42.8,0,0,1-.87,4.73q-5.26.18-10.52.22"/><path class="cls-1" d="M351.25,59.28a47.55,47.55,0,0,0,.08-20.18c1.14.06,2.51.21,3.65.29a34.85,34.85,0,0,1,.68,15c1.66-.06,3,0,4.66,0a31.38,31.38,0,0,1-1.59,4.56c-2.69.24-4.77.26-7.47.4"/><rect class="cls-1" x="218.12" y="83.71" width="143.81" height="16.29"/><rect class="cls-9" x="218.12" y="83.71" width="143.81" height="16.29"/><rect class="cls-4" x="218.29" y="83.71" width="84.67" height="16.29"/><rect class="cls-10" x="218.29" y="83.71" width="84.67" height="16.29"/><path class="cls-11" d="M221.92,85.41h6.78A4.63,4.63,0,0,1,232,86.46a4,4,0,0,1,1.1,3,4.07,4.07,0,0,1-1.2,3.13,5.22,5.22,0,0,1-3.67,1.13H226v4.9h-4.1ZM226,91h1a2.57,2.57,0,0,0,1.66-.41,1.33,1.33,0,0,0,.47-1,1.46,1.46,0,0,0-.41-1.05,2.13,2.13,0,0,0-1.56-.43H226Z"/><path class="cls-11" d="M236.06,91.78a6.25,6.25,0,0,1,6.82-6.83A6.9,6.9,0,0,1,248,86.72a6.67,6.67,0,0,1,1.78,5,8.12,8.12,0,0,1-.78,3.8,5.55,5.55,0,0,1-2.25,2.31,7.42,7.42,0,0,1-3.67.82,8.47,8.47,0,0,1-3.7-.71A5.61,5.61,0,0,1,237,95.63a7.5,7.5,0,0,1-.91-3.85m4.08,0a4.44,4.44,0,0,0,.74,2.88,2.81,2.81,0,0,0,4.06,0,4.88,4.88,0,0,0,.72-3.07,4.09,4.09,0,0,0-.75-2.73,2.57,2.57,0,0,0-2-.86,2.47,2.47,0,0,0-2,.87,4.43,4.43,0,0,0-.75,2.89"/><polygon class="cls-11" points="251.78 85.4 255.66 85.4 257.05 92.78 259.09 85.4 262.95 85.4 265 92.78 266.39 85.4 270.25 85.4 267.34 98.61 263.34 98.61 261.02 90.3 258.72 98.61 254.72 98.61 251.78 85.4"/><polygon class="cls-11" points="273.77 85.4 284.7 85.4 284.7 88.22 277.86 88.22 277.86 90.31 284.21 90.31 284.21 93.01 277.86 93.01 277.86 95.61 284.9 95.61 284.9 98.6 273.77 98.6 273.77 85.4"/><path class="cls-11" d="M288.56,98.57V85.37h6.8a9.8,9.8,0,0,1,2.89.33,3.06,3.06,0,0,1,1.61,1.2,3.64,3.64,0,0,1,.61,2.14,3.53,3.53,0,0,1-1.76,3.19,4.94,4.94,0,0,1-1.43.52,4.11,4.11,0,0,1,1.06.49,4.48,4.48,0,0,1,.65.69,5.41,5.41,0,0,1,.57.82l2,3.83h-4.61l-2.18-4a3,3,0,0,0-.74-1,1.7,1.7,0,0,0-1-.31h-.36v5.36Zm4.1-7.85h1.72a6.32,6.32,0,0,0,1.08-.18,1.1,1.1,0,0,0,.66-.42,1.23,1.23,0,0,0,.25-.77,1.21,1.21,0,0,0-.4-1,2.45,2.45,0,0,0-1.52-.34h-1.79Z"/><path class="cls-12" d="M308.13,86.76v5h2.18a4.74,4.74,0,0,0,2.68-.6,2.11,2.11,0,0,0,.87-1.86,2.19,2.19,0,0,0-.87-1.92,5,5,0,0,0-2.8-.61Zm-1.47-1.29h3.19a15.51,15.51,0,0,1,2.2.12,4.43,4.43,0,0,1,1.37.41,3.87,3.87,0,0,1,1.52,1.36,3.41,3.41,0,0,1,.53,1.88,3.64,3.64,0,0,1-.48,1.83,3.58,3.58,0,0,1-1.34,1.34,4.44,4.44,0,0,1-1.43.51,11.88,11.88,0,0,1-2.12.16h-2v5.51h-1.47Z"/><polygon class="cls-12" points="325.66 98.56 318.89 98.56 318.89 85.45 320.38 85.45 320.38 97.29 325.66 97.29 325.66 98.56"/><path class="cls-12" d="M330.43,98.6h-1.56l5.82-13.11h1.77l5.81,13.11h-1.58l-1.79-4.11h-6.68Zm8-5.3-2.85-6.58-2.81,6.58Z"/><polygon class="cls-12" points="348.48 93.74 348.48 98.56 347.03 98.56 347.03 93.72 342.24 85.44 343.93 85.44 347.76 92.25 351.63 85.44 353.27 85.44 348.48 93.74"/><path class="cls-12" d="M359.24,87.7a2.3,2.3,0,1,1-.31-1.14,2.27,2.27,0,0,1,.31,1.14m-.44,0a1.85,1.85,0,1,0-.54,1.31,1.79,1.79,0,0,0,.54-1.31m-2.89-1.22H357a1,1,0,0,1,.67.19.64.64,0,0,1,.21.5.61.61,0,0,1-.16.42,1,1,0,0,1-.5.26.63.63,0,0,1,.21.11,1.08,1.08,0,0,1,.2.25l.4.7h-.72a5.38,5.38,0,0,0-.47-.83.33.33,0,0,0-.24-.14h-.08v1h-.61Zm.61,1h.26a.63.63,0,0,0,.37-.08.27.27,0,0,0,.11-.22.28.28,0,0,0-.1-.22.56.56,0,0,0-.35-.08h-.29Z"/><polygon class="cls-4" points="2.56 0.33 4.55 0.33 11.96 11.74 12 11.74 12 0.33 13.77 0.33 13.77 14.4 11.72 14.4 4.38 3.11 4.34 3.11 4.34 14.4 2.56 14.4 2.56 0.33"/><polygon class="cls-4" points="18.12 0.33 27.83 0.33 27.83 1.91 19.99 1.91 19.99 6.38 27.3 6.38 27.3 7.96 19.99 7.96 19.99 12.82 27.89 12.82 27.89 14.4 18.12 14.4 18.12 0.33"/><polygon class="cls-4" points="45.81 14.4 43.86 14.4 40.65 2.58 40.61 2.58 37.36 14.4 35.41 14.4 31.81 0.33 33.72 0.33 36.48 12.04 36.52 12.04 39.66 0.33 41.69 0.33 44.81 12.04 44.85 12.04 47.7 0.33 49.58 0.33 45.81 14.4"/><polygon class="cls-4" points="66.9 8.65 66.9 14.4 65.03 14.4 65.03 8.65 59.59 0.33 61.82 0.33 66.03 7.03 70.15 0.33 72.28 0.33 66.9 8.65"/><path class="cls-4" d="M80.79,0c4.47,0,6.74,3.55,6.74,7.37s-2.27,7.37-6.74,7.37S74,11.19,74,7.37,76.31,0,80.79,0m0,13.16c3.43,0,4.87-3,4.87-5.79s-1.44-5.79-4.87-5.79-4.87,3-4.87,5.79,1.44,5.79,4.87,5.79"/><path class="cls-4" d="M91.8.33h6.62c2.64,0,4.28,1.44,4.28,3.69a3.37,3.37,0,0,1-2.44,3.56v0c1.64.32,2,1.52,2.11,2.9s0,2.91.83,3.88H101.1c-.53-.57-.23-2.09-.51-3.47s-.53-2.54-2.35-2.54H93.67v6H91.8Zm5.77,6.48c1.75,0,3.25-.45,3.25-2.5a2.23,2.23,0,0,0-2.5-2.4H93.67V6.82Z"/><polygon class="cls-4" points="107.84 0.33 109.71 0.33 109.71 7.35 116.84 0.33 119.26 0.33 113.34 6.01 119.5 14.4 117.14 14.4 112.06 7.29 109.71 9.48 109.71 14.4 107.84 14.4 107.84 0.33"/><polygon class="cls-4" points="131.63 0.33 133.5 0.33 133.5 12.82 140.95 12.82 140.95 14.4 131.63 14.4 131.63 0.33"/><path class="cls-4" d="M150.31,0C154.78,0,157,3.55,157,7.37s-2.26,7.37-6.74,7.37-6.74-3.55-6.74-7.37S145.84,0,150.31,0m0,13.16c3.43,0,4.87-3,4.87-5.79s-1.44-5.79-4.87-5.79-4.87,3-4.87,5.79,1.44,5.79,4.87,5.79"/><polygon class="cls-4" points="164.31 1.91 159.62 1.91 159.62 0.33 170.87 0.33 170.87 1.91 166.18 1.91 166.18 14.4 164.31 14.4 164.31 1.91"/><polygon class="cls-4" points="178.57 1.91 173.88 1.91 173.88 0.33 185.13 0.33 185.13 1.91 180.44 1.91 180.44 14.4 178.57 14.4 178.57 1.91"/><polygon class="cls-4" points="189.64 0.33 199.35 0.33 199.35 1.91 191.51 1.91 191.51 6.38 198.82 6.38 198.82 7.96 191.51 7.96 191.51 12.82 199.41 12.82 199.41 14.4 189.64 14.4 189.64 0.33"/><path class="cls-4" d="M204.63.34h6.62c2.64,0,4.28,1.44,4.28,3.68a3.37,3.37,0,0,1-2.44,3.57v0c1.64.31,2,1.52,2.11,2.9s0,2.91.83,3.88h-2.09c-.53-.57-.24-2.09-.51-3.47s-.54-2.54-2.34-2.54H206.5v6h-1.87Zm5.77,6.48c1.75,0,3.25-.45,3.25-2.5a2.23,2.23,0,0,0-2.5-2.4H206.5V6.82Z"/><polygon class="cls-4" points="225.37 8.65 225.37 14.4 223.5 14.4 223.5 8.65 218.06 0.33 220.29 0.33 224.5 7.03 228.62 0.33 230.75 0.33 225.37 8.65"/><path class="cls-4" d="M233.47.34h2.19V2.53c0,1.56-.65,2.9-2.17,2.9v-1c.88,0,1.14-1,1.14-1.91h-1.16Z"/><path class="cls-4" d="M247,4.46c-.22-2-1.56-2.88-3.49-2.88-1.58,0-3.15.57-3.15,2.4s2.25,2,4.51,2.5,4.49,1.3,4.49,4.06c0,3-2.94,4.2-5.49,4.2-3.15,0-5.81-1.54-5.81-5h1.77c0,2.36,2,3.39,4.1,3.39,1.69,0,3.57-.53,3.57-2.56S245.26,8.34,243,7.85,238.5,6.7,238.5,4.12C238.5,1.26,241,0,243.6,0c2.88,0,5.06,1.36,5.18,4.45Z"/></svg>