<svg id="Layer_1" data-name="Layer 1" xmlns="http://www.w3.org/2000/svg" xmlns:xlink="http://www.w3.org/1999/xlink" viewBox="0 0 288.5 152.75"><defs><style>.cls-1,.cls-12,.cls-13,.cls-15,.cls-17,.cls-20,.cls-3,.cls-7,.cls-9{fill:none;}.cls-2{fill:#fff;}.cls-20,.cls-3,.cls-7,.cls-9{stroke:#fff;}.cls-20,.cls-3{stroke-linejoin:round;}.cls-3{stroke-width:4.78px;}.cls-4{fill:#fede17;}.cls-5{fill:#8e979d;}.cls-6{fill:#ef4034;}.cls-7{stroke-width:4.79px;}.cls-8{fill:#0951a0;}.cls-9{stroke-width:0.43px;}.cls-10{clip-path:url(#clip-path);}.cls-11{fill:url(#radial-gradient);}.cls-12{stroke:#0361aa;stroke-width:0.36px;}.cls-13{stroke:#fede17;}.cls-13,.cls-15,.cls-17{stroke-width:0;}.cls-14{fill:#008558;}.cls-15{stroke:#008558;}.cls-16{fill:#ef4043;}.cls-17{stroke:#ef4043;}.cls-18{fill:#f47b3e;}.cls-19{fill:#010101;}.cls-20{stroke-linecap:round;stroke-width:4.33px;}.cls-21{fill:#004fa3;}</style><clipPath id="clip-path"><path class="cls-1" d="M68.66,21a31.52,31.52,0,1,0,5.52-.48,31.56,31.56,0,0,0-5.52.48"/></clipPath><radialGradient id="radial-gradient" cx="-143.72" cy="260.4" r="1.11" gradientTransform="matrix(28.8, 0, 0, -28.8, 4213.92, 7553.91)" gradientUnits="userSpaceOnUse"><stop offset="0" stop-color="#7b9acc"/><stop offset="0.61" stop-color="#2f76b6"/><stop offset="1" stop-color="#0361aa"/></radialGradient></defs><title>logo-mega-millions</title><path class="cls-2" d="M271.64,37.56l-11.77-1.22-.33,1.32-.9-.1L257.81,41l-2.74-.29-1.44,5.82-6-.52A20.94,20.94,0,0,0,231.1,32.51a17.29,17.29,0,0,0-15,5.66,19.14,19.14,0,0,0-1.41,1.43c-4,2.67-7.19,7.17-8.89,13.26V51.7l-12.33-.53v-1l8.65.51V47.39l3.58.21V46.3l1.23.07V30.85l-31.27-3.24V29l-1.24-.13,0,2.85-9.44-1.3-.6-3.94-21-2.18-.31,1.33-.92-.1-.79,3.41-2.8-.29L133.4,51.22l-7.75-28.8L99.78,19.74l-.15,1.34L98.56,21l-.4,3.45L95,24.08,94.52,28a31.52,31.52,0,0,0-30.62-5.72l-7.14-4.54q1.82.94,3.63,2c.86-.33,1.74-.64,2.63-.9l.68.24-.49-.29A84.46,84.46,0,0,0,54.28,14c-17.57-8-34.68-7.88-44.41,1.9C5.35,20.46,3,26.61,2.48,33.63a40.84,40.84,0,0,0,0,6A56.79,56.79,0,0,0,5.77,54.22a76.38,76.38,0,0,0,4.68,10.5A97.1,97.1,0,0,0,27.63,87.56c12.9,12.82,28,21.4,42,24.09a48.22,48.22,0,0,0,8.8.9,70.78,70.78,0,0,1-8-3.1,93.62,93.62,0,0,1-26.6-18.71A100.07,100.07,0,0,1,33.18,78.15q-1-1.37-1.89-2.73c-10.38-15.58-14.4-32-10.65-43.8a39.26,39.26,0,0,1,13.51,7.76c-.08.36-.16.72-.24,1.08a36.06,36.06,0,0,0-.9,7.76c0,1,0,1.85.11,2.71l.08.64,0,.26a28.47,28.47,0,0,0,.92,5,19.26,19.26,0,0,0,2.55,5.66l.38.55.07.09.2.27a11.1,11.1,0,0,0,1.2,1.33C35.84,59.51,35,51,36.3,41.34l.44.42a46.23,46.23,0,0,1,3.7,4.15c.07-.71.18-1.41.29-2.1l2.39,2.76A31.54,31.54,0,0,0,74.19,83.65a31.42,31.42,0,0,0,14.4-3.48L88,85.34a53.94,53.94,0,0,1-15.41,2.93,54.87,54.87,0,0,1-10.19-.49,31.48,31.48,0,0,0,20.41,4.3,28.43,28.43,0,0,0,4.51-.81l-.74,6.54,9.68-.57-.06,1.14-5.63.32-.15,1.07-.88,0-.3,2.18-2,.11L84,124.46a171,171,0,0,1-28.5-7c-4.34-1.44-8.49-3-12.42-4.6a99.37,99.37,0,0,0,24.21,10.67,91.39,91.39,0,0,0,12.13,2.91c1.5.24,2.87.43,4.2.57h0l-1.6,11.43,15.64-2.1.13-2,2.22-.3.06-1,1-.13.44-6.8.61-.2.13,0,.29-.1,4.25,9.33,8.59-1.15.67-2.07,1.68-.22.33-1,.69-.09,3.4-10.48,1.93,12.72,13-1.74-.44-1.92,2.8-.37-.22-1,1.25-.17L138.72,120l2.44-.33.37,10.83,12.34-1.65-.05-2,2.41-.32,0-1,1.06-.14-.21-7.89,2-.27.27,10.85,20.29-2.72,0-2,2.38-.32,0-1,.46-.06,0,3,18-2.41v-2l2.35-.32v-1l.24,0v3l8.93-1.2v-2l2.35-.31v-1l1-.14,0-7.17c1,6.51,6.2,9.69,12.23,8.87a13.44,13.44,0,0,0,8.77-4.92,12.94,12.94,0,0,0,2.28-2.19,13.44,13.44,0,0,0,3.21-5l-.2,9.82,6.75-.9,0-2,2.31-.31,0-1,1-.13,0-2,2.31,4.61,6.22-.84.06-2,2-.26-.12.35a11.33,11.33,0,0,0,6.44,1.12,8.35,8.35,0,0,0,5.73-3.56,8.39,8.39,0,0,0,2.1-1.94,8.8,8.8,0,0,0,2.83-6.33c.14-3.57-1.56-5.16-4-5.68l-.43-.09.27-.85a6.62,6.62,0,0,1,1.34.91l.49-1.54a6.67,6.67,0,0,1,.54.42l1.77-5.58A7.26,7.26,0,0,0,274.31,88a7.9,7.9,0,0,0-5.73,3.16,8.74,8.74,0,0,0-1.28,1.47,8.34,8.34,0,0,0-.73.54l1.5-6,7.09-.42-.53-2.88,4.12-.24-.21-1.14L280,82.4Zm-250.23-8c-.74-.23-1.48-.44-2.21-.61-.28.69-.52,1.4-.74,2.12-3.66,11.89-.12,27.9,9.43,43.29.65,1,1.31,2.07,2,3.1a102.61,102.61,0,0,0,29.93,28.89,91.45,91.45,0,0,1-30.58-20.4A99,99,0,0,1,16.4,70.29q-2.29-3.48-4.16-7c-5.35-10.06-8-20.11-7.59-28.73A33,33,0,0,1,5,31a24,24,0,0,1,6.5-13.46c7.67-7.72,20.38-8.86,34.22-4.43q2.5.81,5.05,1.85l-1.6,2.21c-14.4-6.08-27.91-5.94-35.44,1.79-3.58,3.67-5.4,8.66-5.65,14.41,0,.55,0,1.11,0,1.68,0,.31,0,.62,0,.93a19.22,19.22,0,0,0,.46,4.72,29,29,0,0,0,1.73,5.23c0,.28,0,.55,0,.83,0,6.81,8,19.58,14.46,28.87C16.42,62.55,12.64,49.17,14.44,38.25l1.17-7.13-3.32,6.42a17.51,17.51,0,0,0-1.43,3.88,34.32,34.32,0,0,1-.67-7.21,8.34,8.34,0,0,1,2.09-4.08c4.51-4.63,14.23-2.8,23.52,3.8-.37,1-.7,2-1,3a40.75,40.75,0,0,0-13.38-7.42M264.06,81.81l.16,1.15-4.12-.32.12-.69Zm-18.81-5.25A23.49,23.49,0,0,0,247,73.1L245,81.49l-1.37-.11-2.43.07.22-.23a22.31,22.31,0,0,0,3.85-4.65M249,65.12c.25-2.12.37-4.33.45-6.65l1.33-.54ZM238.4,53.87l-.64,1.36-2-.07Zm-7.23,17.7a1.12,1.12,0,0,1,0,.14l-.47,0a5,5,0,0,1-1.34-.17Zm-5.84-18.51a5.49,5.49,0,0,1,1.29-.08,5,5,0,0,1,3.68,2h-.09v1.27l-1.22,0,0,3.25-3.55-.13-.08,8.52a16.43,16.43,0,0,1-1.5-7.25,18.45,18.45,0,0,1,1.52-7.53M209.46,82.29l-2,.05V78.73a24,24,0,0,0,2,3.56M201,67.48h3.54a37.63,37.63,0,0,0,.58,4.23l-11.52.17V70.6H201Zm-29.9-15.83.27,20.06-3-19.84ZM149.73,83.88l-5.21.14,3.75-14.44Zm-28.08.75-5.14.14.76-13.54Zm-20,40.67.09-1.4.6,1.33-.7.08m164.8-20.15-.7,2.13a7.53,7.53,0,0,1-1-.75l-.31-.29-.56,1.7.14-4.71a4.34,4.34,0,0,0,2.38,1.92"/><path class="cls-3" d="M271.64,37.56l-11.77-1.22-.33,1.32-.9-.1L257.81,41l-2.74-.29-1.44,5.82-6-.52A20.94,20.94,0,0,0,231.1,32.51a17.29,17.29,0,0,0-15,5.66,19.14,19.14,0,0,0-1.41,1.43c-4,2.67-7.19,7.17-8.89,13.26V51.7l-12.33-.53v-1l8.65.51V47.39l3.58.21V46.3l1.23.07V30.85l-31.27-3.24V29l-1.24-.13,0,2.85-9.44-1.3-.6-3.94-21-2.18-.31,1.33-.92-.1-.79,3.41-2.8-.29L133.4,51.22l-7.75-28.8L99.78,19.74l-.15,1.34L98.56,21l-.4,3.45L95,24.08,94.52,28a31.52,31.52,0,0,0-30.62-5.72l-7.14-4.54q1.82.94,3.63,2c.86-.33,1.74-.64,2.63-.9l.68.24-.49-.29A84.46,84.46,0,0,0,54.28,14c-17.57-8-34.68-7.88-44.41,1.9C5.35,20.46,3,26.61,2.48,33.63a40.84,40.84,0,0,0,0,6A56.79,56.79,0,0,0,5.77,54.22a76.38,76.38,0,0,0,4.68,10.5A97.1,97.1,0,0,0,27.63,87.56c12.9,12.82,28,21.4,42,24.09a48.22,48.22,0,0,0,8.8.9,70.78,70.78,0,0,1-8-3.1,93.62,93.62,0,0,1-26.6-18.71A100.07,100.07,0,0,1,33.18,78.15q-1-1.37-1.89-2.73c-10.38-15.58-14.4-32-10.65-43.8a39.26,39.26,0,0,1,13.51,7.76c-.08.36-.16.72-.24,1.08a36.06,36.06,0,0,0-.9,7.76c0,1,0,1.85.11,2.71l.08.64,0,.26a28.47,28.47,0,0,0,.92,5,19.26,19.26,0,0,0,2.55,5.66l.38.55.07.09.2.27a11.1,11.1,0,0,0,1.2,1.33C35.84,59.51,35,51,36.3,41.34l.44.42a46.23,46.23,0,0,1,3.7,4.15c.07-.71.18-1.41.29-2.1l2.39,2.76A31.54,31.54,0,0,0,74.19,83.65a31.42,31.42,0,0,0,14.4-3.48L88,85.34a53.94,53.94,0,0,1-15.41,2.93,54.87,54.87,0,0,1-10.19-.49,31.48,31.48,0,0,0,20.41,4.3,28.43,28.43,0,0,0,4.51-.81l-.74,6.54,9.68-.57-.06,1.14-5.63.32-.15,1.07-.88,0-.3,2.18-2,.11L84,124.46a171,171,0,0,1-28.5-7c-4.34-1.44-8.49-3-12.42-4.6a99.37,99.37,0,0,0,24.21,10.67,91.39,91.39,0,0,0,12.13,2.91c1.5.24,2.87.43,4.2.57h0l-1.6,11.43,15.64-2.1.13-2,2.22-.3.06-1,1-.13.44-6.8.61-.2.13,0,.29-.1,4.25,9.33,8.59-1.15.67-2.07,1.68-.22.33-1,.69-.09,3.4-10.48,1.93,12.72,13-1.74-.44-1.92,2.8-.37-.22-1,1.25-.17L138.72,120l2.44-.33.37,10.83,12.34-1.65-.05-2,2.41-.32,0-1,1.06-.14-.21-7.89,2-.27.27,10.85,20.29-2.72,0-2,2.38-.32,0-1,.46-.06,0,3,18-2.41v-2l2.35-.32v-1l.24,0v3l8.93-1.2v-2l2.35-.31v-1l1-.14,0-7.17c1,6.51,6.2,9.69,12.23,8.87a13.44,13.44,0,0,0,8.77-4.92,12.94,12.94,0,0,0,2.28-2.19,13.44,13.44,0,0,0,3.21-5l-.2,9.82,6.75-.9,0-2,2.31-.31,0-1,1-.13,0-2,2.31,4.61,6.22-.84.06-2,2-.26-.12.35a11.33,11.33,0,0,0,6.44,1.12,8.35,8.35,0,0,0,5.73-3.56,8.39,8.39,0,0,0,2.1-1.94,8.8,8.8,0,0,0,2.83-6.33c.14-3.57-1.56-5.16-4-5.68l-.43-.09.27-.85a6.62,6.62,0,0,1,1.34.91l.49-1.54a6.67,6.67,0,0,1,.54.42l1.77-5.58A7.26,7.26,0,0,0,274.31,88a7.9,7.9,0,0,0-5.73,3.16,8.74,8.74,0,0,0-1.28,1.47,8.34,8.34,0,0,0-.73.54l1.5-6,7.09-.42-.53-2.88,4.12-.24-.21-1.14L280,82.4Zm-250.23-8c-.74-.23-1.48-.44-2.21-.61-.28.69-.52,1.4-.74,2.12-3.66,11.89-.12,27.9,9.43,43.29.65,1,1.31,2.07,2,3.1a102.61,102.61,0,0,0,29.93,28.89,91.45,91.45,0,0,1-30.58-20.4A99,99,0,0,1,16.4,70.29q-2.29-3.48-4.16-7c-5.35-10.06-8-20.11-7.59-28.73A33,33,0,0,1,5,31a24,24,0,0,1,6.5-13.46c7.67-7.72,20.38-8.86,34.22-4.43q2.5.81,5.05,1.85l-1.6,2.21c-14.4-6.08-27.91-5.94-35.44,1.79-3.58,3.67-5.4,8.66-5.65,14.41,0,.55,0,1.11,0,1.68,0,.31,0,.62,0,.93a19.22,19.22,0,0,0,.46,4.72,29,29,0,0,0,1.73,5.23c0,.28,0,.55,0,.83,0,6.81,8,19.58,14.46,28.87C16.42,62.55,12.64,49.17,14.44,38.25l1.17-7.13-3.32,6.42a17.51,17.51,0,0,0-1.43,3.88,34.32,34.32,0,0,1-.67-7.21,8.34,8.34,0,0,1,2.09-4.08c4.51-4.63,14.23-2.8,23.52,3.8-.37,1-.7,2-1,3A40.75,40.75,0,0,0,21.42,29.52ZM264.06,81.81l.16,1.15-4.12-.32.12-.69Zm-18.81-5.25A23.49,23.49,0,0,0,247,73.1L245,81.49l-1.37-.11-2.43.07.22-.23A22.31,22.31,0,0,0,245.25,76.57ZM249,65.12c.25-2.12.37-4.33.45-6.65l1.33-.54ZM238.4,53.87l-.64,1.36-2-.07Zm-7.23,17.7a1.12,1.12,0,0,1,0,.14l-.47,0a5,5,0,0,1-1.34-.17Zm-5.84-18.51a5.49,5.49,0,0,1,1.29-.08,5,5,0,0,1,3.68,2h-.09v1.27l-1.22,0,0,3.25-3.55-.13-.08,8.52a16.43,16.43,0,0,1-1.5-7.25A18.45,18.45,0,0,1,225.32,53.06ZM209.46,82.29l-2,.05V78.73A24,24,0,0,0,209.46,82.29ZM201,67.48h3.54a37.63,37.63,0,0,0,.58,4.23l-11.52.17V70.6H201Zm-29.9-15.83.27,20.06-3-19.84ZM149.73,83.88l-5.21.14,3.75-14.44Zm-28.08.75-5.14.14.76-13.54Zm-20,40.67.09-1.4.6,1.33Zm164.8-20.15-.7,2.13a7.53,7.53,0,0,1-1-.75l-.31-.29-.56,1.7.14-4.71A4.34,4.34,0,0,0,266.41,105.15Z"/><path class="cls-2" d="M24.71,75.61A98.58,98.58,0,0,0,33,86.78S29.19,82,24.71,75.61"/><path class="cls-3" d="M24.71,75.61A98.58,98.58,0,0,0,33,86.78S29.19,82,24.71,75.61Z"/><polygon class="cls-2" points="281 89.77 281.69 89.77 281.69 91.57 282.38 91.57 282.38 89.77 283.09 89.77 283.09 89.21 281 89.21 281 89.77"/><polygon class="cls-3" points="281 89.77 281.69 89.77 281.69 91.57 282.38 91.57 282.38 89.77 283.09 89.77 283.09 89.21 281 89.21 281 89.77"/><polygon class="cls-2" points="285.13 89.21 284.7 90.57 284.28 89.21 283.3 89.21 283.3 91.57 283.92 91.57 283.92 89.88 284.44 91.57 284.97 91.57 285.48 89.88 285.48 91.57 286.11 91.57 286.11 89.21 285.13 89.21"/><polygon class="cls-3" points="285.13 89.21 284.7 90.57 284.28 89.21 283.3 89.21 283.3 91.57 283.92 91.57 283.92 89.88 284.44 91.57 284.97 91.57 285.48 89.88 285.48 91.57 286.11 91.57 286.11 89.21 285.13 89.21"/><path class="cls-4" d="M55.54,117.49c-4.34-1.44-8.49-3-12.42-4.6a99.39,99.39,0,0,0,24.21,10.67,91.55,91.55,0,0,0,12.13,2.91c1.5.24,2.87.43,4.2.57l1,.08.4,0a61.84,61.84,0,0,0,7.69.3,32.83,32.83,0,0,0,8.61-1.22l.82-.27.13,0,.41-.13a12.46,12.46,0,0,0,2-.91c-10.09,1.93-28.78-.64-49.13-7.39"/><path class="cls-5" d="M95,24.08l25.86,2.68,9.92,36.84h.57a79.61,79.61,0,0,1,1.27-8.89l6.05-26.11,21,2.18L169.19,93,150.76,94l-3.55-34.88h-.38a60.08,60.08,0,0,1-1.2,6.43L138,94.79l-12.83.75-9.35-28.59A51.71,51.71,0,0,1,114,58.2l-.8,0c-.07,2.8-.14,5.68-.29,8.47l-1.66,29.72L86.58,97.81Z"/><polygon class="cls-5" points="170.87 31.96 202.14 35.2 202.15 50.72 188.66 49.93 188.7 55.52 201.03 56.05 201.04 70.61 188.79 70.6 188.82 76.24 202.6 76.03 202.61 91.01 171.69 92.82 170.87 31.96"/><path class="cls-5" d="M244.73,60c-.22,8-.34,14.62-4.3,20.91-3.63,5.8-9.26,9.21-14.77,9.54a17.76,17.76,0,0,1-14.72-6.25c-4-4.56-6.52-11.48-6.52-20.35,0-18.23,9.83-28.29,21.86-27a20.89,20.89,0,0,1,16.91,14.68l-11.67,5.68c-1-2.64-2.8-4.11-4.92-4.23-4.82-.27-7.58,5.53-7.62,12,0,5.82,2.52,11.23,6.86,11.15a5.56,5.56,0,0,0,5.31-4.52l-5.9,0,.12-12.27Z"/><path class="cls-5" d="M258.31,71.08l2.28-14.15.39,0c.15,2,.29,4,.54,6l1,8.13Zm-2.18,11,7.92-.31.78,5.54,10.32-.61-8.31-44.84-11.77-1.22L243.2,88.63l11.93-.7Z"/><polygon class="cls-5" points="140.46 99.1 153.04 98.39 153.88 128.85 141.53 130.51 140.46 99.1"/><polygon class="cls-5" points="158.62 98.08 170.11 97.43 170.48 117.34 179.52 116.35 179.64 125.41 159.35 128.13 158.62 98.08"/><polygon class="cls-5" points="182.14 96.75 192.31 96.18 192.43 114.94 200.46 114.06 200.48 122.61 182.48 125.02 182.14 96.75"/><polygon class="cls-5" points="203.06 95.56 212.11 95.05 212 121.06 203.07 122.26 203.06 95.56"/><path class="cls-5" d="M227.85,102c2.51-.21,4,1.86,4,4.46,0,2.79-1.72,4.88-4.1,5.15s-4.11-1.5-4.08-4.36c0-2.67,1.65-5,4.21-5.25m.1-8.24c-6.83.38-12.7,6-12.74,14.16s5.64,12.36,12.42,11.44c6.5-.88,11.67-6.12,11.82-13.76S234.51,93.4,228,93.76"/><path class="cls-5" d="M242.18,93.36,249,93l5.79,12.33.2,0a41.3,41.3,0,0,1-.4-5.75l.18-6.88,6.28-.36-.67,22.29-6.22.83-5.68-11.33-.2,0a32.35,32.35,0,0,1,.32,4.6l-.18,7.48-6.75.91Z"/><path class="cls-5" d="M264.45,106.25l.3.28a4.9,4.9,0,0,0,3.75,1.57,1.67,1.67,0,0,0,1.58-1.46c0-1-.75-1-1.29-1.06l-1.21-.16c-2.37-.3-4.36-1.94-4.25-5.4.16-5.28,4-8.45,7.6-8.65A7.26,7.26,0,0,1,276,93l-1.77,5.58a4.69,4.69,0,0,0-3.37-1.36,1.34,1.34,0,0,0-1.33,1.25c0,.81.71.86,1.17,1l1.33.29c2.45.52,4.16,2.11,4,5.68a8.51,8.51,0,0,1-7.27,8.41,11.29,11.29,0,0,1-6.44-1.12Z"/><path class="cls-5" d="M87.18,102.11l16.48-.93,6.69,17.54.38,0a33,33,0,0,1,.8-4.57l3.92-13.6,14.4-.81,7.26,31.4-13,1.74-2.68-17.61-.26,0a25.19,25.19,0,0,1-.78,3.36l-5,15.4-8.59,1.15-6.24-13.7a18.91,18.91,0,0,1-1.21-4.21l-.51,0c0,1.39-.07,2.82-.16,4.21l-1,14.87-15.64,2.1Z"/><path class="cls-2" d="M98.56,21l25.86,2.68,9.92,36.84h.57a79.83,79.83,0,0,1,1.27-8.9l6.05-26.11,21,2.18,9.55,62.17-18.43,1.08L150.79,56h-.38a61.21,61.21,0,0,1-1.2,6.43l-7.59,29.21-12.83.75-9.35-28.59a52.17,52.17,0,0,1-1.82-8.75l-.8,0c-.07,2.8-.13,5.68-.29,8.47l-1.66,29.71L90.16,94.69Z"/><polygon class="cls-2" points="174.45 28.83 205.72 32.07 205.73 47.59 192.25 46.81 192.28 52.4 204.61 52.92 204.63 67.48 192.38 67.48 192.41 73.12 206.19 72.91 206.19 87.88 175.28 89.69 174.45 28.83"/><path class="cls-2" d="M248.32,56.89c-.22,8-.34,14.62-4.3,20.91-3.63,5.8-9.26,9.21-14.77,9.54a17.77,17.77,0,0,1-14.72-6.25c-4-4.57-6.51-11.49-6.51-20.35,0-18.23,9.83-28.29,21.86-27a20.88,20.88,0,0,1,16.91,14.69L235.11,54.1c-1-2.64-2.8-4.12-4.92-4.23-4.82-.27-7.58,5.53-7.62,12,0,5.82,2.52,11.23,6.86,11.15a5.56,5.56,0,0,0,5.31-4.52h-5.9L229,56.19Z"/><path class="cls-2" d="M261.89,68l2.28-14.15.39,0c.15,2,.28,4,.54,6l1,8.13Zm-2.17,11,7.93-.31.78,5.55,10.31-.61-8.31-44.84-11.77-1.22L246.79,85.5l11.93-.7Z"/><path class="cls-6" d="M99.78,19.74l25.86,2.68,9.92,36.84h.57a81.23,81.23,0,0,1,1.27-8.89l6.06-26.1,21,2.18L174,88.62,155.58,89.7,152,54.82h-.38a61.07,61.07,0,0,1-1.2,6.43l-7.59,29.2L130,91.19,120.68,62.6a52.28,52.28,0,0,1-1.82-8.75l-.79,0c-.07,2.8-.13,5.68-.3,8.47L116.11,92,91.39,93.46Z"/><polygon class="cls-6" points="175.68 27.6 206.95 30.85 206.96 46.37 193.47 45.58 193.51 51.17 205.84 51.7 205.85 66.26 193.6 66.25 193.64 71.89 207.41 71.68 207.42 86.66 176.51 88.47 175.68 27.6"/><path class="cls-6" d="M249.55,55.66c-.23,8-.35,14.62-4.3,20.91-3.63,5.8-9.26,9.21-14.77,9.54a17.75,17.75,0,0,1-14.72-6.25c-4-4.56-6.52-11.49-6.51-20.35,0-18.23,9.83-28.29,21.86-27A20.88,20.88,0,0,1,248,47.19l-11.67,5.68c-1-2.64-2.79-4.12-4.91-4.23-4.82-.27-7.58,5.53-7.62,12,0,5.82,2.52,11.23,6.86,11.15A5.56,5.56,0,0,0,236,67.22h-5.9L230.19,55Z"/><path class="cls-6" d="M263.12,66.73l2.28-14.15.39,0c.15,2,.29,4,.54,6l1,8.13Zm-2.17,11,7.92-.31.78,5.55L280,82.4l-8.32-44.84-11.77-1.22L248,84.28l11.93-.7Z"/><path class="cls-2" d="M42.63,52.1A31.55,31.55,0,1,0,74.19,20.55,31.55,31.55,0,0,0,42.63,52.1"/><circle class="cls-7" cx="74.19" cy="52.1" r="31.55"/><path class="cls-4" d="M2.48,33.63c.47-7,2.87-13.16,7.4-17.72C19.6,6.13,36.71,6.06,54.28,14a85,85,0,0,1,8.93,4.74l.49.29L63,18.81c-.89.26-1.77.56-2.63.9-2.29-1.33-4.59-2.52-6.88-3.57a69.6,69.6,0,0,0-7.8-3C31.88,8.67,19.17,9.81,11.5,17.53A24,24,0,0,0,5,31a32.54,32.54,0,0,0-.36,3.58c-.42,8.62,2.24,18.67,7.59,28.73q1.87,3.51,4.16,7A99,99,0,0,0,29.25,85.93a91.44,91.44,0,0,0,30.58,20.4A102.62,102.62,0,0,1,29.9,77.44c-.7-1-1.36-2.07-2-3.11C18.34,58.94,14.81,42.93,18.47,31c.22-.72.47-1.43.74-2.12.73.17,1.47.37,2.21.61A42.72,42.72,0,0,1,38.35,40.14q1.34,1.34,2.55,2.73-.3,1.5-.46,3a46.15,46.15,0,0,0-3.7-4.15,40.77,40.77,0,0,0-16.1-10.14c-3.74,11.83.28,28.22,10.65,43.8q.91,1.36,1.89,2.73A99.93,99.93,0,0,0,43.91,90.72a93.63,93.63,0,0,0,26.6,18.71,71.14,71.14,0,0,0,8,3.1,48.07,48.07,0,0,1-8.8-.9c-14-2.69-29.14-11.26-42-24.08A97.1,97.1,0,0,1,10.45,64.72a76.48,76.48,0,0,1-4.68-10.5A56.84,56.84,0,0,1,2.53,39.64a40.73,40.73,0,0,1,0-6"/><path class="cls-4" d="M8.07,33.35c.25-5.75,2.07-10.73,5.65-14.41,8.51-8.73,24.64-7.77,41.08.89l1,.51c-.74.41-12.62,5.2-14.88,17.76-10.6-9.86-23.27-13.47-28.62-8a8.33,8.33,0,0,0-2.09,4.08A38.16,38.16,0,0,0,11.7,45a57.27,57.27,0,0,0,3.37,9.11A36.58,36.58,0,0,1,8.54,40.68,19.17,19.17,0,0,1,8.07,36c0-.31,0-.62,0-.93,0-.57,0-1.13,0-1.69"/><path class="cls-6" d="M12.29,37.53l3.32-6.42-1.17,7.13C12.13,52.32,19.06,70.47,33,86.78c0,0-22.73-28.53-22.73-40a19.88,19.88,0,0,1,2-9.21"/><path class="cls-4" d="M72.58,88.27a54.87,54.87,0,0,1-10.19-.49,31.49,31.49,0,0,0,20.41,4.3,27.84,27.84,0,0,0,9.43-2.62,26.27,26.27,0,0,0,3.12-1.76l.72-.51.29-.21a32.12,32.12,0,0,0,11.08-13l.49-1.07.07-.18.25-.54a29.1,29.1,0,0,0,1.07-3.14C102.91,79.78,89,87.55,72.58,88.27"/><path class="cls-6" d="M37.94,33.07a74.17,74.17,0,0,1,2.48-7.87,39.74,39.74,0,0,0-6.5,15.27,36.06,36.06,0,0,0-.9,7.76c0,1,0,1.85.11,2.71l.08.64,0,.26a28.65,28.65,0,0,0,.92,5,19.21,19.21,0,0,0,2.55,5.66l.38.55.07.09.2.27a11.1,11.1,0,0,0,1.2,1.33c-3.47-6.66-3.94-18.7-.62-31.64"/><polygon class="cls-2" points="142.81 96.81 155.4 96.1 156.23 126.56 143.89 128.22 142.81 96.81"/><polygon class="cls-2" points="160.97 95.78 172.47 95.14 172.84 115.05 181.87 114.06 182 123.11 161.71 125.83 160.97 95.78"/><polygon class="cls-2" points="184.5 94.45 194.67 93.88 194.79 112.65 202.82 111.77 202.83 120.32 184.84 122.73 184.5 94.45"/><polygon class="cls-2" points="205.41 93.27 214.46 92.76 214.35 118.77 205.43 119.97 205.41 93.27"/><path class="cls-2" d="M230.21,99.7c2.51-.2,4,1.86,4,4.46,0,2.79-1.72,4.88-4.1,5.14s-4.11-1.5-4.09-4.36c0-2.67,1.66-5,4.21-5.25m.1-8.24c-6.83.38-12.7,6-12.74,14.16S223.22,118,230,117.06c6.5-.87,11.67-6.12,11.82-13.76s-4.95-12.2-11.5-11.84"/><path class="cls-2" d="M244.53,91.06l6.85-.39L257.18,103l.2,0a41.47,41.47,0,0,1-.4-5.75l.19-6.88,6.28-.36-.68,22.29-6.21.83-5.68-11.33-.2,0a32,32,0,0,1,.32,4.6l-.18,7.47-6.75.91Z"/><path class="cls-2" d="M266.8,104l.3.29a4.9,4.9,0,0,0,3.75,1.56,1.66,1.66,0,0,0,1.58-1.46c0-1-.75-1-1.29-1.05l-1.21-.16c-2.38-.3-4.36-1.94-4.25-5.4.17-5.28,4-8.44,7.6-8.65a7.29,7.29,0,0,1,5.06,1.59l-1.77,5.58a4.67,4.67,0,0,0-3.36-1.35,1.33,1.33,0,0,0-1.33,1.25c0,.8.71.86,1.17,1l1.33.29c2.45.52,4.15,2.1,4,5.68a8.51,8.51,0,0,1-7.27,8.42,11.26,11.26,0,0,1-6.44-1.12Z"/><path class="cls-2" d="M89.53,99.82,106,98.89l6.69,17.54.38,0a32.64,32.64,0,0,1,.8-4.57l3.92-13.6,14.4-.81,7.26,31.4-13,1.74-2.68-17.61-.26,0a25.34,25.34,0,0,1-.78,3.36l-5,15.39-8.59,1.15-6.25-13.7a19.13,19.13,0,0,1-1.21-4.21l-.51,0c0,1.39-.07,2.82-.16,4.21l-1,14.87-15.65,2.1Z"/><polygon class="cls-8" points="143.84 95.69 156.42 94.98 157.26 125.44 144.91 127.1 143.84 95.69"/><polygon class="cls-8" points="161.99 94.66 173.49 94.01 173.86 113.93 182.9 112.94 183.02 121.99 162.73 124.71 161.99 94.66"/><polygon class="cls-8" points="185.52 93.34 195.69 92.76 195.81 111.53 203.84 110.65 203.86 119.2 185.86 121.61 185.52 93.34"/><polygon class="cls-8" points="206.43 92.15 215.49 91.64 215.38 117.65 206.45 118.85 206.43 92.15"/><path class="cls-8" d="M245.56,89.94l6.85-.39,5.79,12.32.2,0a41.92,41.92,0,0,1-.4-5.75l.18-6.88,6.28-.35-.68,22.29-6.22.83-5.67-11.33-.21,0a31.3,31.3,0,0,1,.32,4.6l-.18,7.48-6.75.9Z"/><path class="cls-8" d="M267.82,102.84l.3.28a4.91,4.91,0,0,0,3.76,1.57,1.66,1.66,0,0,0,1.58-1.46c0-1-.75-1-1.29-1.05L271,102c-2.38-.3-4.37-1.93-4.26-5.39.17-5.28,4-8.45,7.6-8.65a7.27,7.27,0,0,1,5.06,1.59l-1.78,5.58a4.67,4.67,0,0,0-3.36-1.36A1.34,1.34,0,0,0,272.9,95c0,.81.71.86,1.17,1l1.33.28c2.46.52,4.16,2.11,4,5.68a8.51,8.51,0,0,1-7.27,8.42,11.23,11.23,0,0,1-6.43-1.13Z"/><path class="cls-8" d="M90.56,98.7,107,97.77l6.7,17.54.38,0a32.47,32.47,0,0,1,.8-4.56l3.92-13.61,14.4-.81,7.26,31.4-13,1.74-2.68-17.61-.26,0a24.55,24.55,0,0,1-.78,3.36l-5,15.4-8.59,1.15L104,118.05a19,19,0,0,1-1.21-4.21l-.51,0c0,1.39-.07,2.82-.17,4.21l-1,14.87-15.64,2.1Z"/><path class="cls-8" d="M231.34,90.35c-6.83.38-12.7,6-12.74,14.16s5.65,12.36,12.42,11.44c6.5-.88,11.67-6.12,11.82-13.76S237.89,90,231.34,90.35"/><polygon class="cls-2" points="230.36 100.51 232.32 93.81 234.52 100.18 240.1 99.72 235.79 103.88 237.72 109.66 232.74 106.75 226.91 112.32 229.12 104.76 222.68 101.07 230.36 100.51"/><path class="cls-2" d="M281,89.77v-.56h2.09v.56h-.71v1.8h-.69v-1.8Zm3.28-.56.43,1.35.43-1.35h1v2.36h-.62V89.88L285,91.57h-.53l-.52-1.69v1.69h-.62V89.21Z"/><path class="cls-9" d="M281,89.77v-.56h2.09v.56h-.71v1.8h-.69v-1.8Zm3.28-.56.43,1.35.43-1.35h1v2.36h-.62V89.88L285,91.57h-.53l-.52-1.69v1.69h-.62V89.21Z"/><path class="cls-8" d="M281,89.77v-.56h2.09v.56h-.71v1.8h-.69v-1.8Zm3.28-.56.43,1.35.43-1.35h1v2.36h-.62V89.88L285,91.57h-.53l-.52-1.69v1.69h-.62V89.21Z"/><g class="cls-10"><rect class="cls-11" x="34.86" y="15.14" width="78.56" height="76.5" transform="translate(-8.14 13.69) rotate(-10)"/></g><circle class="cls-12" cx="74.14" cy="52.12" r="31.55" transform="matrix(0.98, -0.17, 0.17, 0.98, -7.92, 13.67)"/><path class="cls-4" d="M57,75.12c-.89-.16-2.12-.48-2.12-.48a43.05,43.05,0,0,1-5.76-13.53l2-.36a50.1,50.1,0,0,0,4.76,12.52s.85.19,1.26.24l1.3.16,1,1.74s-1.51-.13-2.45-.29"/><path class="cls-13" d="M57,75.12c-.89-.16-2.12-.48-2.12-.48a43.05,43.05,0,0,1-5.76-13.53l2-.36a50.1,50.1,0,0,0,4.76,12.52s.85.19,1.26.24l1.3.16,1,1.74S57.94,75.29,57,75.12Z"/><path class="cls-4" d="M65.62,72.53c.95,3-.72,3.17-1.6,3.35a5.5,5.5,0,0,1-5.45-2.29,31.13,31.13,0,0,1-3.44-8c-1.13-3.5-.7-5.68,2.2-6.16,2.51-.42,4.72,1,5.6,4.39.73,2.76,2,6.38,2.68,8.67m-5,.14c.35.76.92,1.45,1.66,1.32s.11-1.08-.14-1.64a77.73,77.73,0,0,1-2.9-8.56c-.21-.79-.63-1.32-1.25-1.24s-.56,1-.38,1.62a89,89,0,0,0,3,8.52"/><path class="cls-13" d="M65.62,72.53c.95,3-.72,3.17-1.6,3.35a5.5,5.5,0,0,1-5.45-2.29,31.13,31.13,0,0,1-3.44-8c-1.13-3.5-.7-5.68,2.2-6.16,2.51-.42,4.72,1,5.6,4.39C63.67,66.62,64.89,70.25,65.62,72.53Zm-5,.14c.35.76.92,1.45,1.66,1.32s.11-1.08-.14-1.64a77.73,77.73,0,0,1-2.9-8.56c-.21-.79-.63-1.32-1.25-1.24s-.56,1-.38,1.62A89,89,0,0,0,60.67,72.68Z"/><path class="cls-4" d="M87.07,72.58c-1.58.46-3.56.92-3.56.92s-.54-5.33-.9-8.21-1.44-9.43-1.44-9.43,2.66-.5,4-.78,4.2-.77,4.2-.77l.44,3-4.07.87s.24,1.35.33,2.19.25,1.9.25,1.9l1.81-.41,1.92-.46.24,2.72s-1.14.38-1.93.58l-1.8.47s.19,1.91.22,2.82.17,2.37.17,2.37l3.49-1v2a33.09,33.09,0,0,1-3.38,1.23"/><path class="cls-13" d="M87.07,72.58c-1.58.46-3.56.92-3.56.92s-.54-5.33-.9-8.21-1.44-9.43-1.44-9.43,2.66-.5,4-.78,4.2-.77,4.2-.77l.44,3-4.07.87s.24,1.35.33,2.19.25,1.9.25,1.9l1.81-.41,1.92-.46.24,2.72s-1.14.38-1.93.58l-1.8.47s.19,1.91.22,2.82.17,2.37.17,2.37l3.49-1v2A33.09,33.09,0,0,1,87.07,72.58Z"/><path class="cls-4" d="M90.93,71.17a75.24,75.24,0,0,0,0-8.05c-.25-4.1-.93-9-.93-9l3.81-.67c1.83-.29,3.68-.65,4.13,2.22.23,1.48.36,4.64-1.57,5.41v.05c1.33-.2,1.73.68,1.69,1.68L97.77,66a7.46,7.46,0,0,0,0,2l-2.27,1.25a8.25,8.25,0,0,1-.1-3s.1-1,.09-2.23c0-.79-.32-1-.73-.9l-.62.11s0,3.1-.09,4.18L93.8,70ZM94,58.52c0,.75.15,2.28.15,2.28,1-.18,1.55-1,1.35-2.67-.16-1.4-.14-2.16-1.67-1.86,0,0,.12,1.5.16,2.25"/><path class="cls-13" d="M90.93,71.17a75.24,75.24,0,0,0,0-8.05c-.25-4.1-.93-9-.93-9l3.81-.67c1.83-.29,3.68-.65,4.13,2.22.23,1.48.36,4.64-1.57,5.41v.05c1.33-.2,1.73.68,1.69,1.68L97.77,66a7.46,7.46,0,0,0,0,2l-2.27,1.25a8.25,8.25,0,0,1-.1-3s.1-1,.09-2.23c0-.79-.32-1-.73-.9l-.62.11s0,3.1-.09,4.18L93.8,70ZM94,58.52c0,.75.15,2.28.15,2.28,1-.18,1.55-1,1.35-2.67-.16-1.4-.14-2.16-1.67-1.86C93.83,56.26,93.94,57.76,94,58.52Z"/><path class="cls-4" d="M99.34,64.62c.08-.73.24-2.23.24-2.23s-.52-3.37-.95-5.27c-.3-1.37-1.17-4.41-1.17-4.41l2.27-.48s.43,2.17.58,3.14c.13.8.41,2.81.41,2.81h0s.23-2.25.27-3,.09-3.3.09-3.3l1.55-.33s-.31,4.21-.46,5.49c-.17,1.43-.88,4.63-.88,4.63s-.28,2-.38,2.5-.41,2-.41,2L99,67.29s.3-2,.38-2.68"/><path class="cls-13" d="M99.34,64.62c.08-.73.24-2.23.24-2.23s-.52-3.37-.95-5.27c-.3-1.37-1.17-4.41-1.17-4.41l2.27-.48s.43,2.17.58,3.14c.13.8.41,2.81.41,2.81h0s.23-2.25.27-3,.09-3.3.09-3.3l1.55-.33s-.31,4.21-.46,5.49c-.17,1.43-.88,4.63-.88,4.63s-.28,2-.38,2.5-.41,2-.41,2L99,67.29S99.27,65.34,99.34,64.62Z"/><path class="cls-2" d="M71.73,28.29,73.36,28c.51-.07,1.45-.16,1.45-.16s1.16,2.17,1.51,2.94,1.43,2.92,1.43,2.92h0L77,30.79l-.75-3,1.67-.11s1,3.11,1.38,4.51,1.2,4.65,1.2,4.65l-3.19.42s-.88-2.08-1.6-3.67l-1.91-4.2h0s.66,3.2.89,4.24c.31,1.37.72,3.83.72,3.83l-2,.35Z"/><path class="cls-2" d="M83.47,36.68c-.84,0-2.34.19-2.34.19s-.8-3-1.24-4.62-1.4-4.53-1.4-4.53,1.3-.09,2.21-.1,2.15.12,2.15.12l.41,1.06s-.74-.05-1.08-.05H81.08s.19.6.3.92.23.75.23.75.8,0,1.26,0,1,.06,1,.06l.43,1.3H83.24c-.38,0-1.09,0-1.09,0s.31,1.06.5,1.7.4,1.46.4,1.46,1-.1,1.38-.1h1.12l.38,1.61s-1.62.12-2.46.15"/><path class="cls-2" d="M85.34,32.1C84.77,31,83,27.77,83,27.77s.52,0,1,0,1,.1,1,.1S86.2,30.15,86.6,31l1.15,2.37h0s-.56-2-.81-2.73S86.14,28,86.14,28s.55.06,1,.13,1,.19,1,.19,1.31,2.42,1.77,3.27,1,2,1,2h0s-.49-1.59-.75-2.28S89,28.42,89,28.42l.76.17.69.16s1.16,2.73,1.65,4.21,1.16,3.83,1.16,3.83-.56-.08-1-.11-1.06,0-1.06,0L89.64,33.2C89.08,32,87.87,30,87.87,30h0s.74,2.38,1.07,3.52.86,3.13.86,3.13-.64-.07-1.21-.07a11.26,11.26,0,0,0-1.14.06s-1.53-3.34-2.1-4.49"/><polygon class="cls-2" points="77.79 47.63 73.96 39.88 76.69 39.44 78.73 44.34 78.75 44.34 78.71 39.2 81.42 38.93 80.75 47.1 81.69 52.45 78.81 52.96 77.79 47.63"/><path class="cls-2" d="M89.8,48.22a2.87,2.87,0,0,1-2.36,3.6A3.47,3.47,0,0,1,83.23,49c-.39-2.2-1.07-5.79-1.43-7.53A2.51,2.51,0,0,1,84,38.4a3.93,3.93,0,0,1,4.47,3.2c.4,1.8,1,4.46,1.37,6.62M86,48.75c.1.57.42.94.84.86s.58-.47.5-.94c-.13-.73-.87-4.48-1.58-7.5-.15-.62-.48-.89-.89-.81s-.51.34-.4.83c.5,2.15,1.19,5.61,1.53,7.55"/><path class="cls-2" d="M90.87,51s-.78-4.36-1.15-6.14-1.63-6.37-1.63-6.37l3.15,0c1.45.07,2.55.8,3,3.09.12.59.28,1.86-.76,2.24v0c1-.14,1.67.94,1.91,2.29l.37,2.32a7.66,7.66,0,0,0,.55,1.73l-1.94.28a5.39,5.39,0,0,1-.52-1.61l-.63-3.13A1,1,0,0,0,92,44.82s.45,2.19.67,3.22.42,2.52.42,2.52Zm.44-9.21c.14.6.27,1.29.27,1.29.71-.13.94-.17.79-1.17-.2-1.26-.71-1.94-1.53-1.78,0,0,.34,1.06.48,1.67"/><path class="cls-2" d="M96.61,50.08s-.78-4.09-1.16-5.89-1.59-5.67-1.59-5.67l1.79.15s.53,1.81.73,2.54.59,2.07.59,2.07h0s-.05-1.5-.1-2.07-.22-2.41-.22-2.41L98,39s.22,1.74.29,2.46.1,2,.1,2,.72,1.76,1.07,2.87,1.07,3.21,1.07,3.21l-1.37.14s-.57-1.68-.79-2.35-1.15-3.2-1.15-3.2h0s.45,2.39.62,3.25.44,2.47.44,2.47Z"/><path class="cls-14" d="M48.43,53.91c-.08-.43-.14-1-.17-1.39-.22.42-.43.81-.53,1,0,.89.09,1.8.21,2.72l.85-.22c-.08-.49-.27-1.62-.35-2.1"/><path class="cls-15" d="M48.43,53.91c-.08-.43-.14-1-.17-1.39-.22.42-.43.81-.53,1,0,.89.09,1.8.21,2.72l.85-.22C48.7,55.52,48.52,54.39,48.43,53.91Z"/><path class="cls-16" d="M63.79,36.64a16.92,16.92,0,0,0-4.57,3.43A20.53,20.53,0,0,1,62,41.76c1.44-1.59,3.32-3.4,4.72-3.68,1.11-.21,2.74.79,3.62,1.42-.22-1.47-.44-3.07-.66-4.67a21,21,0,0,0-5.88,1.81"/><path class="cls-17" d="M63.79,36.64a16.92,16.92,0,0,0-4.57,3.43A20.53,20.53,0,0,1,62,41.76c1.44-1.59,3.32-3.4,4.72-3.68,1.11-.21,2.74.79,3.62,1.42-.22-1.47-.44-3.07-.66-4.67A21,21,0,0,0,63.79,36.64Z"/><path class="cls-14" d="M60.16,48.66a18,18,0,0,1-1.49-1.14l.52,4.25c.05.4.14,1,.24,1.63l1.42-.3Z"/><path class="cls-15" d="M60.16,48.66a18,18,0,0,1-1.49-1.14l.52,4.25c.05.4.14,1,.24,1.63l1.42-.3Z"/><path class="cls-4" d="M52,43.22a.76.76,0,0,1,.37.12A21,21,0,0,1,59,35.52a23.56,23.56,0,0,1,10.18-4.27c-.19-1.37-.34-2.18-.34-2.18-4.51.88-13.71,3.73-18.55,13.49A24.15,24.15,0,0,0,48,49.42c.44-.93,1.3-2.71,1.8-3.52.79-1.28,1.62-2.57,2.15-2.68"/><path class="cls-13" d="M52,43.22a.76.76,0,0,1,.37.12A21,21,0,0,1,59,35.52a23.56,23.56,0,0,1,10.18-4.27c-.19-1.37-.34-2.18-.34-2.18-4.51.88-13.71,3.73-18.55,13.49A24.15,24.15,0,0,0,48,49.42c.44-.93,1.3-2.71,1.8-3.52C50.6,44.62,51.43,43.33,52,43.22Z"/><path class="cls-18" d="M59.22,35.86a20.25,20.25,0,0,0-6.51,7.7c.45.27,1,.63,1.49,1l1.21-1.81c.41-.6,1.81-2.72,2.91-2.95a1,1,0,0,1,.49.08,17.72,17.72,0,0,1,4.82-3.62,21.75,21.75,0,0,1,6-1.89c-.14-1-.26-1.9-.37-2.72a23.12,23.12,0,0,0-10,4.2"/><path class="cls-14" d="M61.41,53l1.41-.28-.49-2.77A15.81,15.81,0,0,1,60.71,49Z"/><path class="cls-15" d="M61.41,53l1.41-.28-.49-2.77A15.81,15.81,0,0,1,60.71,49Z"/><path class="cls-14" d="M68.65,44.63l.52,2.94-.71.13-.71-4-.65-.34-.55.76.57,3.36-2.23.42-.35-2.07-.85-.56-.81,1.11.26,1.4-2.52.47A11,11,0,0,0,64.48,50a15.28,15.28,0,0,0,7.59-.22c-.3-1.69-.66-3.76-1-5.62Z"/><path class="cls-15" d="M68.65,44.63l.52,2.94-.71.13-.71-4-.65-.34-.55.76.57,3.36-2.23.42-.35-2.07-.85-.56-.81,1.11.26,1.4-2.52.47A11,11,0,0,0,64.48,50a15.28,15.28,0,0,0,7.59-.22c-.3-1.69-.66-3.76-1-5.62Z"/><path class="cls-14" d="M66.86,38.64c-1.46.15-4.22,3.23-5.5,4.65-.81.9-2,2.41-2.68,3.39.23.22.69.63,1.31,1.09l2.5-.52-.19-1,1.29-1.81,1.58,1,.29,1.75.88-.15-.43-3.14.88-1.16-.43-2.46.59-.1.45,2.58,1.05.64.15.64L71,43.63l-.35-2.14c-.06-.37-.12-.79-.19-1.24-.53-.44-2.26-1.75-3.59-1.61"/><path class="cls-15" d="M66.86,38.64c-1.46.15-4.22,3.23-5.5,4.65-.81.9-2,2.41-2.68,3.39.23.22.69.63,1.31,1.09l2.5-.52-.19-1,1.29-1.81,1.58,1,.29,1.75.88-.15-.43-3.14.88-1.16-.43-2.46.59-.1.45,2.58,1.05.64.15.64L71,43.63l-.35-2.14c-.06-.37-.12-.79-.19-1.24C69.92,39.81,68.19,38.51,66.86,38.64Z"/><path class="cls-14" d="M64.3,50.66A9.92,9.92,0,0,1,63,50.21l.42,2.38c3.71-.73,7.84-1.5,8.87-1.69,0-.16-.06-.31-.08-.47a17.32,17.32,0,0,1-7.87.24"/><path class="cls-15" d="M64.3,50.66A9.92,9.92,0,0,1,63,50.21l.42,2.38c3.71-.73,7.84-1.5,8.87-1.69,0-.16-.06-.31-.08-.47A17.32,17.32,0,0,1,64.3,50.66Z"/><path class="cls-14" d="M48,56.71q.09.64.2,1.28l2-.41-.25-1.35L48,56.71"/><path class="cls-15" d="M48,56.71q.09.64.2,1.28l2-.41-.25-1.35Z"/><path class="cls-14" d="M61.59,42.21c-.64-.49-2.69-2-3.29-1.88-.79.15-1.84,1.69-2.28,2.32s-1.22,1.76-1.49,2.16l.39.28c.83.6,2.85,2,2.85,2s2-2.7,3.2-4.16l.62-.72"/><path class="cls-15" d="M61.59,42.21c-.64-.49-2.69-2-3.29-1.88-.79.15-1.84,1.69-2.28,2.32s-1.22,1.76-1.49,2.16l.39.28c.83.6,2.85,2,2.85,2s2-2.7,3.2-4.16Z"/><path class="cls-14" d="M50.54,57.51c2.25-.47,5.75-1.19,8.74-1.79L59,54.09c-2.66.58-6.33,1.46-8.74,2.05l.25,1.36"/><path class="cls-15" d="M50.54,57.51c2.25-.47,5.75-1.19,8.74-1.79L59,54.09c-2.66.58-6.33,1.46-8.74,2.05Z"/><path class="cls-14" d="M50.67,52.94l-.27-2.19a7.64,7.64,0,0,1-1-.88c0,.53.24,2.6.45,4,.06.41.19,1.12.31,1.82l.85-.22c-.1-.63-.31-1.87-.38-2.48"/><path class="cls-15" d="M50.67,52.94l-.27-2.19a7.64,7.64,0,0,1-1-.88c0,.53.24,2.6.45,4,.06.41.19,1.12.31,1.82l.85-.22C50.95,54.79,50.74,53.54,50.67,52.94Z"/><path class="cls-14" d="M57.29,51.58c.08.53.25,1.68.34,2.21l1.31-.29c-.12-.74-.24-1.49-.33-2-.19-1.08-.43-3.12-.53-4-.06.09-.72,1-1.16,1.48.07.5.28,2,.36,2.6"/><path class="cls-15" d="M57.29,51.58c.08.53.25,1.68.34,2.21l1.31-.29c-.12-.74-.24-1.49-.33-2-.19-1.08-.43-3.12-.53-4-.06.09-.72,1-1.16,1.48C57,49.47,57.21,51,57.29,51.58Z"/><path class="cls-14" d="M72.37,51.55c-1.46.26-8.95,1.62-12.85,2.44.11.7.22,1.35.27,1.63l2.85-.56c4.65-.89,10-1.86,10-1.86l-.3-1.65"/><path class="cls-15" d="M72.37,51.55c-1.46.26-8.95,1.62-12.85,2.44.11.7.22,1.35.27,1.63l2.85-.56c4.65-.89,10-1.86,10-1.86Z"/><path class="cls-14" d="M51,52.89c.07.59.27,1.8.37,2.43l1-.26-.62-3.53a4.88,4.88,0,0,1-1-.5Z"/><path class="cls-15" d="M51,52.89c.07.59.27,1.8.37,2.43l1-.26-.62-3.53a4.88,4.88,0,0,1-1-.5Z"/><path class="cls-14" d="M55.9,54.2l1.28-.3c-.08-.5-.26-1.6-.34-2.24s-.26-1.81-.32-2.23a13.35,13.35,0,0,1-1.18,1.14c.05.38.18,1.22.26,1.77s.22,1.43.29,1.86"/><path class="cls-15" d="M55.9,54.2l1.28-.3c-.08-.5-.26-1.6-.34-2.24s-.26-1.81-.32-2.23a13.35,13.35,0,0,1-1.18,1.14c.05.38.18,1.22.26,1.77S55.83,53.77,55.9,54.2Z"/><path class="cls-14" d="M53.21,51.16c1.46-.28,3.24-2.33,4.19-3.55l-2.53-1.87a16.32,16.32,0,0,0-3-2c-.29.06-1.17,1.22-2.25,3.16-.67,1.22-1.51,2.92-1.76,3.45a21.45,21.45,0,0,0-.15,2.47c.19-.34.46-.85.65-1.28a21.09,21.09,0,0,0,.71-2.12l.45-.07s1.9,2.14,3.67,1.8"/><path class="cls-15" d="M53.21,51.16c1.46-.28,3.24-2.33,4.19-3.55l-2.53-1.87a16.32,16.32,0,0,0-3-2c-.29.06-1.17,1.22-2.25,3.16-.67,1.22-1.51,2.92-1.76,3.45a21.45,21.45,0,0,0-.15,2.47c.19-.34.46-.85.65-1.28a21.09,21.09,0,0,0,.71-2.12l.45-.07S51.44,51.5,53.21,51.16Z"/><path class="cls-14" d="M48.51,52c0,.41.14,1.28.21,1.78.1.74.26,1.71.34,2.15l.8-.21c-.13-.71-.25-1.44-.32-1.86-.17-1.1-.33-2.68-.41-3.52a14.89,14.89,0,0,1-.55,1.51l-.08.17"/><path class="cls-15" d="M48.51,52c0,.41.14,1.28.21,1.78.1.74.26,1.71.34,2.15l.8-.21c-.13-.71-.25-1.44-.32-1.86-.17-1.1-.33-2.68-.41-3.52a14.89,14.89,0,0,1-.55,1.51Z"/><path class="cls-14" d="M53.8,54.72l-.53-3a2.67,2.67,0,0,1-1,0L52.76,55l1-.26"/><path class="cls-15" d="M53.8,54.72l-.53-3a2.67,2.67,0,0,1-1,0L52.76,55Z"/><path class="cls-14" d="M55.45,54.31l-.53-3.41a4.9,4.9,0,0,1-1.18.67l.48,3,1.22-.3"/><path class="cls-15" d="M55.45,54.31l-.53-3.41a4.9,4.9,0,0,1-1.18.67l.48,3Z"/><path class="cls-19" d="M49.83,42.72A24.71,24.71,0,0,0,48,58.63s7.38-1.55,12-2.45S73.5,53.77,73.5,53.77L71.31,41.29c-.67-4-1.9-12.8-1.9-12.8-8.57,1.57-15.73,6.23-19.58,14.24m.5-.17c4.84-9.76,14-12.61,18.55-13.49,0,0,.15.8.34,2.18A23.46,23.46,0,0,0,59,35.51a21,21,0,0,0-6.67,7.82.73.73,0,0,0-.37-.12c-.54.11-1.37,1.4-2.15,2.68-.5.81-1.36,2.6-1.81,3.52a24.09,24.09,0,0,1,2.29-6.86m-.44,13.17-.8.21c-.07-.43-.24-1.41-.34-2.14-.07-.5-.16-1.37-.21-1.77l.08-.17a15.78,15.78,0,0,0,.55-1.51c.08.84.24,2.42.4,3.52.06.42.19,1.15.32,1.86M47.76,53.5c.1-.18.32-.57.53-1,0,.34.09,1,.17,1.39s.27,1.62.35,2.11l-.85.22c-.12-.92-.19-1.83-.21-2.73m0-.68a22.43,22.43,0,0,1,.15-2.47c.26-.53,1.09-2.24,1.77-3.45,1.07-1.94,2-3.1,2.25-3.16a16.26,16.26,0,0,1,3,2l2.54,1.86c-1,1.22-2.73,3.27-4.19,3.55-1.77.34-3.65-1.78-3.66-1.8l-.45.07a21.21,21.21,0,0,1-.72,2.12c-.19.43-.47.95-.66,1.28m8.8-3.4c.06.42.23,1.54.31,2.23s.26,1.74.34,2.24l-1.28.31c-.07-.43-.21-1.32-.29-1.86l-.26-1.77a12.5,12.5,0,0,0,1.18-1.14M55,50.9l.53,3.4-1.22.3-.48-3A4.89,4.89,0,0,0,55,50.9m-1.66.79.53,3-1,.26-.49-3.3a2.67,2.67,0,0,0,1,0m-1.49-.16.62,3.53-1,.26c-.1-.64-.3-1.84-.37-2.43L50.82,51a4.88,4.88,0,0,0,1,.5m-1.38-.79.27,2.19c.08.6.28,1.85.38,2.48l-.85.22c-.13-.7-.25-1.41-.31-1.82-.2-1.35-.4-3.42-.45-4a7.29,7.29,0,0,0,1,.88m-.1,5.4c2.41-.59,6.08-1.47,8.74-2.05.11.72.21,1.35.25,1.63-3,.6-6.49,1.32-8.74,1.79,0-.25-.14-.77-.25-1.37m8.32-4.66c.09.53.21,1.28.33,2l-1.31.29c-.08-.54-.26-1.68-.34-2.22S57,49.47,57,49c.44-.52,1.09-1.39,1.16-1.48.1.87.34,2.91.53,4m-.84-4.39s-2-1.41-2.85-2l-.39-.28,1.49-2.16c.44-.63,1.49-2.16,2.28-2.31.6-.12,2.65,1.39,3.29,1.88l-.62.72c-1.23,1.46-3.2,4.16-3.2,4.16m1.41,4.68c-.12-.95-.42-3.37-.53-4.25.32.28.84.69,1.49,1.14l.69,4.44-1.42.29c-.1-.62-.19-1.22-.24-1.62m.79-4c-.61-.46-1.07-.87-1.31-1.09.73-1,1.87-2.5,2.68-3.4,1.27-1.41,4-4.5,5.5-4.64s3.06,1.17,3.59,1.61c.07.44.13.86.19,1.23.1.63.22,1.36.35,2.14L68.63,44l-.15-.64-1.05-.64L67,40.19l-.59.1.43,2.46-.88,1.16.43,3.14-.88.15-.29-1.75-1.58-1-1.29,1.81.18,1ZM60.74,49a15.26,15.26,0,0,0,1.62.91l.49,2.78L61.44,53Zm-.09-.78,2.52-.47-.25-1.4.81-1.11.85.56.34,2.06,2.24-.41-.57-3.36.55-.76.65.34.71,4,.71-.13-.52-2.95,2.45-.43c.31,1.86.67,3.93,1,5.62a15.23,15.23,0,0,1-7.59.23,11,11,0,0,1-3.85-1.8m2.34,2a10.15,10.15,0,0,0,1.33.45,17.34,17.34,0,0,0,7.87-.24c0,.16.06.32.08.47-1,.19-5.16,1-8.87,1.69Zm3.75-12.13c-1.4.27-3.28,2.08-4.72,3.68a20.23,20.23,0,0,0-2.77-1.69,16.88,16.88,0,0,1,4.57-3.43,21,21,0,0,1,5.88-1.81c.22,1.6.44,3.2.66,4.67-.88-.63-2.51-1.63-3.62-1.42m2.9-3.71a21.8,21.8,0,0,0-6,1.89,17.78,17.78,0,0,0-4.82,3.61,1.06,1.06,0,0,0-.49-.08c-1.1.22-2.51,2.34-2.91,2.94l-1.21,1.81c-.52-.37-1-.74-1.48-1a20.3,20.3,0,0,1,6.51-7.7,23.17,23.17,0,0,1,10-4.2c.11.82.23,1.72.37,2.72M48,56.71,50,56.23c.11.59.2,1.11.24,1.35l-2,.41c-.07-.43-.14-.86-.2-1.28m14.64-1.66-2.85.56c0-.28-.16-.92-.27-1.63,3.9-.83,11.39-2.18,12.85-2.44l.29,1.65s-5.37,1-10,1.86"/><path class="cls-4" d="M69.22,61.24l2.34-.41L71,57.66l-9.15,1.61.56,2.84,2.66-.26s1.52,6.35,2.26,8.65c.64,2,1.79,5.18,1.79,5.18s1.31,0,2.14-.13l1.44-.19s-1.2-4.25-1.81-6.64-1.69-7.48-1.69-7.48"/><path class="cls-13" d="M69.22,61.24l2.34-.41L71,57.66l-9.15,1.61.56,2.84,2.66-.26s1.52,6.35,2.26,8.65c.64,2,1.79,5.18,1.79,5.18s1.31,0,2.14-.13l1.44-.19s-1.2-4.25-1.81-6.64S69.22,61.24,69.22,61.24Z"/><path class="cls-4" d="M71.25,57.61l.56,3.17L74,60.4s1.25,7.1,1.81,9.4,1.07,5,1.07,5l3.74-.66s-.43-3.3-.72-5.1-1.53-9.51-1.53-9.51l2.91-.51-.55-3.11Z"/><path class="cls-13" d="M71.25,57.61l.56,3.17L74,60.4s1.25,7.1,1.81,9.4,1.07,5,1.07,5l3.74-.66s-.43-3.3-.72-5.1-1.53-9.51-1.53-9.51l2.91-.51-.55-3.11Z"/><path class="cls-20" d="M251.82,25.74l.19.17a4.3,4.3,0,0,0,2.26,1.17c.36,0,.92,0,.92-.49s-.47-.54-.8-.65l-.73-.22a3.2,3.2,0,0,1-2.62-3c0-2.38,2.17-3.42,4.33-3.12a6.53,6.53,0,0,1,3.1,1.27l-1,2.39a4.15,4.15,0,0,0-2.06-1c-.32,0-.78,0-.78.43s.45.48.72.58l.81.28c1.5.52,2.58,1.46,2.58,3.12,0,2.34-2.12,3.28-4.24,3.05a9.83,9.83,0,0,1-3.85-1.32Zm-6.68-2.36,1.68-4.84,3.54.48-2.44,4.69Zm-11-6.47,3.95.53L238,22H238a3.38,3.38,0,0,1,.55-1.11l1.92-3.1,4.25.57-3.35,4.59,3.7,5.71-4.52-.47-1.88-3.35a5,5,0,0,1-.67-1.3H238l.09,4.4-3.95-.41Zm-12.83-1.75,5.21.7c2.62.35,4.8,1.66,4.8,4.34,0,1.61-.67,2.21-2.22,2.51v.09a3.26,3.26,0,0,1,.7.72l2.48,3.73-4.81-.5-1.86-3.66h-.08v3.47l-4.23-.44Zm4.23,5.36.3,0c.7.09,1.4.07,1.4-.73s-.64-1-1.37-1.1l-.33,0Zm-6.36,0c0,3.53-3,5.32-6.84,4.93s-7.1-2.93-7.1-6.59,3.23-5.48,7.1-5S219.14,17,219.14,20.47Zm-9.21-1a2.49,2.49,0,0,0,2.37,2.43A1.88,1.88,0,0,0,214.64,20a2.54,2.54,0,0,0-2.34-2.46A1.92,1.92,0,0,0,209.92,19.43Zm-13.14-7.57,1.52,3.24.15,0a10,10,0,0,1,.45-1l1-1.81,5.44.73-4.55,6v5l-4.83-.5v-5l-4.87-7.31ZM164.9,7.57l2,7.78.12,0a11.89,11.89,0,0,1,.49-2.26l1.67-5,4.34.58,2.1,7.63.12,0a12.44,12.44,0,0,1,.38-2.12l1.53-5,5.63.76L178,21.58l-4.84-.51-1.77-6.95-.19,0A9.22,9.22,0,0,1,171,16l-1.58,4.72-4.92-.51L158.75,6.74ZM146,5,157.5,6.58v3.51l-5.16-.65v1.24l4.72.59v3.34l-4.72-.54v1.28l5.34.6v3.51L146,18.24Zm-21.3-2.86,6.64.89,6,8.28.19,0a16.06,16.06,0,0,1-.56-3.5v-4l6.27.84V18L137,17.3l-5.92-7.79-.2,0a12.4,12.4,0,0,1,.42,2.78v4.44L124.71,16Z"/><path class="cls-8" d="M124.71,2.16l6.64.89,6,8.28.19,0a16.06,16.06,0,0,1-.56-3.5v-4l6.27.84V18L137,17.3l-5.92-7.79-.2,0a12.4,12.4,0,0,1,.42,2.78v4.44L124.71,16Z"/><polygon class="cls-8" points="146 5.03 157.5 6.58 157.5 10.09 152.34 9.44 152.34 10.68 157.06 11.26 157.06 14.61 152.34 14.07 152.34 15.34 157.67 15.94 157.67 19.45 146 18.24 146 5.03"/><path class="cls-8" d="M164.9,7.57l2,7.78.12,0a12,12,0,0,1,.49-2.26l1.67-5,4.34.58,2.09,7.63.12,0a12.47,12.47,0,0,1,.38-2.12l1.53-5,5.63.76L178,21.58l-4.84-.51-1.77-6.95-.19,0A9.37,9.37,0,0,1,171,16l-1.58,4.72-4.92-.51L158.75,6.74Z"/><path class="cls-8" d="M196.78,11.86l1.52,3.24.15,0a9.77,9.77,0,0,1,.45-1l1-1.81,5.44.73-4.55,6v5l-4.83-.5v-5l-4.87-7.31Z"/><path class="cls-8" d="M219.14,20.47c0,3.53-3,5.32-6.84,4.93s-7.1-2.93-7.1-6.59,3.23-5.48,7.1-5,6.84,3.17,6.84,6.62m-9.21-1a2.49,2.49,0,0,0,2.37,2.43A1.88,1.88,0,0,0,214.64,20a2.54,2.54,0,0,0-2.34-2.46,1.92,1.92,0,0,0-2.37,1.9"/><path class="cls-8" d="M221.27,15.16l5.21.7c2.62.35,4.8,1.66,4.8,4.34,0,1.61-.67,2.21-2.22,2.51v.09a3.25,3.25,0,0,1,.7.72l2.49,3.73-4.81-.5-1.86-3.67h-.08v3.47l-4.23-.44Zm4.23,5.36.3,0c.7.09,1.4.07,1.4-.73s-.63-1-1.37-1.1l-.33,0Z"/><path class="cls-8" d="M234.1,16.91l3.95.53L238,22H238a3.36,3.36,0,0,1,.55-1.11l1.91-3.1,4.26.57-3.35,4.59,3.7,5.71-4.52-.47-1.88-3.35a5,5,0,0,1-.67-1.3H238L238,27.9l-3.95-.41Z"/><polygon class="cls-8" points="245.15 23.38 246.83 18.54 250.37 19.02 247.93 23.71 245.15 23.38"/><path class="cls-8" d="M251.82,25.74l.19.17a4.31,4.31,0,0,0,2.26,1.17c.36,0,.92,0,.92-.49s-.47-.54-.8-.65l-.73-.21a3.2,3.2,0,0,1-2.62-3c0-2.38,2.17-3.42,4.33-3.13a6.49,6.49,0,0,1,3.1,1.28l-1,2.39a4.19,4.19,0,0,0-2.06-1c-.32,0-.78,0-.78.43s.45.48.72.58l.81.28c1.5.52,2.58,1.46,2.58,3.12,0,2.34-2.12,3.27-4.24,3.05a9.77,9.77,0,0,1-3.85-1.32Z"/><path class="cls-21" d="M121,152.46l2.79-13.17,5.49-.75,1.06,4c.11.43.2.87.29,1.32s.16.93.23,1.42l2.68-7.32,5.5-.75,1,12.66-5,.69-.26-6.8c-.09.33-.19.68-.3,1s-.25.73-.4,1.11l-2,5-3.1.42-1.74-6.4a8.81,8.81,0,0,1-.07,1q-.06.52-.18,1.09l-.9,4.68Z"/><path class="cls-21" d="M141.85,149.62l1.06-12.94,10.34-1.41-.27,3.51-4.91.67-.11,1.25,4.62-.63-.26,3.28-4.61.63-.11,1.39,5.35-.73-.28,3.51Z"/><path class="cls-21" d="M169.47,144.36a14,14,0,0,1-3,1.78,12.18,12.18,0,0,1-3.2.89,8.73,8.73,0,0,1-5.7-.88,5.2,5.2,0,0,1-2.67-4,6.6,6.6,0,0,1,1.41-5.13,7.92,7.92,0,0,1,2.68-2.22,11.13,11.13,0,0,1,3.71-1.14,9.69,9.69,0,0,1,4.22.24,6.33,6.33,0,0,1,3,2l-4.68,2.18a2.48,2.48,0,0,0-1-.55,3.07,3.07,0,0,0-1.21-.05,3.27,3.27,0,0,0-2.23,1.2,3.06,3.06,0,0,0-.59,2.39,2.35,2.35,0,0,0,1.07,1.75,3.24,3.24,0,0,0,2.27.41l.38-.06.39-.09.11-1.27-2,.27.24-2.93,7.17-1Z"/><path class="cls-21" d="M186.84,143.48l1.06-12.94,5.81-.79a9.83,9.83,0,0,1,5.14.33,3.38,3.38,0,0,1,2.08,2.83,3.94,3.94,0,0,1-1.31,3.66,8.84,8.84,0,0,1-4.83,1.9l-2.15.29-.32,4Zm6.09-8.09.4-.05a3.92,3.92,0,0,0,1.72-.55,1,1,0,0,0,.44-1,.74.74,0,0,0-.57-.63,4,4,0,0,0-1.56,0l-.26,0Z"/><path class="cls-21" d="M170.29,145.74l6.14-13.64,6-.81,3.69,12.3-5.36.73-.33-1.66-3.62.49-.59,1.79Zm7.56-5.76,1.92-.26-.25-1.34c0-.07,0-.18-.06-.31q-.17-.84-.24-1.35c0-.23-.05-.41-.07-.53s0-.24,0-.35q-.12.53-.25,1t-.26.88Z"/><path class="cls-21" d="M202.36,141.36l1.06-12.94,5.57-.76-.74,9,4.63-.63-.33,4Z"/><path class="cls-21" d="M214.06,139.76l1.07-12.94,5.54-.76L219.61,139Z"/><path class="cls-21" d="M222.49,138.61l1.06-12.94,10.34-1.41-.27,3.51-4.91.67-.11,1.25,4.62-.63-.26,3.28-4.61.63-.11,1.4,5.35-.73-.28,3.51Z"/><path class="cls-21" d="M235.51,136.83l1.06-12.94,5.81-.79a10.3,10.3,0,0,1,5.08.29,3.09,3.09,0,0,1,2.07,2.58,3.69,3.69,0,0,1-.61,2.74,4.83,4.83,0,0,1-2.56,1.72l2.83,4.53-5.59.77-2.26-4.34-.39,4.7Zm6-7.95.4-.05a3.85,3.85,0,0,0,1.79-.59,1.14,1.14,0,0,0,.44-1.13.86.86,0,0,0-.58-.74,3.28,3.28,0,0,0-1.52-.05l-.32,0Z"/></svg>