<svg id="Layer_1" data-name="Layer 1" xmlns="http://www.w3.org/2000/svg" viewBox="0 0 255.15 100.27"><defs><style>.cls-1{fill:#00928f;}.cls-2{fill:#fff;}.cls-3{fill:#ca3092;}</style></defs><title>logo-take5</title><polygon class="cls-1" points="162.51 91.23 0 91.23 19.22 8.19 181.73 8.19 162.51 91.23"/><path class="cls-2" d="M34.16,39.31V70.54H22.75V39.31H11.23V29.37H45.69v9.94Z"/><path class="cls-2" d="M73.33,70.54,71.1,63.3H58.74l-2.23,7.23H44.28L59.22,29.37H70.74L85.68,70.54Zm-5.76-19C66.1,46.25,65.45,44,64.92,41.25c-.53,2.76-1.18,5.06-2.65,10.29l-.76,2.7h6.82Z"/><path class="cls-2" d="M113.61,70.54l-10.4-14.08V70.54H91.56V29.37h11.65v4.82c0,3.47-.06,6.47-.18,9.47,1.71-2.71,11-14.29,11-14.29h14.14l-15.81,20,17.22,21.2Z"/><path class="cls-2" d="M134.73,70.54V29.37h36V39H146v5.47h12.17V53.9H146V61h20.64v9.59Z"/><polygon class="cls-3" points="232.07 100.27 152.88 100.27 175.96 0 255.15 0 232.07 100.27"/><path class="cls-2" d="M202.14,81.34A47.48,47.48,0,0,1,176.35,74l6.82-12.51c5.78,3.45,12.93,6,19.41,6,7.76,0,10.61-2.85,10.61-7.68,0-4.66-2.93-7.07-8.1-7.07a17.3,17.3,0,0,0-11.13,3.45l-14.32-4.83L181.7,20h44V33.65H195.24L194.72,42c3.36-1.64,7-2.67,13-2.67,13,0,21.56,6.56,21.56,20C229.31,73.41,219.3,81.34,202.14,81.34Z"/></svg>