<svg xmlns="http://www.w3.org/2000/svg" viewBox="0 0 357.76 129.77"><defs><style>.cls-1,.cls-4{fill:#fff;}.cls-1{stroke:#0060a9;stroke-width:2.92px;}.cls-2{fill:#2e73b5;}.cls-3{fill:#5a86c0;}.cls-5{fill:none;stroke:#fff;stroke-width:3.89px;}</style></defs><title>logo-numbers</title><g id="Layer_2" data-name="Layer 2"><rect class="cls-1" x="1.46" y="1.46" width="354.84" height="126.85"/><path class="cls-2" d="M69.11,107.95c-6.53,0-11.84,5.27-12.46,14H81.56C80.12,113.84,76,107.95,69.11,107.95Z"/><path class="cls-2" d="M155.75,96.49c0-21.79-18.45-34.71-51-34.71l14.54-54H87.36A152.34,152.34,0,0,1,73.45,22.32C65.69,29.63,58,37.08,52.28,42.83H81.56c8.35,0,12.7-3.53,15.4-11.1h4.58L94.26,55.24H41.11V46.35c4.35-5.62,10.23-11.24,15.76-17.11s12.22-13.41,17-21.41H8v8.66c14.66,1.14,26.65,8.79,26.65,23.42C34.69,55.36,21.33,63,15.27,64.7V65C27,70.82,40.61,78.47,40.61,96.69c0,11.22-5.72,20-14.82,25.22H42.42c0-.71,0-1.42,0-2.15.42-25.25,20.3-49.21,48.18-51.2V74.4c-18.94-.35-30,15.78-32.93,34,4.31-3.51,9-7,16.94-7,10.05,0,19.16,6.46,20.78,20.5h8.76l-5.54-15.81c-.5-1.29-.83-2.58.33-4.06l5-5.91c1-1.11,2.16-2.21,3-.55l9.31,16.25c2.25,3.81,5,8,10.68,10.08h15.26C150,118.62,155.75,109.55,155.75,96.49Z"/><path class="cls-2" d="M235.75,115.86V79.22c-7.44,7.9-18.21,26-23.82,36.64Z"/><path class="cls-2" d="M294.08,64.6c-9.94,0-13.86,11.42-13.86,20.79,0,12.58,4.62,23.11,14.33,23.11,7.39,0,13.75-6.55,13.75-17.2C309,74.87,301.94,64.6,294.08,64.6Z"/><path class="cls-2" d="M309.23,40c3.87,0,12.63-.41,13.74-32.19H295.58C296.68,39.62,305.36,40,309.23,40Z"/><path class="cls-2" d="M337.54,7.83c-2.07,22.62-13.21,36.33-28.31,36.33S283.09,30.45,281,7.83h-9.45c-3.23,4.07-8.23,6.76-14.14,8.06v.22c12.21,1.21,21.24,8.82,21.44,20.84.2,14.89-13.3,22.72-28,22.72-7.45-.22-15.29-3.31-17.27-4.85l-3.37-9.37a1.49,1.49,0,0,1,.5-2l2.78-2.32c1-1.1,1.79-1.32,2.28-.66L240.95,49c2.38,3.64,6,6.84,10.72,6.84,6.85,0,12.31-7.5,12.31-18.42,0-19.85-16.48-17.54-21.34-17.54V14.57c7.17-.27,12.31-2.54,15.26-6.74H234.52V10c-7.11,16.86-17.46,41.22-38.42,87.25H180.8C193.69,75.07,209.35,44,221.63,17.66h-24c-4,0-11.68-.27-13,6.69h-3.25V7.83H165.88l-2.82,8.53H125.33l-6.15,23.26c37.89,0,55.17,23.63,55.17,48.38a40.75,40.75,0,0,1-17.28,33.9H203l-.24-.78c4.63-9.46,26-41.79,35-54.72h12.29v49.45h10.24v6h42.37A57.32,57.32,0,0,0,306.56,108l-.23-.26c-3.93,4.11-9.24,8-17.91,8-12.13,0-23.22-8.73-23.11-27.86.12-15.66,11.21-29,29.46-29,15.6,0,29.23,11.17,28.88,34.92A60.13,60.13,0,0,1,316,121.9h33.52V116H330.38v-3.67c8-.71,12.26-.95,12.69-3.67a60.62,60.62,0,0,0,.43-9.36V49.39c0-7.23-6.08-5.21-10.34-3.55l-5,2L327,43.23l22.57-8.53V7.83Z"/><path class="cls-2" d="M9.2,60.87C15,57.81,20.09,50.46,20.09,40.06c0-9.41-4.35-16.52-12-18.26V60.32Z"/><path class="cls-2" d="M22.7,101c0-9.78-6.82-15.8-14.66-20.59v41.31C17,119.84,22.7,111.81,22.7,101Z"/><path class="cls-3" d="M309.23,44.16c15.09,0,26.24-13.71,28.31-36.33H323C321.86,39.62,313.1,40,309.23,40s-12.54-.41-13.64-32.19H281C283.09,30.45,294.23,44.16,309.23,44.16Z"/><path class="cls-3" d="M294.78,58.83c-18.25,0-29.34,13.35-29.46,29-.12,19.13,11,27.86,23.11,27.86,8.66,0,14-3.85,17.91-8l.23.26a57.32,57.32,0,0,1-3.86,13.91H316a60.13,60.13,0,0,0,7.65-28.16C324,70,310.37,58.83,294.78,58.83ZM308.29,91.3c0,10.65-6.35,17.2-13.75,17.2-9.71,0-14.33-10.53-14.33-23.11,0-9.37,3.93-20.79,13.86-20.79C301.94,64.6,309,74.87,308.29,91.3Z"/><path class="cls-3" d="M174.36,88c0-24.74-17.28-48.38-55.17-48.38l6.15-23.26h37.72l2.82-8.53H119.27l-14.54,54c32.57,0,51,12.92,51,34.71,0,13.06-5.75,22.13-13.61,25.41h14.95A40.75,40.75,0,0,0,174.36,88Z"/><path class="cls-3" d="M116.2,111.82l-9.31-16.25c-.83-1.66-2-.55-3,.55l-5,5.91c-1.16,1.48-.83,2.77-.33,4.06l5.54,15.81h22.75C121.21,119.81,118.44,115.63,116.2,111.82Z"/><path class="cls-3" d="M328.14,47.85l5-2c4.26-1.66,10.34-3.67,10.34,3.55V99.26a60.62,60.62,0,0,1-.43,9.36c-.43,2.73-4.69,3-12.69,3.67V116h19.15V34.7L327,43.23Z"/><path class="cls-3" d="M40.61,96.69C40.61,78.47,27,70.82,15.27,65V64.7C21.33,63,34.69,55.36,34.69,39.9c0-14.63-12-22.27-26.65-23.42V21.8c7.7,1.74,12,8.84,12,18.26,0,10.41-5.1,17.75-10.88,20.82L8,60.32V80.38C15.88,85.18,22.7,91.2,22.7,101,22.7,111.81,17,119.84,8,121.69v.21H25.79C34.89,116.71,40.61,107.91,40.61,96.69Z"/><path class="cls-3" d="M74.58,101.4c-7.89,0-12.62,3.51-16.94,7,2.95-18.23,14-34.36,32.93-34V68.56c-27.88,2-47.76,25.95-48.18,51.2,0,.73,0,1.44,0,2.15H56.66c.62-8.69,5.93-14,12.46-14,6.93,0,11,5.89,12.45,14h13.8C93.75,107.87,84.64,101.4,74.58,101.4Z"/><path class="cls-3" d="M184.66,24.35c1.33-7,9-6.69,13-6.69h24C209.35,44,193.69,75.07,180.8,97.28H196.1c21-46,31.31-70.39,38.42-87.25V7.83H181.41V24.35Z"/><path class="cls-3" d="M250.08,115.86V66.41H237.8c-9.05,12.93-30.39,45.26-35,54.72l.24.78h57.31v-6Zm-14.33,0H211.94c5.6-10.66,16.38-28.74,23.82-36.64Z"/><path class="cls-3" d="M242.64,14.57v5.29c4.86,0,21.34-2.32,21.34,17.54,0,10.92-5.46,18.42-12.31,18.42-4.76,0-8.34-3.2-10.72-6.84l-5.16-8.49c-.5-.66-1.29-.44-2.28.66l-2.78,2.32a1.49,1.49,0,0,0-.5,2l3.37,9.37c2,1.54,9.83,4.63,17.27,4.85,14.69,0,28.19-7.83,28-22.72-.2-12-9.23-19.63-21.44-20.84v-.22c5.91-1.3,10.91-4,14.14-8.06H257.9C254.95,12,249.8,14.3,242.64,14.57Z"/><path class="cls-3" d="M41.11,46.35v8.88H94.26l7.29-23.52H97c-2.7,7.58-7.06,11.1-15.4,11.1H52.28c5.76-5.75,13.4-13.2,21.17-20.51A152.34,152.34,0,0,0,87.36,7.83H73.89c-4.8,8-11.51,15.43-17,21.41S45.46,40.74,41.11,46.35Z"/><path class="cls-4" d="M135.31,123.27a17.62,17.62,0,0,0,6.83-1.36H126.87A24,24,0,0,0,135.31,123.27Z"/><line class="cls-5" x1="56.04" y1="5.41" x2="56.04" y2="125.07"/><line class="cls-5" x1="105.87" y1="5.41" x2="105.87" y2="125.07"/><line class="cls-5" x1="158.04" y1="5.41" x2="158.04" y2="125.07"/><line class="cls-5" x1="205.52" y1="5.41" x2="205.52" y2="125.07"/><line class="cls-5" x1="251.46" y1="5.41" x2="251.46" y2="125.07"/><line class="cls-5" x1="301.29" y1="5.41" x2="301.29" y2="125.07"/><path class="cls-4" d="M14.79,23.54H29L36.53,80h.15V23.54H47.15v83H33.84L25.41,47.24h-.15V106.5H14.79Z"/><path class="cls-4" d="M96,79.89c0,21.5-6.18,28.24-15.2,28.24s-15.2-6.74-15.2-28.24V23.54H77.36V78.73c0,6.51,0,10.57,3.42,10.57s3.42-4.07,3.42-10.57V23.54H96Z"/><path class="cls-4" d="M141.25,37.48h-.15l-5.45,69h-7.27l-5.45-69h-.15v69H111.88v-83H129L132.09,68h.15l3.34-44.5h16.58v83H141.25Z"/><path class="cls-4" d="M167.61,23.54h16.94c8.14,0,11.85,6.62,11.85,19.75,0,9.06-1.6,17.89-8.14,20.1v.23c7,1,8.73,9.41,8.73,19.05,0,16.15-6.33,23.82-15.71,23.82H167.61Zm10.9,32.65h2c2.69,0,4.07-2.56,4.07-8.25s-1.38-7.67-4-7.67h-2.11Zm0,33.58h2c3.13,0,4.65-2.67,4.65-8.71s-1.53-8.83-4.65-8.83h-2Z"/><path class="cls-4" d="M215.88,23.54h25.23V41.66H227.66V56.07h13.45V74.2H227.66V88.37h13.45V106.5H215.88Z"/><path class="cls-4" d="M273.19,71.64H273V106.5H261.7v-83h16.36c8.58,0,12.87,7.32,12.87,23.35,0,9.76-1.17,20.1-7.42,22.78l8.22,36.83h-12ZM273,58.39h2.25c3.05,0,3.85-5.11,3.85-8.83,0-6-1.16-8.6-4.65-8.6H273Z"/><path class="cls-4" d="M313.28,80.94c2,5.46,5.82,9.06,9.53,9.06,4.44,0,5.38-3.25,5.38-6.85,0-12.2-16.07-10-16.07-36.37,0-15.69,5-24.87,14.32-24.87,5.45,0,8.44,2.32,11.42,7.67V49.45c-1.75-5.34-5.24-8.71-8.87-8.71-2.91,0-5.53,1.51-5.53,6.62,0,9.64,15.63,8.95,15.63,34.39,0,17.31-5.31,26.38-15.49,26.38-3.71,0-7.63-2.56-10.33-6.86Z"/></g></svg>