<?xml version="1.0" encoding="utf-8"?>
<!-- Generator: Adobe Illustrator 19.2.0, SVG Export Plug-In . SVG Version: 6.00 Build 0)  -->
<svg version="1.1" id="Layer_1" xmlns="http://www.w3.org/2000/svg" xmlns:xlink="http://www.w3.org/1999/xlink" x="0px" y="0px"
	 viewBox="0 0 681 681" style="enable-background:new 0 0 681 681;" xml:space="preserve">
<style type="text/css">
	.st0{opacity:0.3;}
	.st1{fill:#FFFFFF;}
</style>
<g>
	<path class="st0" d="M346.5,355.4c28.2-21.1,40.1-29.3,49.3-44.9c12.9-22,3.8-44.3-12.4-51.6c-15.3-6.8-29.8-1.6-36.8,13.1
		c-7.1-14.8-21.5-20-36.9-13.1c-16.3,7.3-25.3,29.6-12.4,51.6C306.4,326.1,318.2,334.3,346.5,355.4z"/>
	<path class="st1" d="M346.5,343.5c23.1-17.2,32.8-23.9,40.2-36.7c10.5-18,3.1-36.2-10.2-42.1c-12.5-5.6-24.3-1.3-30.1,10.7
		c-5.8-12.1-17.6-16.3-30.1-10.7c-13.3,5.9-20.6,24.2-10.1,42.1C313.7,319.6,323.4,326.2,346.5,343.5z"/>
</g>
</svg>
