<?xml version="1.0" encoding="utf-8"?>
<!-- Generator: Adobe Illustrator 19.2.0, SVG Export Plug-In . SVG Version: 6.00 Build 0)  -->
<svg version="1.1" id="Layer_1" xmlns="http://www.w3.org/2000/svg" xmlns:xlink="http://www.w3.org/1999/xlink" x="0px" y="0px"
	 viewBox="0 0 737 737" style="enable-background:new 0 0 737 737;" xml:space="preserve">
<style type="text/css">
	.st0{opacity:0.3;enable-background:new    ;}
	.st1{fill:#FFFFFF;}
	.st2{fill:#EC513F;}
	.st3{fill:#D44938;}
	.st4{fill:#FCB615;}
	.st5{fill:#E2A313;}
</style>
<image style="display:none;overflow:visible;enable-background:new    ;" width="681" height="709" xlink:href="lottery-wheel.png"  transform="matrix(0.9797 0 0 0.9797 34.9267 21.2115)">
</image>
<g>
	<path class="st0" d="M374.5,420.4c28.2-21.1,40.1-29.3,49.3-44.9c12.9-22,3.8-44.3-12.4-51.6c-15.3-6.8-29.8-1.6-36.8,13.1
		c-7.1-14.8-21.5-20-36.9-13.1c-16.3,7.3-25.3,29.6-12.4,51.6C334.4,391.1,346.2,399.3,374.5,420.4z"/>
	<path class="st1" d="M374.5,408.5c23.1-17.2,32.8-23.9,40.2-36.7c10.5-18,3.1-36.2-10.2-42.1c-12.5-5.6-24.3-1.3-30.1,10.7
		c-5.8-12.1-17.6-16.3-30.1-10.7c-13.3,5.9-20.6,24.2-10.1,42.1C341.7,384.6,351.4,391.2,374.5,408.5z"/>
</g>
<g>
	<polygon class="st2" points="375,0 390.5,0 382.7,27.8 375,55.7 367.3,27.8 359.5,0 	"/>
	<polygon class="st3" points="375,0 375,55.6 375,55.7 382.7,27.8 390.5,0 	"/>
	<ellipse transform="matrix(0.9899 -0.1421 0.1421 0.9899 1.8301 53.4281)" class="st4" cx="375" cy="13.9" rx="5.9" ry="5.9"/>
	<path class="st5" d="M375,8.1v11.7c0.3,0,0.6,0,0.8,0c3.2-0.5,5.4-3.4,5-6.6C380.4,10.2,377.9,8.1,375,8.1z"/>
</g>
</svg>
