<?xml version="1.0" encoding="utf-8"?>
<!-- Generator: Adobe Illustrator 19.2.0, SVG Export Plug-In . SVG Version: 6.00 Build 0)  -->
<svg version="1.1" id="Layer_1" xmlns="http://www.w3.org/2000/svg" xmlns:xlink="http://www.w3.org/1999/xlink" x="0px" y="0px"
	 viewBox="0 0 600 600" style="enable-background:new 0 0 600 600;" xml:space="preserve">
<style type="text/css">
	.st0{display:none;}
	.st1{display:inline;fill:#FFDF1B;}
	.st2{display:inline;fill:#F3793E;}
	.st3{display:inline;fill:#EE3D42;}
	.st4{fill:#ECF0F1;}
</style>
<g class="st0">
	<path class="st1" d="M582.9,400H17.1C58.3,516.5,169.4,600,300,600S541.7,516.5,582.9,400z"/>
	<path class="st2" d="M0,299.8v0.3c0,35,6.1,68.6,17.1,99.9h565.8c11.1-31.3,17.1-65,17.1-100c0-35.1-6-68.7-17.1-100H17.1
		C6,231.3,0,264.8,0,299.8z"/>
	<path class="st3" d="M17.1,200h565.8C541.7,83.5,430.6,0,300,0S58.3,83.5,17.1,200z"/>
</g>
<g>
	<g>
		<g>
			<path class="st4" d="M479.9,320.8L228.1,466.2c-16,9.2-36-2.3-36-20.8V154.6c0-18.5,20-30,36-20.8l251.9,145.4
				C495.9,288.5,495.9,311.6,479.9,320.8z"/>
		</g>
	</g>
</g>
</svg>
